<svg viewBox="0 0 330 200" xmlns="http://www.w3.org/2000/svg"><g><g><g><g><g><line x1="72.1240005493164" y1="176.95999908447266" x2="67.1240005493164" y2="176.95999908447266" style="visibility: inherit;" fill="rgb(0, 0, 0)" stroke="rgb(204, 204, 204)" stroke-width="1px"></line><line x1="72.1240005493164" y1="154.83999919891357" x2="67.1240005493164" y2="154.83999919891357" style="visibility: inherit;" fill="rgb(0, 0, 0)" stroke="rgb(204, 204, 204)" stroke-width="1px"></line><line x1="72.1240005493164" y1="132.7199993133545" x2="67.1240005493164" y2="132.7199993133545" style="visibility: inherit;" fill="rgb(0, 0, 0)" stroke="rgb(204, 204, 204)" stroke-width="1px"></line><line x1="72.1240005493164" y1="110.5999994277954" x2="67.1240005493164" y2="110.5999994277954" style="visibility: inherit;" fill="rgb(0, 0, 0)" stroke="rgb(204, 204, 204)" stroke-width="1px"></line><line x1="72.1240005493164" y1="88.47999954223631" x2="67.1240005493164" y2="88.47999954223631" style="visibility: inherit;" fill="rgb(0, 0, 0)" stroke="rgb(204, 204, 204)" stroke-width="1px"></line><line x1="72.1240005493164" y1="66.35999965667723" x2="67.1240005493164" y2="66.35999965667723" style="visibility: inherit;" fill="rgb(0, 0, 0)" stroke="rgb(204, 204, 204)" stroke-width="1px"></line><line x1="72.1240005493164" y1="44.23999977111814" x2="67.1240005493164" y2="44.23999977111814" style="visibility: inherit;" fill="rgb(0, 0, 0)" stroke="rgb(204, 204, 204)" stroke-width="1px"></line><line x1="72.1240005493164" y1="22.119999885559043" x2="67.1240005493164" y2="22.119999885559043" style="visibility: inherit;" fill="rgb(0, 0, 0)" stroke="rgb(204, 204, 204)" stroke-width="1px"></line></g><g transform="translate(62.124000549316406, 0)"><text style="text-anchor: end; visibility: hidden; font-family: Roboto, sans-serif; font-size: 12px; font-weight: 200;" x="0" y="176.95999908447266" dx="0em" dy="0.3em" fill="rgb(33, 33, 33)" stroke="none" stroke-width="1px">-5e-6</text><text style="text-anchor: end; visibility: inherit; font-family: Roboto, sans-serif; font-size: 12px; font-weight: 200;" x="0" y="154.83999919891357" dx="0em" dy="0.3em" fill="rgb(33, 33, 33)" stroke="none" stroke-width="1px">0</text><text style="text-anchor: end; visibility: hidden; font-family: Roboto, sans-serif; font-size: 12px; font-weight: 200;" x="0" y="132.7199993133545" dx="0em" dy="0.3em" fill="rgb(33, 33, 33)" stroke="none" stroke-width="1px">5e-6</text><text style="text-anchor: end; visibility: inherit; font-family: Roboto, sans-serif; font-size: 12px; font-weight: 200;" x="0" y="110.5999994277954" dx="0em" dy="0.3em" fill="rgb(33, 33, 33)" stroke="none" stroke-width="1px">1e-5</text><text style="text-anchor: end; visibility: hidden; font-family: Roboto, sans-serif; font-size: 12px; font-weight: 200;" x="0" y="88.47999954223631" dx="0em" dy="0.3em" fill="rgb(33, 33, 33)" stroke="none" stroke-width="1px">1.5e-5</text><text style="text-anchor: end; visibility: inherit; font-family: Roboto, sans-serif; font-size: 12px; font-weight: 200;" x="0" y="66.35999965667723" dx="0em" dy="0.3em" fill="rgb(33, 33, 33)" stroke="none" stroke-width="1px">2e-5</text><text style="text-anchor: end; visibility: hidden; font-family: Roboto, sans-serif; font-size: 12px; font-weight: 200;" x="0" y="44.23999977111814" dx="0em" dy="0.3em" fill="rgb(33, 33, 33)" stroke="none" stroke-width="1px">2.5e-5</text><text style="text-anchor: end; visibility: inherit; font-family: Roboto, sans-serif; font-size: 12px; font-weight: 200;" x="0" y="22.119999885559043" dx="0em" dy="0.3em" fill="rgb(33, 33, 33)" stroke="none" stroke-width="1px">3e-5</text></g><line x1="72.1240005493164" y1="0" x2="72.1240005493164" y2="176.95999908447266" fill="rgb(0, 0, 0)" stroke="rgb(204, 204, 204)" stroke-width="1px"></line></g></g><g transform="translate(72, 0)" clip-path="url(#clip_0)"><clipPath id="clip_0"><rect width="257" height="176"></rect></clipPath><g><g><g><line x1="0" y1="0" x2="0" y2="176.95999908447266" fill="rgb(0, 0, 0)" stroke="rgb(66, 66, 66)" stroke-width="1px" opacity="0.25"></line><line x1="23.44327267733487" y1="0" x2="23.44327267733487" y2="176.95999908447266" fill="rgb(0, 0, 0)" stroke="rgb(66, 66, 66)" stroke-width="1px" opacity="0.25"></line><line x1="46.88654535466974" y1="0" x2="46.88654535466974" y2="176.95999908447266" fill="rgb(0, 0, 0)" stroke="rgb(66, 66, 66)" stroke-width="1px" opacity="0.25"></line><line x1="70.32981803200461" y1="0" x2="70.32981803200461" y2="176.95999908447266" fill="rgb(0, 0, 0)" stroke="rgb(66, 66, 66)" stroke-width="1px" opacity="0.25"></line><line x1="93.77309070933948" y1="0" x2="93.77309070933948" y2="176.95999908447266" fill="rgb(0, 0, 0)" stroke="rgb(66, 66, 66)" stroke-width="1px" opacity="0.25"></line><line x1="117.21636338667436" y1="0" x2="117.21636338667436" y2="176.95999908447266" fill="rgb(0, 0, 0)" stroke="rgb(66, 66, 66)" stroke-width="1px" opacity="0.25"></line><line x1="140.65963606400922" y1="0" x2="140.65963606400922" y2="176.95999908447266" fill="rgb(0, 0, 0)" stroke="rgb(66, 66, 66)" stroke-width="1px" opacity="0.25"></line><line x1="164.1029087413441" y1="0" x2="164.1029087413441" y2="176.95999908447266" fill="rgb(0, 0, 0)" stroke="rgb(66, 66, 66)" stroke-width="1px" opacity="0.25"></line><line x1="187.54618141867897" y1="0" x2="187.54618141867897" y2="176.95999908447266" fill="rgb(0, 0, 0)" stroke="rgb(66, 66, 66)" stroke-width="1px" opacity="0.25"></line><line x1="210.98945409601387" y1="0" x2="210.98945409601387" y2="176.95999908447266" fill="rgb(0, 0, 0)" stroke="rgb(66, 66, 66)" stroke-width="1px" opacity="0.25"></line><line x1="234.43272677334872" y1="0" x2="234.43272677334872" y2="176.95999908447266" fill="rgb(0, 0, 0)" stroke="rgb(66, 66, 66)" stroke-width="1px" opacity="0.25"></line><line x1="257.8759994506836" y1="0" x2="257.8759994506836" y2="176.95999908447266" fill="rgb(0, 0, 0)" stroke="rgb(66, 66, 66)" stroke-width="1px" opacity="0.25"></line></g><g><line x1="0" y1="176.95999908447266" x2="257.8759994506836" y2="176.95999908447266" fill="rgb(0, 0, 0)" stroke="rgb(66, 66, 66)" stroke-width="1px" opacity="0.25"></line><line x1="0" y1="154.83999919891357" x2="257.8759994506836" y2="154.83999919891357" fill="rgb(0, 0, 0)" stroke="rgb(66, 66, 66)" stroke-width="1px" opacity="0.25"></line><line x1="0" y1="132.7199993133545" x2="257.8759994506836" y2="132.7199993133545" fill="rgb(0, 0, 0)" stroke="rgb(66, 66, 66)" stroke-width="1px" opacity="0.25"></line><line x1="0" y1="110.5999994277954" x2="257.8759994506836" y2="110.5999994277954" fill="rgb(0, 0, 0)" stroke="rgb(66, 66, 66)" stroke-width="1px" opacity="0.25"></line><line x1="0" y1="88.47999954223631" x2="257.8759994506836" y2="88.47999954223631" fill="rgb(0, 0, 0)" stroke="rgb(66, 66, 66)" stroke-width="1px" opacity="0.25"></line><line x1="0" y1="66.35999965667723" x2="257.8759994506836" y2="66.35999965667723" fill="rgb(0, 0, 0)" stroke="rgb(66, 66, 66)" stroke-width="1px" opacity="0.25"></line><line x1="0" y1="44.23999977111814" x2="257.8759994506836" y2="44.23999977111814" fill="rgb(0, 0, 0)" stroke="rgb(66, 66, 66)" stroke-width="1px" opacity="0.25"></line><line x1="0" y1="22.119999885559043" x2="257.8759994506836" y2="22.119999885559043" fill="rgb(0, 0, 0)" stroke="rgb(66, 66, 66)" stroke-width="1px" opacity="0.25"></line></g></g></g><g><g><line x1="0" y1="154.83999919891357" x2="257.8759994506836" y2="154.83999919891357" fill="rgb(0, 0, 0)" stroke="rgb(153, 153, 153)" stroke-width="1.5px"></line></g></g><g><g><line x1="23.44327267733487" y1="0" x2="23.44327267733487" y2="176.95999908447266" fill="rgb(0, 0, 0)" stroke="rgb(153, 153, 153)" stroke-width="1.5px"></line></g></g><g><g><g><g><g><path style="fill: none;" stroke="rgb(255, 112, 67)" stroke-width="2px" d="M24.59199303852428,22.120003238348254L25.764156672391024,22.120003238348232L26.936320306257766,22.120003238348254L28.10848394012451,22.120003238348254L29.280647573991256,50.90209812917175L30.452811207857998,66.66887406292038L31.624974841724743,48.33612612028457L32.79713847559148,37.670536009515125L33.969302109458226,39.24070333047851L35.14146574332497,40.17261496743236L36.31362937719172,59.56592783606004L37.48579301105846,71.15678796868413L38.65795664492521,96.88912311111591L39.830120278791945,112.30699806984654L41.00228391265869,76.21523032998914L42.174447546525435,54.57103342750073L43.34661118039218,43.60930743678592L44.518774814258926,37.03345945354851L45.69093844812567,38.84274397848349L46.86310208199241,39.92824413053514L48.035265715859154,49.19119999101956L49.2074293497259,54.74884345695491L50.37959298359264,68.24141311652579L51.55175661745938,76.33688671680889L52.72392025132613,91.35212377260672L53.896083885192866,100.36123868523791L55.06824751905961,114.37819967171153L56.240411152926356,122.78836708200633L57.4125747867931,133.58848216798808L58.584738420659846,140.06854867277787L59.75690205452659,92.88912424092186L60.92906568839333,64.58147358698243L62.101229322260075,48.1069199911885L63.27339295612682,38.222188337195234L64.44555658999356,33.801855760641665L65.6177202238603,31.149656263342266L66.78988385772705,32.01126433712529L67.9620474915938,32.528229177982496L69.13421112546054,36.139495570674704L70.30637475932728,38.306255401140874L71.47853839319403,43.628695883723296L72.65070202706076,46.82216017054067L73.82286566092752,53.32734641589565L74.99502929479425,57.230458161906526L76.16719292866101,64.55179655720768L77.33935656252774,68.94459959390132L78.5115201963945,76.75876024408558L79.68368383026123,81.44725663400898L80.85584746412798,89.43883168667321L82.02801109799472,94.23377671820286L83.20017473186145,102.09021508472978L84.37233836572821,106.80407810462155L85.54450199959494,114.22150278475797L86.71666563346169,118.67195759283156L87.88882926732843,125.36461667004734L89.06099290119518,129.38021211637414L90.23315653506192,135.0906564638614L91.40532016892867,138.5169230723529L92.57748380279541,143.02561178282343L93.74964743666216,145.73082500910553L94.92181107052889,148.86445915349654L96.09397470439565,150.74463964013108L97.26613833826238,99.29478507941742L98.43830197212914,68.42487234298956L99.61046560599587,50.030740132386924L100.78262923986262,38.994260806025366L101.95479287372936,32.75459310930658L103.1269565075961,29.010792491275318L104.29912014146285,27.397450865640366L105.47128377532958,26.429445890259395L106.64344740919634,26.726210368468834L107.81561104306307,26.90426905539447L108.98777467692982,28.124844441941164L110.15993831079656,28.857189673869186L111.33210194466331,30.63578437810926L112.50426557853005,31.702941200653303L113.6764292123968,33.894975402125674L114.84859284626353,35.21019592300911L116.02075648013029,37.7486756096451L117.19292011399702,39.27176342162666L118.36508374786378,42.11572311215236L119.53724738173051,43.822098926467795L120.70941101559727,46.938201994650555L121.881574649464,48.807863835560234L123.05373828333074,52.16396210330456L124.22590191719749,54.177621063951186L125.39806555106422,57.740622950063674L126.57022918493098,59.878424081731154L127.74239281879771,63.613736362912086L128.91455645266447,65.85492373162063L130.08672008653122,69.72647589827513L131.25888372039796,72.04940719826783L132.43104735426468,76.01987588780123L133.60321098813142,78.40215710152128L134.7753746219982,82.43329474836514L135.94753825586494,84.85197733647144L137.11970188973166,88.90495258906343L138.2918655235984,91.3367377406186L139.46402915746518,95.37252035053135L140.6361927913319,97.79398991647898L141.80835642519864,101.7737097920351L142.98052005906538,104.16154171736876L144.15268369293213,108.04687408419123L145.32484732679887,110.37807350428469L146.49701096066562,114.13159805662349L147.66917459453236,116.38371278802674L148.84133822839908,119.96928359478817L150.01350186226585,122.120626078845L151.1856654961326,125.50371075831447L152.35782912999932,127.53356156599614L153.52999276386606,130.6815790539419L154.70215639773284,132.57038954670932L155.87432003159958,135.4530228141153L157.0464836654663,137.18260277455883L158.21864729933304,139.77209085877092L159.39081093319982,141.32578370929818L160.56297456706653,143.5971879905989L161.73513820093328,144.96003055937936L162.90730183480002,146.89147627503894L164.0794654686668,148.05034370443468L165.2516291025335,149.62323021724853L166.42379273640026,150.56696212493688L167.595956370267,151.76614142299525L168.76812000413372,152.4856490018303L169.9402836380005,153.2995724674758L171.11244727186724,153.78792654686313L172.28461090573396,101.12075722345718L173.4567745396007,69.52045562941362L174.62893817346747,50.592247844102744L175.80110180733422,39.235323172916246L176.97326544120094,32.51701063034299L178.14542907506768,28.486023104799035L179.31759270893446,26.226913397896894L180.48975634280117,24.87144757375559L181.66191997666792,24.28090516994476L182.83408361053466,23.92657972765823L184.00624724440144,23.999438281643396L185.17841087826815,24.043153414034514L186.3505745121349,24.416867419295897L187.52273814600164,24.641095822452705L188.6949017798684,25.184311986898834L189.86706541373513,25.510241685566502L191.03922904760188,26.17468784565309L192.21139268146862,26.573355541705045L193.38355631533534,27.34052067151775L194.5557199492021,27.800819749405374L195.72788358306886,28.66277485834771L196.90004721693558,29.1799479237131L198.07221085080232,30.132419047488728L199.2443744846691,30.703901721754065L200.41653811853584,31.743811606840172L201.58870175240256,32.36775753789184L202.7608653862693,33.49231489688083L203.93302902013608,34.16704931227422L205.1051926540028,35.37344026909821L206.27735628786954,36.09727484319263L207.44951992173628,37.38255829117173L208.62168355560303,38.15372835995921L209.79384718946977,39.51479507181514L210.96601082333652,40.331435098928715L212.13817445720326,41.76499944415707L213.31033809106998,42.62513805129407L214.48250172493675,44.1277478899528L215.6546653588035,45.029313793148035L216.82682899267022,46.59734438097042L217.99899262653696,47.53816273366384L219.17115626040373,49.16784027896819L220.34331989427048,50.14564680615081L221.5154835281372,50.73233072246039L222.68764716200394,52.1850544245793L223.85981079587071,53.05668864585064L225.03197442973743,54.713256989478815L226.20413806360418,55.70719799565572L227.37630169747092,57.467295255439616L228.5484653313377,58.52335361130994L229.7206289652044,60.34806247847894L230.89279259907116,61.44288779878032L232.0649562329379,63.31532679797734L233.23711986680462,64.43879019749556L234.4092835006714,66.34995603237071L235.58144713453814,67.49665553329581" fill="none"></path></g></g></g></g><g opacity="0.2"><g><g><g><path style="fill: none;" stroke="rgb(255, 112, 67)" stroke-width="2px" d="M24.59199303852428,22.120003238348254L25.764156672391024,22.120003238348254L26.936320306257766,22.120003238348254L28.10848394012451,22.120003238348254L29.280647573991256,88.48000121863092L30.452811207857998,88.48000121863092L31.624974841724743,22.120003238348254L32.79713847559148,22.120003238348254L33.969302109458226,41.55639513959905L35.14146574332497,41.55639513959905L36.31362937719172,88.48000121863092L37.48579301105846,88.48000121863092L38.65795664492521,135.40360528586052L39.830120278791945,135.40360528586052L41.00228391265869,22.120003238348254L42.174447546525435,22.120003238348254L43.34661118039218,27.171357085782954L44.518774814258926,27.171357085782954L45.69093844812567,41.55639513959905L46.86310208199241,41.55639513959905L48.035265715859154,63.085125779232406L49.2074293497259,63.085125779232406L50.37959298359264,88.48000121863092L51.55175661745938,88.48000121863092L52.72392025132613,113.8748726344249L53.896083885192866,113.8748726344249L55.06824751905961,135.40360528586052L56.240411152926356,135.40360528586052L57.4125747867931,149.7886448485283L58.584738420659846,149.7886448485283L59.75690205452659,22.120003238348254L60.92906568839333,22.120003238348254L62.101229322260075,23.39509156422843L63.27339295612682,23.39509156422843L64.44555658999356,27.171357085782954L65.6177202238603,27.171357085782954L66.78988385772705,33.30367643446935L67.9620474915938,33.30367643446935L69.13421112546054,41.55639513959905L70.30637475932728,41.55639513959905L71.47853839319403,51.61235659692476L72.65070202706076,51.61235659692476L73.82286566092752,63.085125779232406L74.99502929479425,63.085125779232406L76.16719292866101,75.53380414825688L77.33935656252774,75.53380414825688L78.5115201963945,88.48000121863092L79.68368383026123,88.48000121863092L80.85584746412798,101.42619426540043L82.02801109799472,101.42619426540043L83.20017473186145,113.8748726344249L84.37233836572821,113.8748726344249L85.54450199959494,125.34763980493028L86.71666563346169,125.34763980493028L87.88882926732843,135.40360528586052L89.06099290119518,135.40360528586052L90.23315653506192,143.65632298508908L91.40532016892867,143.65632298508908L92.57748380279541,149.7886448485283L93.74964743666216,149.7886448485283L94.92181107052889,153.56491037008283L96.09397470439565,153.56491037008283L97.26613833826238,22.120003238348254L98.43830197212914,22.120003238348254L99.61046560599587,22.439541816483136L100.78262923986262,22.439541816483136L101.95479287372936,23.39509156422843L103.1269565075961,23.39509156422843L104.29912014146285,24.977438427187938L105.47128377532958,24.977438427187938L106.64344740919634,27.171357085782954L107.81561104306307,27.171357085782954L108.98777467692982,29.955707521761227L110.15993831079656,29.955707521761227L111.33210194466331,33.30367643446935L112.50426557853005,33.30367643446935L113.6764292123968,37.18302670433423L114.84859284626353,37.18302670433423L116.02075648013029,41.55639513959905L117.19292011399702,41.55639513959905L118.36508374786378,46.3816626479409L119.53724738173051,46.3816626479409L120.70941101559727,51.61235659692476L121.881574649464,51.61235659692476L123.05373828333074,57.19810950492109L124.22590191719749,57.19810950492109L125.39806555106422,63.085125779232406L126.57022918493098,63.085125779232406L127.74239281879771,69.21670478468347L128.91455645266447,69.21670478468347L130.08672008653122,75.53380414825688L131.25888372039796,75.53380414825688L132.43104735426468,81.97557892210135L133.60321098813142,81.97557892210135L134.7753746219982,88.48000121863092L135.94753825586494,88.48000121863092L137.11970188973166,94.98441546795142L138.2918655235984,94.98441546795142L139.46402915746518,101.42619426540043L140.6361927913319,101.42619426540043L141.80835642519864,107.74328960536928L142.98052005906538,107.74328960536928L144.15268369293213,113.8748726344249L145.32484732679887,113.8748726344249L146.49701096066562,119.76188488513168L147.66917459453236,119.76188488513168L148.84133822839908,125.34763980493028L150.01350186226585,125.34763980493028L151.1856654961326,130.57833777751867L152.35782912999932,130.57833777751867L153.52999276386606,135.40360528586052L154.70215639773284,135.40360528586052L155.87432003159958,139.7769727152242L157.0464836654663,139.7769727152242L158.21864729933304,143.65632298508908L159.39081093319982,143.65632298508908L160.56297456706653,147.00429441255002L161.73513820093328,147.00429441255002L162.90730183480002,149.7886448485283L164.0794654686668,149.7886448485283L165.2516291025335,151.98255998646934L166.42379273640026,151.98255998646934L167.595956370267,153.56491037008283L168.76812000413372,153.56491037008283L169.9402836380005,154.52045766594412L171.11244727186724,154.52045766594412L172.28461090573396,22.120003238348254L173.4567745396007,22.120003238348254L174.62893817346747,22.199936166136453L175.80110180733422,22.199936166136453L176.97326544120094,22.439541816483136L178.14542907506768,22.439541816483136L179.31759270893446,22.83824883754365L180.48975634280117,22.83824883754365L181.66191997666792,23.39509156422843L182.83408361053466,23.39509156422843L184.00624724440144,24.108726112621184L185.17841087826815,24.108726112621184L186.3505745121349,24.977438427187938L187.52273814600164,24.977438427187938L188.6949017798684,25.999136233567988L189.86706541373513,25.999136233567988L191.03922904760188,27.171357085782954L192.21139268146862,27.171357085782954L193.38355631533534,28.491268366236802L194.5557199492021,28.491268366236802L195.72788358306886,29.955707521761227L196.90004721693558,29.955707521761227L198.07221085080232,31.5611257331521L199.2443744846691,31.5611257331521L200.41653811853584,33.30367643446935L201.58870175240256,33.30367643446935L202.7608653862693,35.17915093536432L203.93302902013608,35.17915093536432L205.1051926540028,37.18302670433423L206.27735628786954,37.18302670433423L207.44951992173628,39.31048346314039L208.62168355560303,39.31048346314039L209.79384718946977,41.55639513959905L210.96601082333652,41.55639513959905L212.13817445720326,43.91534596199961L213.31033809106998,43.91534596199961L214.48250172493675,46.3816626479409L215.6546653588035,46.3816626479409L216.82682899267022,48.94939026270398L217.99899262653696,48.94939026270398L219.17115626040373,51.61235659692476L220.34331989427048,51.61235659692476L221.5154835281372,51.61235659692476L222.68764716200394,54.364139977757674L223.85981079587071,54.364139977757674L225.03197442973743,57.19810950492109L226.20413806360418,57.19810950492109L227.37630169747092,60.10744114511546L228.5484653313377,60.10744114511546L229.7206289652044,63.085125779232406L230.89279259907116,63.085125779232406L232.0649562329379,66.12398529677289L233.23711986680462,66.12398529677289L234.4092835006714,69.21670478468347L235.58144713453814,69.21670478468347" fill="none"></path></g></g></g></g></g></g><g transform="translate(72, 176)" clip-path="url(#clip_1)"><clipPath id="clip_1"><rect width="257" height="23"></rect></clipPath><g><g><line x1="0" y1="0" x2="0" y2="5" style="visibility: inherit;" fill="rgb(0, 0, 0)" stroke="rgb(204, 204, 204)" stroke-width="1px"></line><line x1="23.44327267733487" y1="0" x2="23.44327267733487" y2="5" style="visibility: inherit;" fill="rgb(0, 0, 0)" stroke="rgb(204, 204, 204)" stroke-width="1px"></line><line x1="46.88654535466974" y1="0" x2="46.88654535466974" y2="5" style="visibility: inherit;" fill="rgb(0, 0, 0)" stroke="rgb(204, 204, 204)" stroke-width="1px"></line><line x1="70.32981803200461" y1="0" x2="70.32981803200461" y2="5" style="visibility: inherit;" fill="rgb(0, 0, 0)" stroke="rgb(204, 204, 204)" stroke-width="1px"></line><line x1="93.77309070933948" y1="0" x2="93.77309070933948" y2="5" style="visibility: inherit;" fill="rgb(0, 0, 0)" stroke="rgb(204, 204, 204)" stroke-width="1px"></line><line x1="117.21636338667436" y1="0" x2="117.21636338667436" y2="5" style="visibility: inherit;" fill="rgb(0, 0, 0)" stroke="rgb(204, 204, 204)" stroke-width="1px"></line><line x1="140.65963606400922" y1="0" x2="140.65963606400922" y2="5" style="visibility: inherit;" fill="rgb(0, 0, 0)" stroke="rgb(204, 204, 204)" stroke-width="1px"></line><line x1="164.1029087413441" y1="0" x2="164.1029087413441" y2="5" style="visibility: inherit;" fill="rgb(0, 0, 0)" stroke="rgb(204, 204, 204)" stroke-width="1px"></line><line x1="187.54618141867897" y1="0" x2="187.54618141867897" y2="5" style="visibility: inherit;" fill="rgb(0, 0, 0)" stroke="rgb(204, 204, 204)" stroke-width="1px"></line><line x1="210.98945409601387" y1="0" x2="210.98945409601387" y2="5" style="visibility: inherit;" fill="rgb(0, 0, 0)" stroke="rgb(204, 204, 204)" stroke-width="1px"></line><line x1="234.43272677334872" y1="0" x2="234.43272677334872" y2="5" style="visibility: inherit;" fill="rgb(0, 0, 0)" stroke="rgb(204, 204, 204)" stroke-width="1px"></line><line x1="257.8759994506836" y1="0" x2="257.8759994506836" y2="5" style="visibility: inherit;" fill="rgb(0, 0, 0)" stroke="rgb(204, 204, 204)" stroke-width="1px"></line></g><g transform="translate(0, 8)"><text style="text-anchor: middle; visibility: hidden; font-family: Roboto, sans-serif; font-size: 12px; font-weight: 200;" x="0" y="0" dx="0em" dy="0.95em" fill="rgb(33, 33, 33)" stroke="none" stroke-width="1px">-1k</text><text style="text-anchor: middle; visibility: inherit; font-family: Roboto, sans-serif; font-size: 12px; font-weight: 200;" x="23.44327267733487" y="0" dx="0em" dy="0.95em" fill="rgb(33, 33, 33)" stroke="none" stroke-width="1px">0</text><text style="text-anchor: middle; visibility: inherit; font-family: Roboto, sans-serif; font-size: 12px; font-weight: 200;" x="46.88654535466974" y="0" dx="0em" dy="0.95em" fill="rgb(33, 33, 33)" stroke="none" stroke-width="1px">1k</text><text style="text-anchor: middle; visibility: inherit; font-family: Roboto, sans-serif; font-size: 12px; font-weight: 200;" x="70.32981803200461" y="0" dx="0em" dy="0.95em" fill="rgb(33, 33, 33)" stroke="none" stroke-width="1px">2k</text><text style="text-anchor: middle; visibility: inherit; font-family: Roboto, sans-serif; font-size: 12px; font-weight: 200;" x="93.77309070933948" y="0" dx="0em" dy="0.95em" fill="rgb(33, 33, 33)" stroke="none" stroke-width="1px">3k</text><text style="text-anchor: middle; visibility: inherit; font-family: Roboto, sans-serif; font-size: 12px; font-weight: 200;" x="117.21636338667436" y="0" dx="0em" dy="0.95em" fill="rgb(33, 33, 33)" stroke="none" stroke-width="1px">4k</text><text style="text-anchor: middle; visibility: inherit; font-family: Roboto, sans-serif; font-size: 12px; font-weight: 200;" x="140.65963606400922" y="0" dx="0em" dy="0.95em" fill="rgb(33, 33, 33)" stroke="none" stroke-width="1px">5k</text><text style="text-anchor: middle; visibility: inherit; font-family: Roboto, sans-serif; font-size: 12px; font-weight: 200;" x="164.1029087413441" y="0" dx="0em" dy="0.95em" fill="rgb(33, 33, 33)" stroke="none" stroke-width="1px">6k</text><text style="text-anchor: middle; visibility: inherit; font-family: Roboto, sans-serif; font-size: 12px; font-weight: 200;" x="187.54618141867897" y="0" dx="0em" dy="0.95em" fill="rgb(33, 33, 33)" stroke="none" stroke-width="1px">7k</text><text style="text-anchor: middle; visibility: inherit; font-family: Roboto, sans-serif; font-size: 12px; font-weight: 200;" x="210.98945409601387" y="0" dx="0em" dy="0.95em" fill="rgb(33, 33, 33)" stroke="none" stroke-width="1px">8k</text><text style="text-anchor: middle; visibility: inherit; font-family: Roboto, sans-serif; font-size: 12px; font-weight: 200;" x="234.43272677334872" y="0" dx="0em" dy="0.95em" fill="rgb(33, 33, 33)" stroke="none" stroke-width="1px">9k</text><text style="text-anchor: middle; visibility: hidden; font-family: Roboto, sans-serif; font-size: 12px; font-weight: 200;" x="257.8759994506836" y="0" dx="0em" dy="0.95em" fill="rgb(33, 33, 33)" stroke="none" stroke-width="1px">10k</text></g><line x1="0" y1="0" x2="257.8759994506836" y2="0" fill="rgb(0, 0, 0)" stroke="rgb(204, 204, 204)" stroke-width="1px"></line></g></g></g></g></svg>