<svg viewBox="0 0 330 200" xmlns="http://www.w3.org/2000/svg"><g><g><g><g><g><line x1="51.53200149536133" y1="176.89999961853027" x2="46.53200149536133" y2="176.89999961853027" style="visibility: inherit;" fill="rgb(0, 0, 0)" stroke="rgb(204, 204, 204)" stroke-width="1px"></line><line x1="51.53200149536133" y1="160.81818147139114" x2="46.53200149536133" y2="160.81818147139114" style="visibility: inherit;" fill="rgb(0, 0, 0)" stroke="rgb(204, 204, 204)" stroke-width="1px"></line><line x1="51.53200149536133" y1="144.73636332425204" x2="46.53200149536133" y2="144.73636332425204" style="visibility: inherit;" fill="rgb(0, 0, 0)" stroke="rgb(204, 204, 204)" stroke-width="1px"></line><line x1="51.53200149536133" y1="128.65454517711294" x2="46.53200149536133" y2="128.65454517711294" style="visibility: inherit;" fill="rgb(0, 0, 0)" stroke="rgb(204, 204, 204)" stroke-width="1px"></line><line x1="51.53200149536133" y1="112.5727270299738" x2="46.53200149536133" y2="112.5727270299738" style="visibility: inherit;" fill="rgb(0, 0, 0)" stroke="rgb(204, 204, 204)" stroke-width="1px"></line><line x1="51.53200149536133" y1="96.49090888283469" x2="46.53200149536133" y2="96.49090888283469" style="visibility: inherit;" fill="rgb(0, 0, 0)" stroke="rgb(204, 204, 204)" stroke-width="1px"></line><line x1="51.53200149536133" y1="80.40909073569554" x2="46.53200149536133" y2="80.40909073569554" style="visibility: inherit;" fill="rgb(0, 0, 0)" stroke="rgb(204, 204, 204)" stroke-width="1px"></line><line x1="51.53200149536133" y1="64.32727258855647" x2="46.53200149536133" y2="64.32727258855647" style="visibility: inherit;" fill="rgb(0, 0, 0)" stroke="rgb(204, 204, 204)" stroke-width="1px"></line><line x1="51.53200149536133" y1="48.24545444141732" x2="46.53200149536133" y2="48.24545444141732" style="visibility: inherit;" fill="rgb(0, 0, 0)" stroke="rgb(204, 204, 204)" stroke-width="1px"></line><line x1="51.53200149536133" y1="32.16363629427822" x2="46.53200149536133" y2="32.16363629427822" style="visibility: inherit;" fill="rgb(0, 0, 0)" stroke="rgb(204, 204, 204)" stroke-width="1px"></line><line x1="51.53200149536133" y1="16.081818147139103" x2="46.53200149536133" y2="16.081818147139103" style="visibility: inherit;" fill="rgb(0, 0, 0)" stroke="rgb(204, 204, 204)" stroke-width="1px"></line><line x1="51.53200149536133" y1="0" x2="46.53200149536133" y2="0" style="visibility: inherit;" fill="rgb(0, 0, 0)" stroke="rgb(204, 204, 204)" stroke-width="1px"></line></g><g transform="translate(41.53200149536133, 0)"><text style="text-anchor: end; visibility: hidden; font-family: Roboto, sans-serif; font-size: 12px; font-weight: 200;" x="0" y="176.89999961853027" dx="0em" dy="0.3em" fill="rgb(33, 33, 33)" stroke="none" stroke-width="1px">0.15</text><text style="text-anchor: end; visibility: inherit; font-family: Roboto, sans-serif; font-size: 12px; font-weight: 200;" x="0" y="160.81818147139114" dx="0em" dy="0.3em" fill="rgb(33, 33, 33)" stroke="none" stroke-width="1px">0.2</text><text style="text-anchor: end; visibility: hidden; font-family: Roboto, sans-serif; font-size: 12px; font-weight: 200;" x="0" y="144.73636332425204" dx="0em" dy="0.3em" fill="rgb(33, 33, 33)" stroke="none" stroke-width="1px">0.25</text><text style="text-anchor: end; visibility: inherit; font-family: Roboto, sans-serif; font-size: 12px; font-weight: 200;" x="0" y="128.65454517711294" dx="0em" dy="0.3em" fill="rgb(33, 33, 33)" stroke="none" stroke-width="1px">0.3</text><text style="text-anchor: end; visibility: hidden; font-family: Roboto, sans-serif; font-size: 12px; font-weight: 200;" x="0" y="112.5727270299738" dx="0em" dy="0.3em" fill="rgb(33, 33, 33)" stroke="none" stroke-width="1px">0.35</text><text style="text-anchor: end; visibility: inherit; font-family: Roboto, sans-serif; font-size: 12px; font-weight: 200;" x="0" y="96.49090888283469" dx="0em" dy="0.3em" fill="rgb(33, 33, 33)" stroke="none" stroke-width="1px">0.4</text><text style="text-anchor: end; visibility: hidden; font-family: Roboto, sans-serif; font-size: 12px; font-weight: 200;" x="0" y="80.40909073569554" dx="0em" dy="0.3em" fill="rgb(33, 33, 33)" stroke="none" stroke-width="1px">0.45</text><text style="text-anchor: end; visibility: inherit; font-family: Roboto, sans-serif; font-size: 12px; font-weight: 200;" x="0" y="64.32727258855647" dx="0em" dy="0.3em" fill="rgb(33, 33, 33)" stroke="none" stroke-width="1px">0.5</text><text style="text-anchor: end; visibility: hidden; font-family: Roboto, sans-serif; font-size: 12px; font-weight: 200;" x="0" y="48.24545444141732" dx="0em" dy="0.3em" fill="rgb(33, 33, 33)" stroke="none" stroke-width="1px">0.55</text><text style="text-anchor: end; visibility: inherit; font-family: Roboto, sans-serif; font-size: 12px; font-weight: 200;" x="0" y="32.16363629427822" dx="0em" dy="0.3em" fill="rgb(33, 33, 33)" stroke="none" stroke-width="1px">0.6</text><text style="text-anchor: end; visibility: hidden; font-family: Roboto, sans-serif; font-size: 12px; font-weight: 200;" x="0" y="16.081818147139103" dx="0em" dy="0.3em" fill="rgb(33, 33, 33)" stroke="none" stroke-width="1px">0.65</text><text style="text-anchor: end; visibility: hidden; font-family: Roboto, sans-serif; font-size: 12px; font-weight: 200;" x="0" y="0" dx="0em" dy="0.3em" fill="rgb(33, 33, 33)" stroke="none" stroke-width="1px">0.7</text></g><line x1="51.53200149536133" y1="0" x2="51.53200149536133" y2="176.89999961853027" fill="rgb(0, 0, 0)" stroke="rgb(204, 204, 204)" stroke-width="1px"></line></g></g><g transform="translate(51, 0)" clip-path="url(#clip_0)"><clipPath id="clip_0"><rect width="278" height="176"></rect></clipPath><g><g><g><line x1="0" y1="0" x2="0" y2="176.89999961853027" fill="rgb(0, 0, 0)" stroke="rgb(66, 66, 66)" stroke-width="1px" opacity="0.25"></line><line x1="25.31527259133079" y1="0" x2="25.31527259133079" y2="176.89999961853027" fill="rgb(0, 0, 0)" stroke="rgb(66, 66, 66)" stroke-width="1px" opacity="0.25"></line><line x1="50.63054518266158" y1="0" x2="50.63054518266158" y2="176.89999961853027" fill="rgb(0, 0, 0)" stroke="rgb(66, 66, 66)" stroke-width="1px" opacity="0.25"></line><line x1="75.94581777399236" y1="0" x2="75.94581777399236" y2="176.89999961853027" fill="rgb(0, 0, 0)" stroke="rgb(66, 66, 66)" stroke-width="1px" opacity="0.25"></line><line x1="101.26109036532316" y1="0" x2="101.26109036532316" y2="176.89999961853027" fill="rgb(0, 0, 0)" stroke="rgb(66, 66, 66)" stroke-width="1px" opacity="0.25"></line><line x1="126.57636295665394" y1="0" x2="126.57636295665394" y2="176.89999961853027" fill="rgb(0, 0, 0)" stroke="rgb(66, 66, 66)" stroke-width="1px" opacity="0.25"></line><line x1="151.89163554798472" y1="0" x2="151.89163554798472" y2="176.89999961853027" fill="rgb(0, 0, 0)" stroke="rgb(66, 66, 66)" stroke-width="1px" opacity="0.25"></line><line x1="177.20690813931552" y1="0" x2="177.20690813931552" y2="176.89999961853027" fill="rgb(0, 0, 0)" stroke="rgb(66, 66, 66)" stroke-width="1px" opacity="0.25"></line><line x1="202.5221807306463" y1="0" x2="202.5221807306463" y2="176.89999961853027" fill="rgb(0, 0, 0)" stroke="rgb(66, 66, 66)" stroke-width="1px" opacity="0.25"></line><line x1="227.8374533219771" y1="0" x2="227.8374533219771" y2="176.89999961853027" fill="rgb(0, 0, 0)" stroke="rgb(66, 66, 66)" stroke-width="1px" opacity="0.25"></line><line x1="253.15272591330788" y1="0" x2="253.15272591330788" y2="176.89999961853027" fill="rgb(0, 0, 0)" stroke="rgb(66, 66, 66)" stroke-width="1px" opacity="0.25"></line><line x1="278.4679985046387" y1="0" x2="278.4679985046387" y2="176.89999961853027" fill="rgb(0, 0, 0)" stroke="rgb(66, 66, 66)" stroke-width="1px" opacity="0.25"></line></g><g><line x1="0" y1="176.89999961853027" x2="278.4679985046387" y2="176.89999961853027" fill="rgb(0, 0, 0)" stroke="rgb(66, 66, 66)" stroke-width="1px" opacity="0.25"></line><line x1="0" y1="160.81818147139114" x2="278.4679985046387" y2="160.81818147139114" fill="rgb(0, 0, 0)" stroke="rgb(66, 66, 66)" stroke-width="1px" opacity="0.25"></line><line x1="0" y1="144.73636332425204" x2="278.4679985046387" y2="144.73636332425204" fill="rgb(0, 0, 0)" stroke="rgb(66, 66, 66)" stroke-width="1px" opacity="0.25"></line><line x1="0" y1="128.65454517711294" x2="278.4679985046387" y2="128.65454517711294" fill="rgb(0, 0, 0)" stroke="rgb(66, 66, 66)" stroke-width="1px" opacity="0.25"></line><line x1="0" y1="112.5727270299738" x2="278.4679985046387" y2="112.5727270299738" fill="rgb(0, 0, 0)" stroke="rgb(66, 66, 66)" stroke-width="1px" opacity="0.25"></line><line x1="0" y1="96.49090888283469" x2="278.4679985046387" y2="96.49090888283469" fill="rgb(0, 0, 0)" stroke="rgb(66, 66, 66)" stroke-width="1px" opacity="0.25"></line><line x1="0" y1="80.40909073569554" x2="278.4679985046387" y2="80.40909073569554" fill="rgb(0, 0, 0)" stroke="rgb(66, 66, 66)" stroke-width="1px" opacity="0.25"></line><line x1="0" y1="64.32727258855647" x2="278.4679985046387" y2="64.32727258855647" fill="rgb(0, 0, 0)" stroke="rgb(66, 66, 66)" stroke-width="1px" opacity="0.25"></line><line x1="0" y1="48.24545444141732" x2="278.4679985046387" y2="48.24545444141732" fill="rgb(0, 0, 0)" stroke="rgb(66, 66, 66)" stroke-width="1px" opacity="0.25"></line><line x1="0" y1="32.16363629427822" x2="278.4679985046387" y2="32.16363629427822" fill="rgb(0, 0, 0)" stroke="rgb(66, 66, 66)" stroke-width="1px" opacity="0.25"></line><line x1="0" y1="16.081818147139103" x2="278.4679985046387" y2="16.081818147139103" fill="rgb(0, 0, 0)" stroke="rgb(66, 66, 66)" stroke-width="1px" opacity="0.25"></line><line x1="0" y1="0" x2="278.4679985046387" y2="0" fill="rgb(0, 0, 0)" stroke="rgb(66, 66, 66)" stroke-width="1px" opacity="0.25"></line></g></g></g><g><g><line x1="0" y1="225.1454540599476" x2="278.4679985046387" y2="225.1454540599476" fill="rgb(0, 0, 0)" stroke="rgb(153, 153, 153)" stroke-width="1.5px"></line></g></g><g><g><line x1="25.31527259133079" y1="0" x2="25.31527259133079" y2="176.89999961853027" fill="rgb(0, 0, 0)" stroke="rgb(153, 153, 153)" stroke-width="1.5px"></line></g></g><g><g><g><g><g><path style="fill: none;" stroke="rgb(255, 112, 67)" stroke-width="2px" d="M26.555720948305996,164.83863600817594L27.821484577872535,135.5228196804722L29.087248207439075,136.80485176583016L30.353011837005614,140.44984788642847L31.618775466572156,133.59013360550364L32.884539096138695,138.26682102106335L34.15030272570524,102.32423054204462L35.416066355271774,108.674530940304L36.68182998483831,112.41575342054661L37.94759361440485,103.84977929399663L39.21335724397139,112.19377560550014L40.47912087353793,111.80845809610481L41.74488450310447,124.99684513613315L43.01064813267101,122.16922319292026L44.27641176223755,109.74781596817117L45.542175391804086,102.29871051796741L46.80793902137063,108.5536170110411L48.07370265093717,104.26415744926787L49.33946628050371,88.28843000847134L50.60522991007025,81.38401890688739L51.870993539636785,79.92189307595113L53.13675716920333,79.04463810539218L54.402520798769864,91.91991602834932L55.6682844283364,88.92375352904128L56.93404805790294,79.0851331813663L58.19981168746948,75.86228774924822L59.46557531703602,90.01041861517757L60.73133894660256,98.49928786722506L61.9971025761691,90.19108346552375L63.26286620573564,93.2470736348844L64.52862983530218,81.67915168193369L65.79439346486872,80.09900468980254L67.06015709443525,95.23273549008692L68.3259207240018,90.91145927923466L69.59168435356834,77.59748390569966L70.85744798313488,72.28939932409254L72.12321161270143,82.50606253765334L73.38897524226795,72.55424605267453L74.6547388718345,74.62406144261698L75.92050250140103,78.54625497980528L77.18626613096758,83.5798754035038L78.4520297605341,97.32125720225504L79.71779339010065,86.80396765633012L80.98355701966719,80.49359393071869L82.24932064923374,74.02706539318164L83.51508427880027,94.26987549330276L84.78084790836682,87.65343910213493L86.04661153793334,67.60176295429676L87.3123751674999,79.69348065271137L88.57813879706643,89.62881557426883L89.84390242663297,92.90971222454766L91.10966605619952,89.51764544371086L92.37542968576604,71.4005872280479L93.64119331533259,63.21065276706023L94.90695694489912,87.78002791638285L96.17272057446567,86.43983485882133L97.43848420403219,82.95541472169289L98.70424783359874,78.18446217102891L99.97001146316528,78.00219110901821L101.23577509273183,80.57313277440319L102.50153872229836,66.03387962649451L103.76730235186491,73.39214588488898L105.03306598143143,69.76619656635593L106.29882961099798,75.63153604880574L107.56459324056452,68.42953019631895L108.83035687013107,80.19014099776183L110.0961204996976,68.48438502889715L111.36188412926414,66.8215400527609L112.62764775883068,57.78292399350954L113.89341138839721,60.400663431528265L115.15917501796376,70.0122161679091L116.42493864753028,75.77914780973761L117.69070227709683,92.64082063938255L118.95646590666337,94.7169152636L120.22222953622992,77.20044958840008L121.48799316579645,58.64966110971054L122.753756795363,63.60101000384017L124.01952042492952,79.9733331848658L125.28528405449607,68.35430034115956L126.55104768406261,72.10409401109663L127.81681131362916,74.35397021305883L129.08257494319568,70.34329116325786L130.34833857276223,67.9368837333773L131.61410220232878,77.21425265160978L132.8798658318953,72.05946062638846L134.14562946146185,58.24537586929907L135.41139309102837,60.67813455700201L136.67715672059492,59.45748930123676L137.94292035016147,77.48722076330377L139.208683979728,72.22324149340483L140.47444760929454,77.10576300503503L141.7402112388611,82.7155802146044L143.00597486842761,56.59813854865908L144.27173849799416,51.64888309104847L145.5375021275607,51.35963028486913L146.80326575712724,43.14516952759197L148.06902938669378,43.577101678408226L149.3347930162603,33.11505142694136L150.60055664582688,26.837821276061245L151.8663202753934,52.55481517722016L153.13208390495993,54.583497673367646L154.39784753452648,61.161311942034445L155.66361116409303,62.427696200643254L156.92937479365958,55.14661768223896L158.1951384232261,58.81887964476596L159.46090205279262,69.06314589585169L160.72666568235917,59.127887499364036L161.99242931192572,71.92885491120182L163.25819294149227,68.88822198214366L164.5239565710588,48.30172360918263L165.7897202006253,70.79376134807127L167.0554838301919,54.80564816551325L168.3212474597584,50.57338886116095L169.58701108932496,31.952215131410462L170.85277471889148,52.94314718783842L172.11853834845803,54.8164968797386L173.38430197802458,42.53898901612665L174.6500656075911,48.574001976711536L175.91582923715765,46.83440114787994L177.1815928667242,64.55276310031135L178.44735649629072,53.741357353652795L179.71312012585727,44.57420576886218L180.9788837554238,52.47543249673989L182.24464738499034,70.61768237801438L183.5104110145569,52.019700315092095L184.77617464412342,59.62303352706911L186.04193827368996,50.78351960970748L187.3077019032565,45.47981125929048L188.57346553282306,47.65818718581433L189.83922916238959,62.36673042048074L191.1049927919561,71.19185636128061L192.37075642152266,60.40511377862139L193.6365200510892,45.892159155456305L194.90228368065576,47.90559592351383L196.16804731022228,57.15457089212213L197.4338109397888,51.9827424971263L198.69957456935538,38.15843591817221L199.9653381989219,24.503243365617255L201.23110182848845,37.75255458640589L202.49686545805497,53.74304655824441L203.76262908762152,52.61612836518671L205.02839271718807,62.661190825512925L206.2941563467546,60.6473230623433L207.55991997632114,62.11930287282858L208.82568360588766,52.28128121716314L210.0914472354542,46.37846822376387L211.35721086502076,48.197381364498355L212.62297449458728,62.690246927691156L213.88873812415383,39.22232997132859L215.15450175372038,51.94461132081103L216.4202653832869,67.61888920407003L217.68602901285345,55.58103301590801L218.95179264241997,67.12043791853696L220.21755627198655,52.601654107792655L221.48331990155307,54.61160103171114L222.7490835311196,47.77666011249266L224.01484716068614,32.95447835059653L225.2806107902527,26.741477430254335L226.54637441981924,44.45609979616645L227.81213804938577,47.04396030793995L229.0779016789523,48.59667661500401L230.34366530851884,49.528306399242446L231.6094289380854,42.04637519621596L232.87519256765194,40.23752461119559L234.14095619721846,25.75069658143126L235.40671982678498,35.820718379098814L236.67248345635156,33.82182238412978L237.93824708591808,27.261883850374282L239.20401071548463,34.04713027207761L240.46977434505115,32.75766951991706L241.7355379746177,21.262783526664137L243.00130160418425,30.447670077851505L244.26706523375077,27.917692934994392L245.53282886331732,26.39970664928011L246.79859249288387,14.767705335894956L248.0643561224504,29.23092363177702L249.33011975201694,32.54825367253222L250.59588338158346,29.178043091802806L251.86164701115,24.475616274978123L253.12741064071656,24.33446065327034L254.39317427028308,29.610375885428184" fill="none"></path></g></g></g></g><g opacity="0.2"><g><g><g><path style="fill: none;" stroke="rgb(255, 112, 67)" stroke-width="2px" d="M26.555720948305996,164.83863600817594L27.821484577872535,117.93332988384998L29.087248207439075,138.03560256777388L30.353011837005614,144.73636332425204L31.618775466572156,124.63409064032814L32.884539096138695,144.73636332425204L34.15030272570524,50.92575107560015L35.416066355271774,117.93332988384998L36.68182998483831,117.93332988384998L37.94759361440485,91.13030602895851L39.21335724397139,124.63409064032814L40.47912087353793,111.2325787128824L41.74488450310447,144.73636332425204L43.01064813267101,117.93332988384998L44.27641176223755,91.13030602895851L45.542175391804086,91.13030602895851L46.80793902137063,117.93332988384998L48.07370265093717,97.83105719992606L49.33946628050371,64.32727258855647L50.60522991007025,71.02803334503461L51.870993539636785,77.7287845160022L53.13675716920333,77.7287845160022L54.402520798769864,111.2325787128824L55.6682844283364,84.42954527248037L56.93404805790294,64.32727258855647L58.19981168746948,71.02803334503461L59.46557531703602,111.2325787128824L60.73133894660256,111.2325787128824L61.9971025761691,77.7287845160022L63.26286620573564,97.83105719992606L64.52862983530218,64.32727258855647L65.79439346486872,77.7287845160022L67.06015709443525,117.93332988384998L68.3259207240018,84.42954527248037L69.59168435356834,57.62652141758889L70.85744798313488,64.32727258855647L72.12321161270143,97.83105719992606L73.38897524226795,57.62652141758889L74.6547388718345,77.7287845160022L75.92050250140103,84.42954527248037L77.18626613096758,91.13030602895851L78.4520297605341,117.93332988384998L79.71779339010065,71.02803334503461L80.98355701966719,71.02803334503461L82.24932064923374,64.32727258855647L83.51508427880027,124.63409064032814L84.78084790836682,77.7287845160022L86.04661153793334,37.52424873366499L87.3123751674999,97.83105719992606L88.57813879706643,104.53181795640424L89.84390242663297,97.83105719992606L91.10966605619952,84.42954527248037L92.37542968576604,44.22499990463257L93.64119331533259,50.92575107560015L94.90695694489912,124.63409064032814L96.17272057446567,84.42954527248037L97.43848420403219,77.7287845160022L98.70424783359874,71.02803334503461L99.97001146316528,77.7287845160022L101.23577509273183,84.42954527248037L102.50153872229836,44.22499990463257L103.76730235186491,84.42954527248037L105.03306598143143,64.32727258855647L106.29882961099798,84.42954527248037L107.56459324056452,57.62652141758889L108.83035687013107,97.83105719992606L110.0961204996976,50.92575107560015L111.36188412926414,64.32727258855647L112.62764775883068,44.22499990463257L113.89341138839721,64.32727258855647L115.15917501796376,84.42954527248037L116.42493864753028,84.42954527248037L117.69070227709683,117.93332988384998L118.95646590666337,97.83105719992606L120.22222953622992,50.92575107560015L121.48799316579645,30.82347839167625L122.753756795363,71.02803334503461L124.01952042492952,104.53181795640424L125.28528405449607,50.92575107560015L126.55104768406261,77.7287845160022L127.81681131362916,77.7287845160022L129.08257494319568,64.32727258855647L130.34833857276223,64.32727258855647L131.61410220232878,91.13030602895851L132.8798658318953,64.32727258855647L134.14562946146185,37.52424873366499L135.41139309102837,64.32727258855647L136.67715672059492,57.62652141758889L137.94292035016147,104.53181795640424L139.208683979728,64.32727258855647L140.47444760929454,84.42954527248037L141.7402112388611,91.13030602895851L143.00597486842761,17.421976049741073L144.27173849799416,44.22499990463257L145.5375021275607,50.92575107560015L146.80326575712724,30.82347839167625L148.06902938669378,44.22499990463257L149.3347930162603,17.421976049741073L150.60055664582688,17.421976049741073L151.8663202753934,91.13030602895851L153.13208390495993,57.62652141758889L154.39784753452648,71.02803334503461L155.66361116409303,64.32727258855647L156.92937479365958,44.22499990463257L158.1951384232261,64.32727258855647L159.46090205279262,84.42954527248037L160.72666568235917,44.22499990463257L161.99242931192572,91.13030602895851L163.25819294149227,64.32727258855647L164.5239565710588,17.421976049741073L165.7897202006253,104.53181795640424L167.0554838301919,30.82347839167625L168.3212474597584,44.22499990463257L169.58701108932496,4.020454536784756L170.85277471889148,84.42954527248037L172.11853834845803,57.62652141758889L173.38430197802458,24.122727220708672L174.6500656075911,57.62652141758889L175.91582923715765,44.22499990463257L177.1815928667242,91.13030602895851L178.44735649629072,37.52424873366499L179.71312012585727,30.82347839167625L180.9788837554238,64.32727258855647L182.24464738499034,97.83105719992606L183.5104110145569,24.122727220708672L184.77617464412342,71.02803334503461L186.04193827368996,37.52424873366499L187.3077019032565,37.52424873366499L188.57346553282306,50.92575107560015L189.83922916238959,84.42954527248037L191.1049927919561,84.42954527248037L192.37075642152266,44.22499990463257L193.6365200510892,24.122727220708672L194.90228368065576,50.92575107560015L196.16804731022228,71.02803334503461L197.4338109397888,44.22499990463257L198.69957456935538,17.421976049741073L199.9653381989219,4.020454536784756L201.23110182848845,57.62652141758889L202.49686545805497,77.7287845160022L203.76262908762152,50.92575107560015L205.02839271718807,77.7287845160022L206.2941563467546,57.62652141758889L207.55991997632114,64.32727258855647L208.82568360588766,37.52424873366499L210.0914472354542,37.52424873366499L211.35721086502076,50.92575107560015L212.62297449458728,84.42954527248037L213.88873812415383,4.020454536784756L215.15450175372038,71.02803334503461L216.4202653832869,91.13030602895851L217.68602901285345,37.52424873366499L218.95179264241997,84.42954527248037L220.21755627198655,30.82347839167625L221.48331990155307,57.62652141758889L222.7490835311196,37.52424873366499L224.01484716068614,10.721205707752354L225.2806107902527,17.421976049741073L226.54637441981924,71.02803334503461L227.81213804938577,50.92575107560015L229.0779016789523,50.92575107560015L230.34366530851884,50.92575107560015L231.6094289380854,30.82347839167625L232.87519256765194,37.52424873366499L234.14095619721846,4.020454536784756L235.40671982678498,50.92575107560015L236.67248345635156,30.82347839167625L237.93824708591808,17.421976049741073L239.20401071548463,44.22499990463257L240.46977434505115,30.82347839167625L241.7355379746177,4.020454536784756L243.00130160418425,44.22499990463257L244.26706523375077,24.122727220708672L245.53282886331732,24.122727220708672L246.79859249288387,-2.680296634182803L248.0643561224504,50.92575107560015L249.33011975201694,37.52424873366499L250.59588338158346,24.122727220708672L251.86164701115,17.421976049741073L253.12741064071656,24.122727220708672L254.39317427028308,37.52424873366499" fill="none"></path></g></g></g></g></g></g><g transform="translate(51, 176)" clip-path="url(#clip_1)"><clipPath id="clip_1"><rect width="278" height="23"></rect></clipPath><g><g><line x1="0" y1="0" x2="0" y2="5" style="visibility: inherit;" fill="rgb(0, 0, 0)" stroke="rgb(204, 204, 204)" stroke-width="1px"></line><line x1="25.31527259133079" y1="0" x2="25.31527259133079" y2="5" style="visibility: inherit;" fill="rgb(0, 0, 0)" stroke="rgb(204, 204, 204)" stroke-width="1px"></line><line x1="50.63054518266158" y1="0" x2="50.63054518266158" y2="5" style="visibility: inherit;" fill="rgb(0, 0, 0)" stroke="rgb(204, 204, 204)" stroke-width="1px"></line><line x1="75.94581777399236" y1="0" x2="75.94581777399236" y2="5" style="visibility: inherit;" fill="rgb(0, 0, 0)" stroke="rgb(204, 204, 204)" stroke-width="1px"></line><line x1="101.26109036532316" y1="0" x2="101.26109036532316" y2="5" style="visibility: inherit;" fill="rgb(0, 0, 0)" stroke="rgb(204, 204, 204)" stroke-width="1px"></line><line x1="126.57636295665394" y1="0" x2="126.57636295665394" y2="5" style="visibility: inherit;" fill="rgb(0, 0, 0)" stroke="rgb(204, 204, 204)" stroke-width="1px"></line><line x1="151.89163554798472" y1="0" x2="151.89163554798472" y2="5" style="visibility: inherit;" fill="rgb(0, 0, 0)" stroke="rgb(204, 204, 204)" stroke-width="1px"></line><line x1="177.20690813931552" y1="0" x2="177.20690813931552" y2="5" style="visibility: inherit;" fill="rgb(0, 0, 0)" stroke="rgb(204, 204, 204)" stroke-width="1px"></line><line x1="202.5221807306463" y1="0" x2="202.5221807306463" y2="5" style="visibility: inherit;" fill="rgb(0, 0, 0)" stroke="rgb(204, 204, 204)" stroke-width="1px"></line><line x1="227.8374533219771" y1="0" x2="227.8374533219771" y2="5" style="visibility: inherit;" fill="rgb(0, 0, 0)" stroke="rgb(204, 204, 204)" stroke-width="1px"></line><line x1="253.15272591330788" y1="0" x2="253.15272591330788" y2="5" style="visibility: inherit;" fill="rgb(0, 0, 0)" stroke="rgb(204, 204, 204)" stroke-width="1px"></line><line x1="278.4679985046387" y1="0" x2="278.4679985046387" y2="5" style="visibility: inherit;" fill="rgb(0, 0, 0)" stroke="rgb(204, 204, 204)" stroke-width="1px"></line></g><g transform="translate(0, 8)"><text style="text-anchor: middle; visibility: hidden; font-family: Roboto, sans-serif; font-size: 12px; font-weight: 200;" x="0" y="0" dx="0em" dy="0.95em" fill="rgb(33, 33, 33)" stroke="none" stroke-width="1px">-1k</text><text style="text-anchor: middle; visibility: inherit; font-family: Roboto, sans-serif; font-size: 12px; font-weight: 200;" x="25.31527259133079" y="0" dx="0em" dy="0.95em" fill="rgb(33, 33, 33)" stroke="none" stroke-width="1px">0</text><text style="text-anchor: middle; visibility: inherit; font-family: Roboto, sans-serif; font-size: 12px; font-weight: 200;" x="50.63054518266158" y="0" dx="0em" dy="0.95em" fill="rgb(33, 33, 33)" stroke="none" stroke-width="1px">1k</text><text style="text-anchor: middle; visibility: inherit; font-family: Roboto, sans-serif; font-size: 12px; font-weight: 200;" x="75.94581777399236" y="0" dx="0em" dy="0.95em" fill="rgb(33, 33, 33)" stroke="none" stroke-width="1px">2k</text><text style="text-anchor: middle; visibility: inherit; font-family: Roboto, sans-serif; font-size: 12px; font-weight: 200;" x="101.26109036532316" y="0" dx="0em" dy="0.95em" fill="rgb(33, 33, 33)" stroke="none" stroke-width="1px">3k</text><text style="text-anchor: middle; visibility: inherit; font-family: Roboto, sans-serif; font-size: 12px; font-weight: 200;" x="126.57636295665394" y="0" dx="0em" dy="0.95em" fill="rgb(33, 33, 33)" stroke="none" stroke-width="1px">4k</text><text style="text-anchor: middle; visibility: inherit; font-family: Roboto, sans-serif; font-size: 12px; font-weight: 200;" x="151.89163554798472" y="0" dx="0em" dy="0.95em" fill="rgb(33, 33, 33)" stroke="none" stroke-width="1px">5k</text><text style="text-anchor: middle; visibility: inherit; font-family: Roboto, sans-serif; font-size: 12px; font-weight: 200;" x="177.20690813931552" y="0" dx="0em" dy="0.95em" fill="rgb(33, 33, 33)" stroke="none" stroke-width="1px">6k</text><text style="text-anchor: middle; visibility: inherit; font-family: Roboto, sans-serif; font-size: 12px; font-weight: 200;" x="202.5221807306463" y="0" dx="0em" dy="0.95em" fill="rgb(33, 33, 33)" stroke="none" stroke-width="1px">7k</text><text style="text-anchor: middle; visibility: inherit; font-family: Roboto, sans-serif; font-size: 12px; font-weight: 200;" x="227.8374533219771" y="0" dx="0em" dy="0.95em" fill="rgb(33, 33, 33)" stroke="none" stroke-width="1px">8k</text><text style="text-anchor: middle; visibility: inherit; font-family: Roboto, sans-serif; font-size: 12px; font-weight: 200;" x="253.15272591330788" y="0" dx="0em" dy="0.95em" fill="rgb(33, 33, 33)" stroke="none" stroke-width="1px">9k</text><text style="text-anchor: middle; visibility: hidden; font-family: Roboto, sans-serif; font-size: 12px; font-weight: 200;" x="278.4679985046387" y="0" dx="0em" dy="0.95em" fill="rgb(33, 33, 33)" stroke="none" stroke-width="1px">10k</text></g><line x1="0" y1="0" x2="278.4679985046387" y2="0" fill="rgb(0, 0, 0)" stroke="rgb(204, 204, 204)" stroke-width="1px"></line></g></g></g></g></svg>