<svg viewBox="0 0 330 200" xmlns="http://www.w3.org/2000/svg"><g><g><g><g><g><line x1="41.149001121520996" y1="176.89999961853027" x2="36.149001121520996" y2="176.89999961853027" style="visibility: inherit;" fill="rgb(0, 0, 0)" stroke="rgb(204, 204, 204)" stroke-width="1px"></line><line x1="41.149001121520996" y1="154.787499666214" x2="36.149001121520996" y2="154.787499666214" style="visibility: inherit;" fill="rgb(0, 0, 0)" stroke="rgb(204, 204, 204)" stroke-width="1px"></line><line x1="41.149001121520996" y1="132.6749997138977" x2="36.149001121520996" y2="132.6749997138977" style="visibility: inherit;" fill="rgb(0, 0, 0)" stroke="rgb(204, 204, 204)" stroke-width="1px"></line><line x1="41.149001121520996" y1="110.56249976158142" x2="36.149001121520996" y2="110.56249976158142" style="visibility: inherit;" fill="rgb(0, 0, 0)" stroke="rgb(204, 204, 204)" stroke-width="1px"></line><line x1="41.149001121520996" y1="88.44999980926514" x2="36.149001121520996" y2="88.44999980926514" style="visibility: inherit;" fill="rgb(0, 0, 0)" stroke="rgb(204, 204, 204)" stroke-width="1px"></line><line x1="41.149001121520996" y1="66.33749985694885" x2="36.149001121520996" y2="66.33749985694885" style="visibility: inherit;" fill="rgb(0, 0, 0)" stroke="rgb(204, 204, 204)" stroke-width="1px"></line><line x1="41.149001121520996" y1="44.22499990463255" x2="36.149001121520996" y2="44.22499990463255" style="visibility: inherit;" fill="rgb(0, 0, 0)" stroke="rgb(204, 204, 204)" stroke-width="1px"></line><line x1="41.149001121520996" y1="22.112499952316305" x2="36.149001121520996" y2="22.112499952316305" style="visibility: inherit;" fill="rgb(0, 0, 0)" stroke="rgb(204, 204, 204)" stroke-width="1px"></line><line x1="41.149001121520996" y1="0" x2="36.149001121520996" y2="0" style="visibility: inherit;" fill="rgb(0, 0, 0)" stroke="rgb(204, 204, 204)" stroke-width="1px"></line></g><g transform="translate(31.149001121520996, 0)"><text style="text-anchor: end; visibility: hidden; font-family: Roboto, sans-serif; font-size: 12px; font-weight: 200;" x="0" y="176.89999961853027" dx="0em" dy="0.3em" fill="rgb(33, 33, 33)" stroke="none" stroke-width="1px">1</text><text style="text-anchor: end; visibility: inherit; font-family: Roboto, sans-serif; font-size: 12px; font-weight: 200;" x="0" y="154.787499666214" dx="0em" dy="0.3em" fill="rgb(33, 33, 33)" stroke="none" stroke-width="1px">1.2</text><text style="text-anchor: end; visibility: hidden; font-family: Roboto, sans-serif; font-size: 12px; font-weight: 200;" x="0" y="132.6749997138977" dx="0em" dy="0.3em" fill="rgb(33, 33, 33)" stroke="none" stroke-width="1px">1.4</text><text style="text-anchor: end; visibility: inherit; font-family: Roboto, sans-serif; font-size: 12px; font-weight: 200;" x="0" y="110.56249976158142" dx="0em" dy="0.3em" fill="rgb(33, 33, 33)" stroke="none" stroke-width="1px">1.6</text><text style="text-anchor: end; visibility: hidden; font-family: Roboto, sans-serif; font-size: 12px; font-weight: 200;" x="0" y="88.44999980926514" dx="0em" dy="0.3em" fill="rgb(33, 33, 33)" stroke="none" stroke-width="1px">1.8</text><text style="text-anchor: end; visibility: inherit; font-family: Roboto, sans-serif; font-size: 12px; font-weight: 200;" x="0" y="66.33749985694885" dx="0em" dy="0.3em" fill="rgb(33, 33, 33)" stroke="none" stroke-width="1px">2</text><text style="text-anchor: end; visibility: hidden; font-family: Roboto, sans-serif; font-size: 12px; font-weight: 200;" x="0" y="44.22499990463255" dx="0em" dy="0.3em" fill="rgb(33, 33, 33)" stroke="none" stroke-width="1px">2.2</text><text style="text-anchor: end; visibility: inherit; font-family: Roboto, sans-serif; font-size: 12px; font-weight: 200;" x="0" y="22.112499952316305" dx="0em" dy="0.3em" fill="rgb(33, 33, 33)" stroke="none" stroke-width="1px">2.4</text><text style="text-anchor: end; visibility: hidden; font-family: Roboto, sans-serif; font-size: 12px; font-weight: 200;" x="0" y="0" dx="0em" dy="0.3em" fill="rgb(33, 33, 33)" stroke="none" stroke-width="1px">2.6</text></g><line x1="41.149001121520996" y1="0" x2="41.149001121520996" y2="176.89999961853027" fill="rgb(0, 0, 0)" stroke="rgb(204, 204, 204)" stroke-width="1px"></line></g></g><g transform="translate(41, 0)" clip-path="url(#clip_0)"><clipPath id="clip_0"><rect width="288" height="176"></rect></clipPath><g><g><g><line x1="0" y1="0" x2="0" y2="176.89999961853027" fill="rgb(0, 0, 0)" stroke="rgb(66, 66, 66)" stroke-width="1px" opacity="0.25"></line><line x1="26.259181716225363" y1="0" x2="26.259181716225363" y2="176.89999961853027" fill="rgb(0, 0, 0)" stroke="rgb(66, 66, 66)" stroke-width="1px" opacity="0.25"></line><line x1="52.51836343245073" y1="0" x2="52.51836343245073" y2="176.89999961853027" fill="rgb(0, 0, 0)" stroke="rgb(66, 66, 66)" stroke-width="1px" opacity="0.25"></line><line x1="78.77754514867608" y1="0" x2="78.77754514867608" y2="176.89999961853027" fill="rgb(0, 0, 0)" stroke="rgb(66, 66, 66)" stroke-width="1px" opacity="0.25"></line><line x1="105.03672686490145" y1="0" x2="105.03672686490145" y2="176.89999961853027" fill="rgb(0, 0, 0)" stroke="rgb(66, 66, 66)" stroke-width="1px" opacity="0.25"></line><line x1="131.2959085811268" y1="0" x2="131.2959085811268" y2="176.89999961853027" fill="rgb(0, 0, 0)" stroke="rgb(66, 66, 66)" stroke-width="1px" opacity="0.25"></line><line x1="157.55509029735217" y1="0" x2="157.55509029735217" y2="176.89999961853027" fill="rgb(0, 0, 0)" stroke="rgb(66, 66, 66)" stroke-width="1px" opacity="0.25"></line><line x1="183.81427201357755" y1="0" x2="183.81427201357755" y2="176.89999961853027" fill="rgb(0, 0, 0)" stroke="rgb(66, 66, 66)" stroke-width="1px" opacity="0.25"></line><line x1="210.0734537298029" y1="0" x2="210.0734537298029" y2="176.89999961853027" fill="rgb(0, 0, 0)" stroke="rgb(66, 66, 66)" stroke-width="1px" opacity="0.25"></line><line x1="236.3326354460283" y1="0" x2="236.3326354460283" y2="176.89999961853027" fill="rgb(0, 0, 0)" stroke="rgb(66, 66, 66)" stroke-width="1px" opacity="0.25"></line><line x1="262.5918171622536" y1="0" x2="262.5918171622536" y2="176.89999961853027" fill="rgb(0, 0, 0)" stroke="rgb(66, 66, 66)" stroke-width="1px" opacity="0.25"></line><line x1="288.850998878479" y1="0" x2="288.850998878479" y2="176.89999961853027" fill="rgb(0, 0, 0)" stroke="rgb(66, 66, 66)" stroke-width="1px" opacity="0.25"></line></g><g><line x1="0" y1="176.89999961853027" x2="288.850998878479" y2="176.89999961853027" fill="rgb(0, 0, 0)" stroke="rgb(66, 66, 66)" stroke-width="1px" opacity="0.25"></line><line x1="0" y1="154.787499666214" x2="288.850998878479" y2="154.787499666214" fill="rgb(0, 0, 0)" stroke="rgb(66, 66, 66)" stroke-width="1px" opacity="0.25"></line><line x1="0" y1="132.6749997138977" x2="288.850998878479" y2="132.6749997138977" fill="rgb(0, 0, 0)" stroke="rgb(66, 66, 66)" stroke-width="1px" opacity="0.25"></line><line x1="0" y1="110.56249976158142" x2="288.850998878479" y2="110.56249976158142" fill="rgb(0, 0, 0)" stroke="rgb(66, 66, 66)" stroke-width="1px" opacity="0.25"></line><line x1="0" y1="88.44999980926514" x2="288.850998878479" y2="88.44999980926514" fill="rgb(0, 0, 0)" stroke="rgb(66, 66, 66)" stroke-width="1px" opacity="0.25"></line><line x1="0" y1="66.33749985694885" x2="288.850998878479" y2="66.33749985694885" fill="rgb(0, 0, 0)" stroke="rgb(66, 66, 66)" stroke-width="1px" opacity="0.25"></line><line x1="0" y1="44.22499990463255" x2="288.850998878479" y2="44.22499990463255" fill="rgb(0, 0, 0)" stroke="rgb(66, 66, 66)" stroke-width="1px" opacity="0.25"></line><line x1="0" y1="22.112499952316305" x2="288.850998878479" y2="22.112499952316305" fill="rgb(0, 0, 0)" stroke="rgb(66, 66, 66)" stroke-width="1px" opacity="0.25"></line><line x1="0" y1="0" x2="288.850998878479" y2="0" fill="rgb(0, 0, 0)" stroke="rgb(66, 66, 66)" stroke-width="1px" opacity="0.25"></line></g></g></g><g><g><line x1="0" y1="287.4624993801117" x2="288.850998878479" y2="287.4624993801117" fill="rgb(0, 0, 0)" stroke="rgb(153, 153, 153)" stroke-width="1.5px"></line></g></g><g><g><line x1="26.259181716225363" y1="0" x2="26.259181716225363" y2="176.89999961853027" fill="rgb(0, 0, 0)" stroke="rgb(153, 153, 153)" stroke-width="1.5px"></line></g></g><g><g><g><g><g><path style="fill: none;" stroke="rgb(255, 112, 67)" stroke-width="2px" d="M27.545881620320404,21.106691368603038L28.858840706131673,43.23236678493989L30.17179979194294,35.84769570012594L31.48475887775421,29.063124954985792L32.79771796356548,45.75120704494854L34.11067704937675,42.757990143763635L35.42363613518802,55.97904284543427L36.736595220999284,52.48949857248792L38.04955430681055,65.74962649791898L39.36251339262182,80.19560045230696L40.675472478433086,75.04988162669983L41.98843156424436,76.4884255911539L43.30139065005562,74.8918464852705L44.614349735866895,66.11079734918296L45.92730882167816,79.43362299615275L47.24026790748943,88.81029100654385L48.5532269933007,83.0571591201384L49.86618607911197,87.70027326072761L51.179145164923234,97.37582346240549L52.492104250734506,92.97320834296578L53.80506333654577,99.68101361505506L55.11802242235704,98.63771719223007L56.4309815081683,94.78589879422175L57.74394059397957,101.69190965827887L59.05689967979084,103.48156895700959L60.36985876560211,102.30409483930379L61.682817851413375,95.70833071126088L62.99577693722465,86.69712052438915L64.30873602303592,91.53518072110853L65.62169510884718,86.68199730781897L66.93465419465845,95.43838007224147L68.24761328046972,102.63893288255306L69.560572366281,91.14707756470673L70.87353145209225,91.71576876263981L72.18649053790352,99.81274722261347L73.49944962371478,104.27104012370567L74.81240870952607,96.96376282732233L76.12536779533733,110.87512543476765L77.4383268811486,113.53709103324317L78.75128596695986,107.02371490134914L80.06424505277114,110.55211540129481L81.3772041385824,95.94878342016017L82.69016322439367,104.2376706682504L84.00312231020494,113.3773255396065L85.31608139601622,120.99542105824442L86.62904048182747,100.91039785907998L87.94199956763875,106.73404627199638L89.25495865345002,122.72106097391865L90.56791773926129,105.925521890107L91.88087682507255,103.78576276910661L93.1938359108838,102.78827873857686L94.50679499669509,101.8578085395878L95.81975408250635,115.33098899675059L97.13271316831762,127.55174914207119L98.44567225412888,112.88259190114154L99.75863133994017,108.06893020449444L101.07159042575142,118.58969018002365L102.3845495115627,110.17627277745025L103.69750859737395,106.6405307364955L105.01046768318524,113.36814706539282L106.3234267689965,118.67545026713051L107.63638585480777,113.72329087192409L108.94934494061903,112.53184338336129L110.26230402643031,111.92920588229879L111.57526311224157,114.84428543223362L112.88822219805284,93.83764017792757L114.2011812838641,113.86275260715328L115.51414036967539,127.52235099821803L116.82709945548665,130.46124157447773L118.1400585412979,125.19250397244498L119.45301762710918,121.0975478489621L120.76597671292045,100.97251745969426L122.07893579873172,81.82240750686185L123.39189488454298,90.16661772153464L124.70485397035425,106.3440235925943L126.01781305616552,121.42301974587086L127.3307721419768,122.16453321965037L128.64373122778807,106.53419689993477L129.95669031359932,122.49168290239672L131.26964939941058,118.05931649517623L132.58260848522187,118.3708599943757L133.89556757103313,116.65627529012397L135.2085266568444,123.25325871776748L136.52148574265567,111.37287110586662L137.83444482846696,110.00241846131227L139.14740391427821,122.12777481127505L140.46036300008947,119.24048494171883L141.77332208590073,122.41624518374806L143.086281171712,112.40740197685875L144.39924025752327,121.65893675251876L145.71219934333456,117.94589778305046L147.02515842914582,115.08705448858L148.33811751495708,132.97360721961365L149.65107660076833,137.07063535219578L150.96403568657962,134.85692086476638L152.27699477239088,136.69102496253996L153.58995385820214,134.135813803022L154.90291294401342,144.53963510381655L156.2158720298247,142.35001576937833L157.52883111563597,131.66967479802065L158.84179020144722,124.60381600271883L160.15474928725848,125.12275666231807L161.46770837306977,128.79693336426348L162.78066745888103,138.24343305637078L164.0936265446923,141.71649154512465L165.40658563050357,124.71241712708346L166.71954471631483,127.80103104456637L168.03250380212612,112.80427751049595L169.34546288793737,118.56530202803921L170.65842197374863,133.51347302741854L171.9713810595599,121.65016727100425L173.28434014537117,130.9586561863326L174.59729923118246,139.67933731341594L175.91025831699372,146.33132464017874L177.22321740280498,142.31468180837214L178.53617648861626,140.69660785861237L179.84913557442752,143.09199734294393L181.16209466023878,143.89494246164557L182.47505374605004,141.45085895705307L183.78801283186132,130.6814043591877L185.1009719176726,133.18060238354758L186.41393100348387,142.98737087233206L187.72689008929513,138.78817218130948L189.03984917510638,126.14584767922923L190.35280826091767,130.70035834492603L191.66576734672893,122.8598593199474L192.97872643254018,120.9445380166504L194.29168551835144,119.07692032293426L195.60464460416276,123.40087610208656L196.91760368997402,116.9431990134839L198.23056277578527,115.32523283209336L199.54352186159653,116.40848377862446L200.85648094740782,132.75319101428735L202.16944003321908,136.05000098771865L203.48239911903033,136.54982534621817L204.7953582048416,140.5600434509699L206.1083172906529,136.63508739982106L207.42127637646416,147.77049200661386L208.73423546227542,143.2510944144602L210.04719454808668,134.81079336279527L211.36015363389797,134.7814443402018L212.67311271970922,130.4844431583585L213.98607180552048,136.5109664623839L215.29903089133174,136.2090761822648L216.61198997714303,129.92071607283046L217.9249490629543,134.3475478694934L219.23790814876557,132.25754337891985L220.55086723457683,130.9941775578411L221.86382632038809,139.52288780116547L223.17678540619937,137.52438014230464L224.48974449201063,106.83277070095158L225.8027035778219,129.60035285933475L227.11566266363317,128.31692485149466L228.42862174944446,142.38023814307766L229.74158083525572,138.99189060013583L231.05453992106698,144.80176600196964L232.36749900687823,145.75887730823646L233.68045809268952,145.50372184339506L234.99341717850078,134.7526445952441L236.30637626431206,140.60194665287133L237.61933535012332,136.2738316381747L238.93229443593458,138.78828086088447L240.24525352174587,128.86117219172218L241.55821260755712,140.08017116865713L242.87117169336838,162.80424704812944L244.18413077917964,147.76887495900652L245.49708986499093,148.67408438905278L246.8100489508022,146.54453820728864L248.12300803661347,148.81147623548705L249.43596712242473,147.91223116445514L250.748926208236,154.6831403849918L252.06188529404727,154.6294951350599L253.37484437985853,164.30857327480436L254.6878034656698,157.68892091284027L256.0007625514811,167.36220229745086L257.31372163729236,151.695000544957L258.6266807231036,147.22355909849645L259.9396398089149,156.64427003319128L261.25259889472613,157.18088659222258L262.56555798053745,155.1423363606125L263.8785170663487,155.97381152837113" fill="none"></path></g></g></g></g><g opacity="0.2"><g><g><g><path style="fill: none;" stroke="rgb(255, 112, 67)" stroke-width="2px" d="M27.545881620320404,21.106691368603038L28.858840706131673,56.507772034742004L30.17179979194294,28.758411458704472L31.48475887775421,21.08446975870089L32.79771796356548,67.5391670216039L34.11067704937675,38.61729361134047L35.42363613518802,74.88535974566639L36.736595220999284,47.4017095229072L38.04955430681055,85.30573954068154L39.36251339262182,101.64618818298459L40.675472478433086,67.37797467931253L41.98843156424436,78.63841304510652L43.30139065005562,72.50219093423902L44.614349735866895,52.95642663443738L45.92730882167816,99.4022009851792L47.24026790748943,102.86867986937474L48.5532269933007,74.42989582313467L49.86618607911197,94.6637655854341L51.179145164923234,111.88767479223353L52.492104250734506,86.36968808026688L53.80506333654577,109.742353651206L55.11802242235704,97.07280688810579L56.4309815081683,89.00824724464437L57.74394059397957,112.05084414608203L59.05689967979084,106.16604518497334L60.36985876560211,100.53788868413429L61.682817851413375,85.81470139594921L62.99577693722465,73.18031907841183L64.30873602303592,98.79226655965036L65.62169510884718,79.40222487016536L66.93465419465845,108.57295131516332L68.24761328046972,113.43976066535143L69.560572366281,73.90929595983403L70.87353145209225,92.56880551880522L72.18649053790352,111.95821456459194L73.49944962371478,110.9584793603822L74.81240870952607,86.0028469958028L76.12536779533733,131.74216921679667L77.4383268811486,117.53003941612982L78.75128596695986,97.25365072527504L80.06424505277114,115.84471614413837L81.3772041385824,74.04378546602709L82.69016322439367,116.67100153440254L84.00312231020494,127.08680784268219L85.31608139601622,132.42256433422165L86.62904048182747,70.78286306346493L87.94199956763875,115.46951889082615L89.25495865345002,146.70158302590474L90.56791773926129,80.73221326495522L91.88087682507255,100.57612408764919L93.1938359108838,101.29205269279433L94.50679499669509,100.46210324111095L95.81975408250635,135.54075968243603L97.13271316831762,145.88288936001996L98.44567225412888,90.87885603977008L99.75863133994017,100.84843765952834L101.07159042575142,134.37083014331145L102.3845495115627,97.55614667359305L103.69750859737395,101.33691767506414L105.01046768318524,123.45957155873785L106.3234267689965,126.63640506973672L107.63638585480777,106.29505177911463L108.94934494061903,110.74467215051706L110.26230402643031,111.02524963070502L111.57526311224157,119.21690475713584L112.88822219805284,62.32767229646862L114.2011812838641,143.9004212509918L115.51414036967539,148.0117485848151L116.82709945548665,134.86957743886728L118.1400585412979,117.2893975693959L119.45301762710918,114.95511366373785L120.76597671292045,70.78497187579254L122.07893579873172,53.09724257761326L123.39189488454298,102.68293304354381L124.70485397035425,130.61013239918375L126.01781305616552,144.04151397578568L127.3307721419768,123.27680343031966L128.64373122778807,83.08869242036133L129.95669031359932,146.4279119060897L131.26964939941058,111.41076688434546L132.58260848522187,118.83817524317487L133.89556757103313,114.08439823374644L135.2085266568444,133.14873385923272L136.52148574265567,93.55228968801535L137.83444482846696,107.94673949448077L139.14740391427821,140.3158093362192L140.46036300008947,114.90955013738451L141.77332208590073,127.1798855467919L143.086281171712,97.39413716652473L144.39924025752327,135.53623891600873L145.71219934333456,112.37633932884799L147.02515842914582,110.79878954687425L148.33811751495708,159.80343631616415L149.65107660076833,143.21617755106894L150.96403568657962,131.53634913362234L152.27699477239088,139.44218110920028L153.58995385820214,130.302997063745L154.90291294401342,160.1453670550084L156.2158720298247,139.06558676772102L157.52883111563597,115.64916334098407L158.84179020144722,114.00502780976618L160.15474928725848,125.90116765171695L161.46770837306977,134.30819841718156L162.78066745888103,152.41318259453175L164.0936265446923,146.92607927825543L165.40658563050357,99.20630550002167L166.71954471631483,132.43395192079072L168.03250380212612,90.30914720939032L169.34546288793737,127.2068388043541L170.65842197374863,155.9357295264875L171.9713810595599,103.85520863638286L173.28434014537117,144.92138955932512L174.59729923118246,152.7603590040409L175.91025831699372,156.30930563032288L177.22321740280498,136.2897175606623L178.53617648861626,138.26949693397276L179.84913557442752,146.68508156944122L181.16209466023878,145.099360139698L182.47505374605004,137.78473370016437L183.78801283186132,114.52722246238957L185.1009719176726,136.92939942008744L186.41393100348387,157.69752360550876L187.72689008929513,132.4893741447756L189.03984917510638,107.18236092610888L190.35280826091767,137.53212434347128L191.66576734672893,111.09911078247941L192.97872643254018,118.07155606170491L194.29168551835144,116.27549378236006L195.60464460416276,129.88680977081495L196.91760368997402,107.25668338057994L198.23056277578527,112.89828356000748L199.54352186159653,118.03336019842115L200.85648094740782,157.27025186778172L202.16944003321908,140.9952159478656L203.48239911903033,137.2995618839675L204.7953582048416,146.57537060809753L206.1083172906529,130.74765332309775L207.42127637646416,164.473598916803L208.73423546227542,136.47199802622973L210.04719454808668,122.15034178529785L211.36015363389797,134.73742080631163L212.67311271970922,124.03894138559346L213.98607180552048,145.55075141842204L215.29903089133174,135.7562407620862L216.61198997714303,120.48817590867893L217.9249490629543,140.98779556448784L219.23790814876557,129.12253664305945L220.55086723457683,129.09912882622302L221.86382632038809,152.31595316615207L223.17678540619937,134.52661865401333L224.48974449201063,60.79535653892202L225.8027035778219,163.75172609690944L227.11566266363317,126.39178283973445L228.42862174944446,163.47520808045212L229.74158083525572,133.9093692857231L231.05453992106698,153.51657910472036L232.36749900687823,147.1945442676367L233.68045809268952,145.12098864613301L234.99341717850078,118.62602872301773L236.30637626431206,149.3758997393122L237.61933535012332,129.7816591161297L238.93229443593458,142.55995469494914L240.24525352174587,113.97050918797868L241.55821260755712,156.9086696340596L242.87117169336838,196.89036086733796L244.18413077917964,125.2158168253221L245.49708986499093,150.03189853412218L246.8100489508022,143.35021893464238L248.12300803661347,152.21188327778472L249.43596712242473,146.56336355790722L250.748926208236,164.83950421579672L252.06188529404727,154.5490272601621L253.37484437985853,178.82719048442107L254.6878034656698,147.75944236989412L256.0007625514811,181.8721243743667L257.31372163729236,128.1941979162162L258.6266807231036,140.51639692880565L259.9396398089149,170.77533643523347L261.25259889472613,157.98581143076953L262.56555798053745,152.08451101319733L263.8785170663487,157.22102428000917" fill="none"></path></g></g></g></g></g></g><g transform="translate(41, 176)" clip-path="url(#clip_1)"><clipPath id="clip_1"><rect width="288" height="23"></rect></clipPath><g><g><line x1="0" y1="0" x2="0" y2="5" style="visibility: inherit;" fill="rgb(0, 0, 0)" stroke="rgb(204, 204, 204)" stroke-width="1px"></line><line x1="26.259181716225363" y1="0" x2="26.259181716225363" y2="5" style="visibility: inherit;" fill="rgb(0, 0, 0)" stroke="rgb(204, 204, 204)" stroke-width="1px"></line><line x1="52.51836343245073" y1="0" x2="52.51836343245073" y2="5" style="visibility: inherit;" fill="rgb(0, 0, 0)" stroke="rgb(204, 204, 204)" stroke-width="1px"></line><line x1="78.77754514867608" y1="0" x2="78.77754514867608" y2="5" style="visibility: inherit;" fill="rgb(0, 0, 0)" stroke="rgb(204, 204, 204)" stroke-width="1px"></line><line x1="105.03672686490145" y1="0" x2="105.03672686490145" y2="5" style="visibility: inherit;" fill="rgb(0, 0, 0)" stroke="rgb(204, 204, 204)" stroke-width="1px"></line><line x1="131.2959085811268" y1="0" x2="131.2959085811268" y2="5" style="visibility: inherit;" fill="rgb(0, 0, 0)" stroke="rgb(204, 204, 204)" stroke-width="1px"></line><line x1="157.55509029735217" y1="0" x2="157.55509029735217" y2="5" style="visibility: inherit;" fill="rgb(0, 0, 0)" stroke="rgb(204, 204, 204)" stroke-width="1px"></line><line x1="183.81427201357755" y1="0" x2="183.81427201357755" y2="5" style="visibility: inherit;" fill="rgb(0, 0, 0)" stroke="rgb(204, 204, 204)" stroke-width="1px"></line><line x1="210.0734537298029" y1="0" x2="210.0734537298029" y2="5" style="visibility: inherit;" fill="rgb(0, 0, 0)" stroke="rgb(204, 204, 204)" stroke-width="1px"></line><line x1="236.3326354460283" y1="0" x2="236.3326354460283" y2="5" style="visibility: inherit;" fill="rgb(0, 0, 0)" stroke="rgb(204, 204, 204)" stroke-width="1px"></line><line x1="262.5918171622536" y1="0" x2="262.5918171622536" y2="5" style="visibility: inherit;" fill="rgb(0, 0, 0)" stroke="rgb(204, 204, 204)" stroke-width="1px"></line><line x1="288.850998878479" y1="0" x2="288.850998878479" y2="5" style="visibility: inherit;" fill="rgb(0, 0, 0)" stroke="rgb(204, 204, 204)" stroke-width="1px"></line></g><g transform="translate(0, 8)"><text style="text-anchor: middle; visibility: hidden; font-family: Roboto, sans-serif; font-size: 12px; font-weight: 200;" x="0" y="0" dx="0em" dy="0.95em" fill="rgb(33, 33, 33)" stroke="none" stroke-width="1px">-1k</text><text style="text-anchor: middle; visibility: inherit; font-family: Roboto, sans-serif; font-size: 12px; font-weight: 200;" x="26.259181716225363" y="0" dx="0em" dy="0.95em" fill="rgb(33, 33, 33)" stroke="none" stroke-width="1px">0</text><text style="text-anchor: middle; visibility: inherit; font-family: Roboto, sans-serif; font-size: 12px; font-weight: 200;" x="52.51836343245073" y="0" dx="0em" dy="0.95em" fill="rgb(33, 33, 33)" stroke="none" stroke-width="1px">1k</text><text style="text-anchor: middle; visibility: inherit; font-family: Roboto, sans-serif; font-size: 12px; font-weight: 200;" x="78.77754514867608" y="0" dx="0em" dy="0.95em" fill="rgb(33, 33, 33)" stroke="none" stroke-width="1px">2k</text><text style="text-anchor: middle; visibility: inherit; font-family: Roboto, sans-serif; font-size: 12px; font-weight: 200;" x="105.03672686490145" y="0" dx="0em" dy="0.95em" fill="rgb(33, 33, 33)" stroke="none" stroke-width="1px">3k</text><text style="text-anchor: middle; visibility: inherit; font-family: Roboto, sans-serif; font-size: 12px; font-weight: 200;" x="131.2959085811268" y="0" dx="0em" dy="0.95em" fill="rgb(33, 33, 33)" stroke="none" stroke-width="1px">4k</text><text style="text-anchor: middle; visibility: inherit; font-family: Roboto, sans-serif; font-size: 12px; font-weight: 200;" x="157.55509029735217" y="0" dx="0em" dy="0.95em" fill="rgb(33, 33, 33)" stroke="none" stroke-width="1px">5k</text><text style="text-anchor: middle; visibility: inherit; font-family: Roboto, sans-serif; font-size: 12px; font-weight: 200;" x="183.81427201357755" y="0" dx="0em" dy="0.95em" fill="rgb(33, 33, 33)" stroke="none" stroke-width="1px">6k</text><text style="text-anchor: middle; visibility: inherit; font-family: Roboto, sans-serif; font-size: 12px; font-weight: 200;" x="210.0734537298029" y="0" dx="0em" dy="0.95em" fill="rgb(33, 33, 33)" stroke="none" stroke-width="1px">7k</text><text style="text-anchor: middle; visibility: inherit; font-family: Roboto, sans-serif; font-size: 12px; font-weight: 200;" x="236.3326354460283" y="0" dx="0em" dy="0.95em" fill="rgb(33, 33, 33)" stroke="none" stroke-width="1px">8k</text><text style="text-anchor: middle; visibility: inherit; font-family: Roboto, sans-serif; font-size: 12px; font-weight: 200;" x="262.5918171622536" y="0" dx="0em" dy="0.95em" fill="rgb(33, 33, 33)" stroke="none" stroke-width="1px">9k</text><text style="text-anchor: middle; visibility: hidden; font-family: Roboto, sans-serif; font-size: 12px; font-weight: 200;" x="288.850998878479" y="0" dx="0em" dy="0.95em" fill="rgb(33, 33, 33)" stroke="none" stroke-width="1px">10k</text></g><line x1="0" y1="0" x2="288.850998878479" y2="0" fill="rgb(0, 0, 0)" stroke="rgb(204, 204, 204)" stroke-width="1px"></line></g></g></g></g></svg>