<svg viewBox="0 0 330 200" xmlns="http://www.w3.org/2000/svg"><g><g><g><g><g><line x1="51.53200149536133" y1="176.89999961853027" x2="46.53200149536133" y2="176.89999961853027" style="visibility: inherit;" fill="rgb(0, 0, 0)" stroke="rgb(204, 204, 204)" stroke-width="1px"></line><line x1="51.53200149536133" y1="154.78749966621402" x2="46.53200149536133" y2="154.78749966621402" style="visibility: inherit;" fill="rgb(0, 0, 0)" stroke="rgb(204, 204, 204)" stroke-width="1px"></line><line x1="51.53200149536133" y1="132.6749997138977" x2="46.53200149536133" y2="132.6749997138977" style="visibility: inherit;" fill="rgb(0, 0, 0)" stroke="rgb(204, 204, 204)" stroke-width="1px"></line><line x1="51.53200149536133" y1="110.56249976158146" x2="46.53200149536133" y2="110.56249976158146" style="visibility: inherit;" fill="rgb(0, 0, 0)" stroke="rgb(204, 204, 204)" stroke-width="1px"></line><line x1="51.53200149536133" y1="88.44999980926514" x2="46.53200149536133" y2="88.44999980926514" style="visibility: inherit;" fill="rgb(0, 0, 0)" stroke="rgb(204, 204, 204)" stroke-width="1px"></line><line x1="51.53200149536133" y1="66.33749985694884" x2="46.53200149536133" y2="66.33749985694884" style="visibility: inherit;" fill="rgb(0, 0, 0)" stroke="rgb(204, 204, 204)" stroke-width="1px"></line><line x1="51.53200149536133" y1="44.22499990463257" x2="46.53200149536133" y2="44.22499990463257" style="visibility: inherit;" fill="rgb(0, 0, 0)" stroke="rgb(204, 204, 204)" stroke-width="1px"></line><line x1="51.53200149536133" y1="22.112499952316263" x2="46.53200149536133" y2="22.112499952316263" style="visibility: inherit;" fill="rgb(0, 0, 0)" stroke="rgb(204, 204, 204)" stroke-width="1px"></line><line x1="51.53200149536133" y1="0" x2="46.53200149536133" y2="0" style="visibility: inherit;" fill="rgb(0, 0, 0)" stroke="rgb(204, 204, 204)" stroke-width="1px"></line></g><g transform="translate(41.53200149536133, 0)"><text style="text-anchor: end; visibility: hidden; font-family: Roboto, sans-serif; font-size: 12px; font-weight: 200;" x="0" y="176.89999961853027" dx="0em" dy="0.3em" fill="rgb(33, 33, 33)" stroke="none" stroke-width="1px">0.55</text><text style="text-anchor: end; visibility: inherit; font-family: Roboto, sans-serif; font-size: 12px; font-weight: 200;" x="0" y="154.78749966621402" dx="0em" dy="0.3em" fill="rgb(33, 33, 33)" stroke="none" stroke-width="1px">0.6</text><text style="text-anchor: end; visibility: hidden; font-family: Roboto, sans-serif; font-size: 12px; font-weight: 200;" x="0" y="132.6749997138977" dx="0em" dy="0.3em" fill="rgb(33, 33, 33)" stroke="none" stroke-width="1px">0.65</text><text style="text-anchor: end; visibility: inherit; font-family: Roboto, sans-serif; font-size: 12px; font-weight: 200;" x="0" y="110.56249976158146" dx="0em" dy="0.3em" fill="rgb(33, 33, 33)" stroke="none" stroke-width="1px">0.7</text><text style="text-anchor: end; visibility: hidden; font-family: Roboto, sans-serif; font-size: 12px; font-weight: 200;" x="0" y="88.44999980926514" dx="0em" dy="0.3em" fill="rgb(33, 33, 33)" stroke="none" stroke-width="1px">0.75</text><text style="text-anchor: end; visibility: inherit; font-family: Roboto, sans-serif; font-size: 12px; font-weight: 200;" x="0" y="66.33749985694884" dx="0em" dy="0.3em" fill="rgb(33, 33, 33)" stroke="none" stroke-width="1px">0.8</text><text style="text-anchor: end; visibility: hidden; font-family: Roboto, sans-serif; font-size: 12px; font-weight: 200;" x="0" y="44.22499990463257" dx="0em" dy="0.3em" fill="rgb(33, 33, 33)" stroke="none" stroke-width="1px">0.85</text><text style="text-anchor: end; visibility: inherit; font-family: Roboto, sans-serif; font-size: 12px; font-weight: 200;" x="0" y="22.112499952316263" dx="0em" dy="0.3em" fill="rgb(33, 33, 33)" stroke="none" stroke-width="1px">0.9</text><text style="text-anchor: end; visibility: hidden; font-family: Roboto, sans-serif; font-size: 12px; font-weight: 200;" x="0" y="0" dx="0em" dy="0.3em" fill="rgb(33, 33, 33)" stroke="none" stroke-width="1px">0.95</text></g><line x1="51.53200149536133" y1="0" x2="51.53200149536133" y2="176.89999961853027" fill="rgb(0, 0, 0)" stroke="rgb(204, 204, 204)" stroke-width="1px"></line></g></g><g transform="translate(51, 0)" clip-path="url(#clip_0)"><clipPath id="clip_0"><rect width="278" height="176"></rect></clipPath><g><g><g><line x1="0" y1="0" x2="0" y2="176.89999961853027" fill="rgb(0, 0, 0)" stroke="rgb(66, 66, 66)" stroke-width="1px" opacity="0.25"></line><line x1="25.31527259133079" y1="0" x2="25.31527259133079" y2="176.89999961853027" fill="rgb(0, 0, 0)" stroke="rgb(66, 66, 66)" stroke-width="1px" opacity="0.25"></line><line x1="50.63054518266158" y1="0" x2="50.63054518266158" y2="176.89999961853027" fill="rgb(0, 0, 0)" stroke="rgb(66, 66, 66)" stroke-width="1px" opacity="0.25"></line><line x1="75.94581777399236" y1="0" x2="75.94581777399236" y2="176.89999961853027" fill="rgb(0, 0, 0)" stroke="rgb(66, 66, 66)" stroke-width="1px" opacity="0.25"></line><line x1="101.26109036532316" y1="0" x2="101.26109036532316" y2="176.89999961853027" fill="rgb(0, 0, 0)" stroke="rgb(66, 66, 66)" stroke-width="1px" opacity="0.25"></line><line x1="126.57636295665394" y1="0" x2="126.57636295665394" y2="176.89999961853027" fill="rgb(0, 0, 0)" stroke="rgb(66, 66, 66)" stroke-width="1px" opacity="0.25"></line><line x1="151.89163554798472" y1="0" x2="151.89163554798472" y2="176.89999961853027" fill="rgb(0, 0, 0)" stroke="rgb(66, 66, 66)" stroke-width="1px" opacity="0.25"></line><line x1="177.20690813931552" y1="0" x2="177.20690813931552" y2="176.89999961853027" fill="rgb(0, 0, 0)" stroke="rgb(66, 66, 66)" stroke-width="1px" opacity="0.25"></line><line x1="202.5221807306463" y1="0" x2="202.5221807306463" y2="176.89999961853027" fill="rgb(0, 0, 0)" stroke="rgb(66, 66, 66)" stroke-width="1px" opacity="0.25"></line><line x1="227.8374533219771" y1="0" x2="227.8374533219771" y2="176.89999961853027" fill="rgb(0, 0, 0)" stroke="rgb(66, 66, 66)" stroke-width="1px" opacity="0.25"></line><line x1="253.15272591330788" y1="0" x2="253.15272591330788" y2="176.89999961853027" fill="rgb(0, 0, 0)" stroke="rgb(66, 66, 66)" stroke-width="1px" opacity="0.25"></line><line x1="278.4679985046387" y1="0" x2="278.4679985046387" y2="176.89999961853027" fill="rgb(0, 0, 0)" stroke="rgb(66, 66, 66)" stroke-width="1px" opacity="0.25"></line></g><g><line x1="0" y1="176.89999961853027" x2="278.4679985046387" y2="176.89999961853027" fill="rgb(0, 0, 0)" stroke="rgb(66, 66, 66)" stroke-width="1px" opacity="0.25"></line><line x1="0" y1="154.78749966621402" x2="278.4679985046387" y2="154.78749966621402" fill="rgb(0, 0, 0)" stroke="rgb(66, 66, 66)" stroke-width="1px" opacity="0.25"></line><line x1="0" y1="132.6749997138977" x2="278.4679985046387" y2="132.6749997138977" fill="rgb(0, 0, 0)" stroke="rgb(66, 66, 66)" stroke-width="1px" opacity="0.25"></line><line x1="0" y1="110.56249976158146" x2="278.4679985046387" y2="110.56249976158146" fill="rgb(0, 0, 0)" stroke="rgb(66, 66, 66)" stroke-width="1px" opacity="0.25"></line><line x1="0" y1="88.44999980926514" x2="278.4679985046387" y2="88.44999980926514" fill="rgb(0, 0, 0)" stroke="rgb(66, 66, 66)" stroke-width="1px" opacity="0.25"></line><line x1="0" y1="66.33749985694884" x2="278.4679985046387" y2="66.33749985694884" fill="rgb(0, 0, 0)" stroke="rgb(66, 66, 66)" stroke-width="1px" opacity="0.25"></line><line x1="0" y1="44.22499990463257" x2="278.4679985046387" y2="44.22499990463257" fill="rgb(0, 0, 0)" stroke="rgb(66, 66, 66)" stroke-width="1px" opacity="0.25"></line><line x1="0" y1="22.112499952316263" x2="278.4679985046387" y2="22.112499952316263" fill="rgb(0, 0, 0)" stroke="rgb(66, 66, 66)" stroke-width="1px" opacity="0.25"></line><line x1="0" y1="0" x2="278.4679985046387" y2="0" fill="rgb(0, 0, 0)" stroke="rgb(66, 66, 66)" stroke-width="1px" opacity="0.25"></line></g></g></g><g><g><line x1="0" y1="420.13749909400946" x2="278.4679985046387" y2="420.13749909400946" fill="rgb(0, 0, 0)" stroke="rgb(153, 153, 153)" stroke-width="1.5px"></line></g></g><g><g><line x1="25.31527259133079" y1="0" x2="25.31527259133079" y2="176.89999961853027" fill="rgb(0, 0, 0)" stroke="rgb(153, 153, 153)" stroke-width="1.5px"></line></g></g><g><g><g><g><g><path style="fill: none;" stroke="rgb(255, 112, 67)" stroke-width="2px" d="M26.555720948305996,143.73124969005588L27.821484577872535,126.45585910230871L29.087248207439075,144.67141148397312L30.353011837005614,152.70768459353084L31.618775466572156,120.84126472696856L32.884539096138695,114.98223678432097L34.15030272570524,115.43836051574478L35.416066355271774,100.71022700212461L36.68182998483831,92.03327934020386L37.94759361440485,72.05206193873511L39.21335724397139,71.23744484799825L40.47912087353793,74.44403373451982L41.74488450310447,76.3635139948207L43.01064813267101,114.39666260806307L44.27641176223755,85.57736027703778L45.542175391804086,75.66737039670718L46.80793902137063,84.46732484408312L48.07370265093717,82.37476916625981L49.33946628050371,73.74808577194875L50.60522991007025,75.94351851134253L51.870993539636785,66.20423426012336L53.13675716920333,64.04626210002465L54.402520798769864,70.12239202472308L55.6682844283364,47.96999338758532L56.93404805790294,56.79118420303082L58.19981168746948,51.02761380564245L59.46557531703602,62.31116661166693L60.73133894660256,76.45212171861722L61.9971025761691,77.56586022120842L63.26286620573564,78.23410306013L64.52862983530218,63.89337304928311L65.79439346486872,66.34518711628151L67.06015709443525,60.44544879156057L68.3259207240018,71.64726951958777L69.59168435356834,48.88502445971737L70.85744798313488,57.3401778546206L72.12321161270143,62.413269835748046L73.38897524226795,65.45712500433139L74.6547388718345,59.91261179376186L75.92050250140103,63.956730173243194L77.18626613096758,59.012374903496024L78.4520297605341,67.10201172566447L79.71779339010065,46.1578701686151L80.98355701966719,44.64763521632937L82.24932064923374,43.74149424512533L83.51508427880027,65.3103096161586L84.78084790836682,52.45368574060381L86.04661153793334,33.68346143917246L87.3123751674999,66.64632676381177L88.57813879706643,67.996959149878L89.84390242663297,72.49276226962245L91.10966605619952,75.1902441414552L92.37542968576604,58.3816464562335L93.64119331533259,40.92565101298567L94.90695694489912,45.19372741130983L96.17272057446567,44.06914956220738L97.43848420403219,43.39440285274627L98.70424783359874,54.045804803229345L99.97001146316528,75.17831963777128L101.23577509273183,62.05990489808411L102.50153872229836,61.55969288639836L103.76730235186491,61.25956567938695L105.03306598143143,42.65240254689574L106.29882961099798,46.22977833165324L107.56459324056452,41.005366970381736L108.83035687013107,71.03947008209326L110.0961204996976,55.89118202064572L111.36188412926414,43.11679603974503L112.62764775883068,39.13757759523686L113.89341138839721,44.12088336065778L115.15917501796376,43.42544313181654L116.42493864753028,46.693602682605665L117.69070227709683,67.08157467730162L118.95646590666337,60.88728160989677L120.22222953622992,49.79986893732783L121.48799316579645,39.46200818975424L122.753756795363,36.94470488524231L124.01952042492952,50.175986022725496L125.28528405449607,43.373091585025065L126.55104768406261,54.03301804259515L127.81681131362916,56.743560773105045L129.08257494319568,65.74072324353688L130.34833857276223,49.026520773479724L131.61410220232878,72.16674921991985L132.8798658318953,67.6237994794998L134.14562946146185,50.15636651505748L135.41139309102837,43.361319880424276L136.67715672059492,50.340541875802494L137.94292035016147,54.52807507302937L139.208683979728,60.72600813539774L140.47444760929454,53.38851799666058L141.7402112388611,60.042273889576414L143.00597486842761,45.60745116110345L144.27173849799416,40.63197066805182L145.5375021275607,45.017519204346826L146.80326575712724,43.96342463803001L148.06902938669378,39.64555475420777L149.3347930162603,33.36941967988222L150.60055664582688,25.91831494719312L151.8663202753934,39.874738915863816L153.13208390495993,48.24859329706617L154.39784753452648,45.902069093661645L155.66361116409303,40.808741427586774L156.92937479365958,45.1235816600678L158.1951384232261,44.02706211146256L159.46090205279262,54.42540035845763L160.72666568235917,49.6081533304965L161.99242931192572,50.40322880181366L163.25819294149227,58.25110037266831L164.5239565710588,37.161910218832595L165.7897202006253,42.935482934815255L167.0554838301919,53.77045285246925L168.3212474597584,38.158934850745304L169.58701108932496,39.848274025869095L170.85277471889148,44.54730121903723L172.11853834845803,28.93963072665395L173.38430197802458,34.31669155141432L174.6500656075911,30.172101758206168L175.91582923715765,46.11242414650379L177.1815928667242,44.62036760332423L178.44735649629072,54.7813836535746L179.71312012585727,38.76549333140852L180.9788837554238,32.84138282620267L182.24464738499034,36.65774281114357L183.5104110145569,46.31839563423403L184.77617464412342,59.485624160214265L186.04193827368996,67.38596127580242L187.3077019032565,68.44073985706157L188.57346553282306,54.33194388562669L189.83922916238959,64.29375311104992L191.1049927919561,51.84375183801972L192.37075642152266,51.74458790632758L193.6365200510892,36.94341588306034L194.90228368065576,31.748136357193783L196.16804731022228,28.630968641673864L197.4338109397888,30.446081156394122L198.69957456935538,38.90598549735219L199.9653381989219,36.61109126980109L201.23110182848845,38.91956787730257L202.49686545805497,51.36090381796159L203.76262908762152,51.45487909429268L205.02839271718807,51.51126426009135L206.2941563467546,36.80342169531861L207.55991997632114,50.09121610877126L208.82568360588766,43.322229636652544L210.0914472354542,46.63167458550726L211.35721086502076,48.61734155482009L212.62297449458728,53.494154880439964L213.88873812415383,37.99315606752779L215.15450175372038,28.692556779780464L216.4202653832869,56.28094713560652L217.68602901285345,50.721481396785826L218.95179264241997,40.014975665429034L220.21755627198655,33.591072226615054L221.48331990155307,37.107556451390984L222.7490835311196,35.53203384222437L224.01484716068614,30.90130713269224L225.2806107902527,28.12287110697296L226.54637441981924,33.82663577960572L227.81213804938577,26.192644607027262L229.0779016789523,40.03933671176431L230.34366530851884,37.29110199844838L231.6094289380854,31.956748026426666L232.87519256765194,32.441548787245765L234.14095619721846,21.676179267579116L235.40671982678498,26.273207531937196L236.67248345635156,25.346011346519873L237.93824708591808,39.53135675545983L239.20401071548463,40.671727168697785L240.46977434505115,33.985123128576305L241.7355379746177,26.287737016409572L243.00130160418425,25.354729037203324L244.26706523375077,21.1095005615858L245.53282886331732,33.3040371404672L246.79859249288387,22.193672279511983L248.0643561224504,33.95454017122295L249.33011975201694,29.954810930091323L250.59588338158346,27.554973385412428L251.86164701115,29.80048400263724L253.12741064071656,31.147790372972107L254.39317427028308,28.270761051140838" fill="none"></path></g></g></g></g><g opacity="0.2"><g><g><g><path style="fill: none;" stroke="rgb(255, 112, 67)" stroke-width="2px" d="M26.555720948305996,143.73124969005588L27.821484577872535,116.09062474966049L29.087248207439075,162.1583417703708L30.353011837005614,162.1583417703708L31.618775466572156,79.23646694918472L32.884539096138695,106.87709188958007L34.15030272570524,116.09062474966049L35.416066355271774,79.23646694918472L36.68182998483831,79.23646694918472L37.94759361440485,42.382282788554825L39.21335724397139,70.0229077289502L40.47912087353793,79.23646694918472L41.74488450310447,79.23646694918472L43.01064813267101,171.37187463045123L44.27641176223755,42.382282788554825L45.542175391804086,60.80937486886978L46.80793902137063,97.66353266934556L48.07370265093717,79.23646694918472L49.33946628050371,60.80937486886978L50.60522991007025,79.23646694918472L51.870993539636785,51.59584200878936L53.13675716920333,60.80937486886978L54.402520798769864,79.23646694918472L55.6682844283364,14.741657848159472L56.93404805790294,70.0229077289502L58.19981168746948,42.382282788554825L59.46557531703602,79.23646694918472L60.73133894660256,97.66353266934556L61.9971025761691,79.23646694918472L63.26286620573564,79.23646694918472L64.52862983530218,42.382282788554825L65.79439346486872,70.0229077289502L67.06015709443525,51.59584200878936L68.3259207240018,88.44999980926514L69.59168435356834,14.741657848159472L70.85744798313488,70.0229077289502L72.12321161270143,70.0229077289502L73.38897524226795,70.0229077289502L74.6547388718345,51.59584200878936L75.92050250140103,70.0229077289502L77.18626613096758,51.59584200878936L78.4520297605341,79.23646694918472L79.71779339010065,14.741657848159472L80.98355701966719,42.382282788554825L82.24932064923374,42.382282788554825L83.51508427880027,97.66353266934556L84.78084790836682,33.168749928474405L86.04661153793334,5.5281249880790515L87.3123751674999,116.09062474966049L88.57813879706643,70.0229077289502L89.84390242663297,79.23646694918472L91.10966605619952,79.23646694918472L92.37542968576604,33.168749928474405L93.64119331533259,14.741657848159472L94.90695694489912,51.59584200878936L96.17272057446567,42.382282788554825L97.43848420403219,42.382282788554825L98.70424783359874,70.0229077289502L99.97001146316528,106.87709188958007L101.23577509273183,42.382282788554825L102.50153872229836,60.80937486886978L103.76730235186491,60.80937486886978L105.03306598143143,14.741657848159472L106.29882961099798,51.59584200878936L107.56459324056452,33.168749928474405L108.83035687013107,116.09062474966049L110.0961204996976,33.168749928474405L111.36188412926414,23.955217068393985L112.62764775883068,33.168749928474405L113.89341138839721,51.59584200878936L115.15917501796376,42.382282788554825L116.42493864753028,51.59584200878936L117.69070227709683,97.66353266934556L118.95646590666337,51.59584200878936L120.22222953622992,33.168749928474405L121.48799316579645,23.955217068393985L122.753756795363,33.168749928474405L124.01952042492952,70.0229077289502L125.28528405449607,33.168749928474405L126.55104768406261,70.0229077289502L127.81681131362916,60.80937486886978L129.08257494319568,79.23646694918472L130.34833857276223,23.955217068393985L131.61410220232878,106.87709188958007L132.8798658318953,60.80937486886978L134.14562946146185,23.955217068393985L135.41139309102837,33.168749928474405L136.67715672059492,60.80937486886978L137.94292035016147,60.80937486886978L139.208683979728,70.0229077289502L140.47444760929454,42.382282788554825L141.7402112388611,70.0229077289502L143.00597486842761,23.955217068393985L144.27173849799416,33.168749928474405L145.5375021275607,51.59584200878936L146.80326575712724,42.382282788554825L148.06902938669378,33.168749928474405L149.3347930162603,23.955217068393985L150.60055664582688,14.741657848159472L151.8663202753934,60.80937486886978L153.13208390495993,60.80937486886978L154.39784753452648,42.382282788554825L155.66361116409303,33.168749928474405L156.92937479365958,51.59584200878936L158.1951384232261,42.382282788554825L159.46090205279262,70.0229077289502L160.72666568235917,42.382282788554825L161.99242931192572,51.59584200878936L163.25819294149227,70.0229077289502L164.5239565710588,5.5281249880790515L165.7897202006253,51.59584200878936L167.0554838301919,70.0229077289502L168.3212474597584,14.741657848159472L169.58701108932496,42.382282788554825L170.85277471889148,51.59584200878936L172.11853834845803,5.5281249880790515L173.38430197802458,42.382282788554825L174.6500656075911,23.955217068393985L175.91582923715765,70.0229077289502L177.1815928667242,42.382282788554825L178.44735649629072,70.0229077289502L179.71312012585727,14.741657848159472L180.9788837554238,23.955217068393985L182.24464738499034,42.382282788554825L183.5104110145569,60.80937486886978L184.77617464412342,79.23646694918472L186.04193827368996,79.23646694918472L187.3077019032565,70.0229077289502L188.57346553282306,33.168749928474405L189.83922916238959,79.23646694918472L191.1049927919561,33.168749928474405L192.37075642152266,51.59584200878936L193.6365200510892,14.741657848159472L194.90228368065576,23.955217068393985L196.16804731022228,23.955217068393985L197.4338109397888,33.168749928474405L198.69957456935538,51.59584200878936L199.9653381989219,33.168749928474405L201.23110182848845,42.382282788554825L202.49686545805497,70.0229077289502L203.76262908762152,51.59584200878936L205.02839271718807,51.59584200878936L206.2941563467546,14.741657848159472L207.55991997632114,70.0229077289502L208.82568360588766,33.168749928474405L210.0914472354542,51.59584200878936L211.35721086502076,51.59584200878936L212.62297449458728,60.80937486886978L213.88873812415383,14.741657848159472L215.15450175372038,14.741657848159472L216.4202653832869,97.66353266934556L217.68602901285345,42.382282788554825L218.95179264241997,23.955217068393985L220.21755627198655,23.955217068393985L221.48331990155307,42.382282788554825L222.7490835311196,33.168749928474405L224.01484716068614,23.955217068393985L225.2806107902527,23.955217068393985L226.54637441981924,42.382282788554825L227.81213804938577,14.741657848159472L229.0779016789523,60.80937486886978L230.34366530851884,33.168749928474405L231.6094289380854,23.955217068393985L232.87519256765194,33.168749928474405L234.14095619721846,5.5281249880790515L235.40671982678498,33.168749928474405L236.67248345635156,23.955217068393985L237.93824708591808,60.80937486886978L239.20401071548463,42.382282788554825L240.46977434505115,23.955217068393985L241.7355379746177,14.741657848159472L243.00130160418425,23.955217068393985L244.26706523375077,14.741657848159472L245.53282886331732,51.59584200878936L246.79859249288387,5.5281249880790515L248.0643561224504,51.59584200878936L249.33011975201694,23.955217068393985L250.59588338158346,23.955217068393985L251.86164701115,33.168749928474405L253.12741064071656,33.168749928474405L254.39317427028308,23.955217068393985" fill="none"></path></g></g></g></g></g></g><g transform="translate(51, 176)" clip-path="url(#clip_1)"><clipPath id="clip_1"><rect width="278" height="23"></rect></clipPath><g><g><line x1="0" y1="0" x2="0" y2="5" style="visibility: inherit;" fill="rgb(0, 0, 0)" stroke="rgb(204, 204, 204)" stroke-width="1px"></line><line x1="25.31527259133079" y1="0" x2="25.31527259133079" y2="5" style="visibility: inherit;" fill="rgb(0, 0, 0)" stroke="rgb(204, 204, 204)" stroke-width="1px"></line><line x1="50.63054518266158" y1="0" x2="50.63054518266158" y2="5" style="visibility: inherit;" fill="rgb(0, 0, 0)" stroke="rgb(204, 204, 204)" stroke-width="1px"></line><line x1="75.94581777399236" y1="0" x2="75.94581777399236" y2="5" style="visibility: inherit;" fill="rgb(0, 0, 0)" stroke="rgb(204, 204, 204)" stroke-width="1px"></line><line x1="101.26109036532316" y1="0" x2="101.26109036532316" y2="5" style="visibility: inherit;" fill="rgb(0, 0, 0)" stroke="rgb(204, 204, 204)" stroke-width="1px"></line><line x1="126.57636295665394" y1="0" x2="126.57636295665394" y2="5" style="visibility: inherit;" fill="rgb(0, 0, 0)" stroke="rgb(204, 204, 204)" stroke-width="1px"></line><line x1="151.89163554798472" y1="0" x2="151.89163554798472" y2="5" style="visibility: inherit;" fill="rgb(0, 0, 0)" stroke="rgb(204, 204, 204)" stroke-width="1px"></line><line x1="177.20690813931552" y1="0" x2="177.20690813931552" y2="5" style="visibility: inherit;" fill="rgb(0, 0, 0)" stroke="rgb(204, 204, 204)" stroke-width="1px"></line><line x1="202.5221807306463" y1="0" x2="202.5221807306463" y2="5" style="visibility: inherit;" fill="rgb(0, 0, 0)" stroke="rgb(204, 204, 204)" stroke-width="1px"></line><line x1="227.8374533219771" y1="0" x2="227.8374533219771" y2="5" style="visibility: inherit;" fill="rgb(0, 0, 0)" stroke="rgb(204, 204, 204)" stroke-width="1px"></line><line x1="253.15272591330788" y1="0" x2="253.15272591330788" y2="5" style="visibility: inherit;" fill="rgb(0, 0, 0)" stroke="rgb(204, 204, 204)" stroke-width="1px"></line><line x1="278.4679985046387" y1="0" x2="278.4679985046387" y2="5" style="visibility: inherit;" fill="rgb(0, 0, 0)" stroke="rgb(204, 204, 204)" stroke-width="1px"></line></g><g transform="translate(0, 8)"><text style="text-anchor: middle; visibility: hidden; font-family: Roboto, sans-serif; font-size: 12px; font-weight: 200;" x="0" y="0" dx="0em" dy="0.95em" fill="rgb(33, 33, 33)" stroke="none" stroke-width="1px">-1k</text><text style="text-anchor: middle; visibility: inherit; font-family: Roboto, sans-serif; font-size: 12px; font-weight: 200;" x="25.31527259133079" y="0" dx="0em" dy="0.95em" fill="rgb(33, 33, 33)" stroke="none" stroke-width="1px">0</text><text style="text-anchor: middle; visibility: inherit; font-family: Roboto, sans-serif; font-size: 12px; font-weight: 200;" x="50.63054518266158" y="0" dx="0em" dy="0.95em" fill="rgb(33, 33, 33)" stroke="none" stroke-width="1px">1k</text><text style="text-anchor: middle; visibility: inherit; font-family: Roboto, sans-serif; font-size: 12px; font-weight: 200;" x="75.94581777399236" y="0" dx="0em" dy="0.95em" fill="rgb(33, 33, 33)" stroke="none" stroke-width="1px">2k</text><text style="text-anchor: middle; visibility: inherit; font-family: Roboto, sans-serif; font-size: 12px; font-weight: 200;" x="101.26109036532316" y="0" dx="0em" dy="0.95em" fill="rgb(33, 33, 33)" stroke="none" stroke-width="1px">3k</text><text style="text-anchor: middle; visibility: inherit; font-family: Roboto, sans-serif; font-size: 12px; font-weight: 200;" x="126.57636295665394" y="0" dx="0em" dy="0.95em" fill="rgb(33, 33, 33)" stroke="none" stroke-width="1px">4k</text><text style="text-anchor: middle; visibility: inherit; font-family: Roboto, sans-serif; font-size: 12px; font-weight: 200;" x="151.89163554798472" y="0" dx="0em" dy="0.95em" fill="rgb(33, 33, 33)" stroke="none" stroke-width="1px">5k</text><text style="text-anchor: middle; visibility: inherit; font-family: Roboto, sans-serif; font-size: 12px; font-weight: 200;" x="177.20690813931552" y="0" dx="0em" dy="0.95em" fill="rgb(33, 33, 33)" stroke="none" stroke-width="1px">6k</text><text style="text-anchor: middle; visibility: inherit; font-family: Roboto, sans-serif; font-size: 12px; font-weight: 200;" x="202.5221807306463" y="0" dx="0em" dy="0.95em" fill="rgb(33, 33, 33)" stroke="none" stroke-width="1px">7k</text><text style="text-anchor: middle; visibility: inherit; font-family: Roboto, sans-serif; font-size: 12px; font-weight: 200;" x="227.8374533219771" y="0" dx="0em" dy="0.95em" fill="rgb(33, 33, 33)" stroke="none" stroke-width="1px">8k</text><text style="text-anchor: middle; visibility: inherit; font-family: Roboto, sans-serif; font-size: 12px; font-weight: 200;" x="253.15272591330788" y="0" dx="0em" dy="0.95em" fill="rgb(33, 33, 33)" stroke="none" stroke-width="1px">9k</text><text style="text-anchor: middle; visibility: hidden; font-family: Roboto, sans-serif; font-size: 12px; font-weight: 200;" x="278.4679985046387" y="0" dx="0em" dy="0.95em" fill="rgb(33, 33, 33)" stroke="none" stroke-width="1px">10k</text></g><line x1="0" y1="0" x2="278.4679985046387" y2="0" fill="rgb(0, 0, 0)" stroke="rgb(204, 204, 204)" stroke-width="1px"></line></g></g></g></g></svg>