<?xml version="1.0" encoding="utf-8" standalone="no"?>
<!DOCTYPE svg PUBLIC "-//W3C//DTD SVG 1.1//EN"
  "http://www.w3.org/Graphics/SVG/1.1/DTD/svg11.dtd">
<svg xmlns:xlink="http://www.w3.org/1999/xlink" width="460.8pt" height="345.6pt" viewBox="0 0 460.8 345.6" xmlns="http://www.w3.org/2000/svg" version="1.1">
 <metadata>
  <rdf:RDF xmlns:dc="http://purl.org/dc/elements/1.1/" xmlns:cc="http://creativecommons.org/ns#" xmlns:rdf="http://www.w3.org/1999/02/22-rdf-syntax-ns#">
   <cc:Work>
    <dc:type rdf:resource="http://purl.org/dc/dcmitype/StillImage"/>
    <dc:date>2023-12-10T13:33:47.627203</dc:date>
    <dc:format>image/svg+xml</dc:format>
    <dc:creator>
     <cc:Agent>
      <dc:title>Matplotlib v3.5.3, https://matplotlib.org/</dc:title>
     </cc:Agent>
    </dc:creator>
   </cc:Work>
  </rdf:RDF>
 </metadata>
 <defs>
  <style type="text/css">*{stroke-linejoin: round; stroke-linecap: butt}</style>
 </defs>
 <g id="figure_1">
  <g id="patch_1">
   <path d="M 0 345.6 
L 460.8 345.6 
L 460.8 0 
L 0 0 
z
" style="fill: #ffffff"/>
  </g>
  <g id="axes_1">
   <g id="patch_2">
    <path d="M 57.6 307.584 
L 414.72 307.584 
L 414.72 41.472 
L 57.6 41.472 
z
" style="fill: #ffffff"/>
   </g>
   <g id="matplotlib.axis_1">
    <g id="xtick_1">
     <g id="line2d_1">
      <defs>
       <path id="mfc1ae8c4d7" d="M 0 0 
L 0 3.5 
" style="stroke: #000000; stroke-width: 0.8"/>
      </defs>
      <g>
       <use xlink:href="#mfc1ae8c4d7" x="73.379519" y="307.584" style="stroke: #000000; stroke-width: 0.8"/>
      </g>
     </g>
     <g id="text_1">
      <!-- 0 -->
      <g transform="translate(70.198269 322.182437)scale(0.1 -0.1)">
       <defs>
        <path id="DejaVuSans-30" d="M 2034 4250 
Q 1547 4250 1301 3770 
Q 1056 3291 1056 2328 
Q 1056 1369 1301 889 
Q 1547 409 2034 409 
Q 2525 409 2770 889 
Q 3016 1369 3016 2328 
Q 3016 3291 2770 3770 
Q 2525 4250 2034 4250 
z
M 2034 4750 
Q 2819 4750 3233 4129 
Q 3647 3509 3647 2328 
Q 3647 1150 3233 529 
Q 2819 -91 2034 -91 
Q 1250 -91 836 529 
Q 422 1150 422 2328 
Q 422 3509 836 4129 
Q 1250 4750 2034 4750 
z
" transform="scale(0.015625)"/>
       </defs>
       <use xlink:href="#DejaVuSans-30"/>
      </g>
     </g>
    </g>
    <g id="xtick_2">
     <g id="line2d_2">
      <g>
       <use xlink:href="#mfc1ae8c4d7" x="119.625287" y="307.584" style="stroke: #000000; stroke-width: 0.8"/>
      </g>
     </g>
     <g id="text_2">
      <!-- 5000 -->
      <g transform="translate(106.900287 322.182437)scale(0.1 -0.1)">
       <defs>
        <path id="DejaVuSans-35" d="M 691 4666 
L 3169 4666 
L 3169 4134 
L 1269 4134 
L 1269 2991 
Q 1406 3038 1543 3061 
Q 1681 3084 1819 3084 
Q 2600 3084 3056 2656 
Q 3513 2228 3513 1497 
Q 3513 744 3044 326 
Q 2575 -91 1722 -91 
Q 1428 -91 1123 -41 
Q 819 9 494 109 
L 494 744 
Q 775 591 1075 516 
Q 1375 441 1709 441 
Q 2250 441 2565 725 
Q 2881 1009 2881 1497 
Q 2881 1984 2565 2268 
Q 2250 2553 1709 2553 
Q 1456 2553 1204 2497 
Q 953 2441 691 2322 
L 691 4666 
z
" transform="scale(0.015625)"/>
       </defs>
       <use xlink:href="#DejaVuSans-35"/>
       <use xlink:href="#DejaVuSans-30" x="63.623047"/>
       <use xlink:href="#DejaVuSans-30" x="127.246094"/>
       <use xlink:href="#DejaVuSans-30" x="190.869141"/>
      </g>
     </g>
    </g>
    <g id="xtick_3">
     <g id="line2d_3">
      <g>
       <use xlink:href="#mfc1ae8c4d7" x="165.871056" y="307.584" style="stroke: #000000; stroke-width: 0.8"/>
      </g>
     </g>
     <g id="text_3">
      <!-- 10000 -->
      <g transform="translate(149.964806 322.182437)scale(0.1 -0.1)">
       <defs>
        <path id="DejaVuSans-31" d="M 794 531 
L 1825 531 
L 1825 4091 
L 703 3866 
L 703 4441 
L 1819 4666 
L 2450 4666 
L 2450 531 
L 3481 531 
L 3481 0 
L 794 0 
L 794 531 
z
" transform="scale(0.015625)"/>
       </defs>
       <use xlink:href="#DejaVuSans-31"/>
       <use xlink:href="#DejaVuSans-30" x="63.623047"/>
       <use xlink:href="#DejaVuSans-30" x="127.246094"/>
       <use xlink:href="#DejaVuSans-30" x="190.869141"/>
       <use xlink:href="#DejaVuSans-30" x="254.492188"/>
      </g>
     </g>
    </g>
    <g id="xtick_4">
     <g id="line2d_4">
      <g>
       <use xlink:href="#mfc1ae8c4d7" x="212.116825" y="307.584" style="stroke: #000000; stroke-width: 0.8"/>
      </g>
     </g>
     <g id="text_4">
      <!-- 15000 -->
      <g transform="translate(196.210575 322.182437)scale(0.1 -0.1)">
       <use xlink:href="#DejaVuSans-31"/>
       <use xlink:href="#DejaVuSans-35" x="63.623047"/>
       <use xlink:href="#DejaVuSans-30" x="127.246094"/>
       <use xlink:href="#DejaVuSans-30" x="190.869141"/>
       <use xlink:href="#DejaVuSans-30" x="254.492188"/>
      </g>
     </g>
    </g>
    <g id="xtick_5">
     <g id="line2d_5">
      <g>
       <use xlink:href="#mfc1ae8c4d7" x="258.362594" y="307.584" style="stroke: #000000; stroke-width: 0.8"/>
      </g>
     </g>
     <g id="text_5">
      <!-- 20000 -->
      <g transform="translate(242.456344 322.182437)scale(0.1 -0.1)">
       <defs>
        <path id="DejaVuSans-32" d="M 1228 531 
L 3431 531 
L 3431 0 
L 469 0 
L 469 531 
Q 828 903 1448 1529 
Q 2069 2156 2228 2338 
Q 2531 2678 2651 2914 
Q 2772 3150 2772 3378 
Q 2772 3750 2511 3984 
Q 2250 4219 1831 4219 
Q 1534 4219 1204 4116 
Q 875 4013 500 3803 
L 500 4441 
Q 881 4594 1212 4672 
Q 1544 4750 1819 4750 
Q 2544 4750 2975 4387 
Q 3406 4025 3406 3419 
Q 3406 3131 3298 2873 
Q 3191 2616 2906 2266 
Q 2828 2175 2409 1742 
Q 1991 1309 1228 531 
z
" transform="scale(0.015625)"/>
       </defs>
       <use xlink:href="#DejaVuSans-32"/>
       <use xlink:href="#DejaVuSans-30" x="63.623047"/>
       <use xlink:href="#DejaVuSans-30" x="127.246094"/>
       <use xlink:href="#DejaVuSans-30" x="190.869141"/>
       <use xlink:href="#DejaVuSans-30" x="254.492188"/>
      </g>
     </g>
    </g>
    <g id="xtick_6">
     <g id="line2d_6">
      <g>
       <use xlink:href="#mfc1ae8c4d7" x="304.608362" y="307.584" style="stroke: #000000; stroke-width: 0.8"/>
      </g>
     </g>
     <g id="text_6">
      <!-- 25000 -->
      <g transform="translate(288.702112 322.182437)scale(0.1 -0.1)">
       <use xlink:href="#DejaVuSans-32"/>
       <use xlink:href="#DejaVuSans-35" x="63.623047"/>
       <use xlink:href="#DejaVuSans-30" x="127.246094"/>
       <use xlink:href="#DejaVuSans-30" x="190.869141"/>
       <use xlink:href="#DejaVuSans-30" x="254.492188"/>
      </g>
     </g>
    </g>
    <g id="xtick_7">
     <g id="line2d_7">
      <g>
       <use xlink:href="#mfc1ae8c4d7" x="350.854131" y="307.584" style="stroke: #000000; stroke-width: 0.8"/>
      </g>
     </g>
     <g id="text_7">
      <!-- 30000 -->
      <g transform="translate(334.947881 322.182437)scale(0.1 -0.1)">
       <defs>
        <path id="DejaVuSans-33" d="M 2597 2516 
Q 3050 2419 3304 2112 
Q 3559 1806 3559 1356 
Q 3559 666 3084 287 
Q 2609 -91 1734 -91 
Q 1441 -91 1130 -33 
Q 819 25 488 141 
L 488 750 
Q 750 597 1062 519 
Q 1375 441 1716 441 
Q 2309 441 2620 675 
Q 2931 909 2931 1356 
Q 2931 1769 2642 2001 
Q 2353 2234 1838 2234 
L 1294 2234 
L 1294 2753 
L 1863 2753 
Q 2328 2753 2575 2939 
Q 2822 3125 2822 3475 
Q 2822 3834 2567 4026 
Q 2313 4219 1838 4219 
Q 1578 4219 1281 4162 
Q 984 4106 628 3988 
L 628 4550 
Q 988 4650 1302 4700 
Q 1616 4750 1894 4750 
Q 2613 4750 3031 4423 
Q 3450 4097 3450 3541 
Q 3450 3153 3228 2886 
Q 3006 2619 2597 2516 
z
" transform="scale(0.015625)"/>
       </defs>
       <use xlink:href="#DejaVuSans-33"/>
       <use xlink:href="#DejaVuSans-30" x="63.623047"/>
       <use xlink:href="#DejaVuSans-30" x="127.246094"/>
       <use xlink:href="#DejaVuSans-30" x="190.869141"/>
       <use xlink:href="#DejaVuSans-30" x="254.492188"/>
      </g>
     </g>
    </g>
    <g id="xtick_8">
     <g id="line2d_8">
      <g>
       <use xlink:href="#mfc1ae8c4d7" x="397.0999" y="307.584" style="stroke: #000000; stroke-width: 0.8"/>
      </g>
     </g>
     <g id="text_8">
      <!-- 35000 -->
      <g transform="translate(381.19365 322.182437)scale(0.1 -0.1)">
       <use xlink:href="#DejaVuSans-33"/>
       <use xlink:href="#DejaVuSans-35" x="63.623047"/>
       <use xlink:href="#DejaVuSans-30" x="127.246094"/>
       <use xlink:href="#DejaVuSans-30" x="190.869141"/>
       <use xlink:href="#DejaVuSans-30" x="254.492188"/>
      </g>
     </g>
    </g>
    <g id="text_9">
     <!-- step -->
     <g transform="translate(225.344375 335.860562)scale(0.1 -0.1)">
      <defs>
       <path id="DejaVuSans-73" d="M 2834 3397 
L 2834 2853 
Q 2591 2978 2328 3040 
Q 2066 3103 1784 3103 
Q 1356 3103 1142 2972 
Q 928 2841 928 2578 
Q 928 2378 1081 2264 
Q 1234 2150 1697 2047 
L 1894 2003 
Q 2506 1872 2764 1633 
Q 3022 1394 3022 966 
Q 3022 478 2636 193 
Q 2250 -91 1575 -91 
Q 1294 -91 989 -36 
Q 684 19 347 128 
L 347 722 
Q 666 556 975 473 
Q 1284 391 1588 391 
Q 1994 391 2212 530 
Q 2431 669 2431 922 
Q 2431 1156 2273 1281 
Q 2116 1406 1581 1522 
L 1381 1569 
Q 847 1681 609 1914 
Q 372 2147 372 2553 
Q 372 3047 722 3315 
Q 1072 3584 1716 3584 
Q 2034 3584 2315 3537 
Q 2597 3491 2834 3397 
z
" transform="scale(0.015625)"/>
       <path id="DejaVuSans-74" d="M 1172 4494 
L 1172 3500 
L 2356 3500 
L 2356 3053 
L 1172 3053 
L 1172 1153 
Q 1172 725 1289 603 
Q 1406 481 1766 481 
L 2356 481 
L 2356 0 
L 1766 0 
Q 1100 0 847 248 
Q 594 497 594 1153 
L 594 3053 
L 172 3053 
L 172 3500 
L 594 3500 
L 594 4494 
L 1172 4494 
z
" transform="scale(0.015625)"/>
       <path id="DejaVuSans-65" d="M 3597 1894 
L 3597 1613 
L 953 1613 
Q 991 1019 1311 708 
Q 1631 397 2203 397 
Q 2534 397 2845 478 
Q 3156 559 3463 722 
L 3463 178 
Q 3153 47 2828 -22 
Q 2503 -91 2169 -91 
Q 1331 -91 842 396 
Q 353 884 353 1716 
Q 353 2575 817 3079 
Q 1281 3584 2069 3584 
Q 2775 3584 3186 3129 
Q 3597 2675 3597 1894 
z
M 3022 2063 
Q 3016 2534 2758 2815 
Q 2500 3097 2075 3097 
Q 1594 3097 1305 2825 
Q 1016 2553 972 2059 
L 3022 2063 
z
" transform="scale(0.015625)"/>
       <path id="DejaVuSans-70" d="M 1159 525 
L 1159 -1331 
L 581 -1331 
L 581 3500 
L 1159 3500 
L 1159 2969 
Q 1341 3281 1617 3432 
Q 1894 3584 2278 3584 
Q 2916 3584 3314 3078 
Q 3713 2572 3713 1747 
Q 3713 922 3314 415 
Q 2916 -91 2278 -91 
Q 1894 -91 1617 61 
Q 1341 213 1159 525 
z
M 3116 1747 
Q 3116 2381 2855 2742 
Q 2594 3103 2138 3103 
Q 1681 3103 1420 2742 
Q 1159 2381 1159 1747 
Q 1159 1113 1420 752 
Q 1681 391 2138 391 
Q 2594 391 2855 752 
Q 3116 1113 3116 1747 
z
" transform="scale(0.015625)"/>
      </defs>
      <use xlink:href="#DejaVuSans-73"/>
      <use xlink:href="#DejaVuSans-74" x="52.099609"/>
      <use xlink:href="#DejaVuSans-65" x="91.308594"/>
      <use xlink:href="#DejaVuSans-70" x="152.832031"/>
     </g>
    </g>
   </g>
   <g id="matplotlib.axis_2">
    <g id="ytick_1">
     <g id="line2d_9">
      <defs>
       <path id="m601af51656" d="M 0 0 
L -3.5 0 
" style="stroke: #000000; stroke-width: 0.8"/>
      </defs>
      <g>
       <use xlink:href="#m601af51656" x="57.6" y="301.178317" style="stroke: #000000; stroke-width: 0.8"/>
      </g>
     </g>
     <g id="text_10">
      <!-- 0.50 -->
      <g transform="translate(28.334375 304.977535)scale(0.1 -0.1)">
       <defs>
        <path id="DejaVuSans-2e" d="M 684 794 
L 1344 794 
L 1344 0 
L 684 0 
L 684 794 
z
" transform="scale(0.015625)"/>
       </defs>
       <use xlink:href="#DejaVuSans-30"/>
       <use xlink:href="#DejaVuSans-2e" x="63.623047"/>
       <use xlink:href="#DejaVuSans-35" x="95.410156"/>
       <use xlink:href="#DejaVuSans-30" x="159.033203"/>
      </g>
     </g>
    </g>
    <g id="ytick_2">
     <g id="line2d_10">
      <g>
       <use xlink:href="#m601af51656" x="57.6" y="269.472014" style="stroke: #000000; stroke-width: 0.8"/>
      </g>
     </g>
     <g id="text_11">
      <!-- 0.75 -->
      <g transform="translate(28.334375 273.271233)scale(0.1 -0.1)">
       <defs>
        <path id="DejaVuSans-37" d="M 525 4666 
L 3525 4666 
L 3525 4397 
L 1831 0 
L 1172 0 
L 2766 4134 
L 525 4134 
L 525 4666 
z
" transform="scale(0.015625)"/>
       </defs>
       <use xlink:href="#DejaVuSans-30"/>
       <use xlink:href="#DejaVuSans-2e" x="63.623047"/>
       <use xlink:href="#DejaVuSans-37" x="95.410156"/>
       <use xlink:href="#DejaVuSans-35" x="159.033203"/>
      </g>
     </g>
    </g>
    <g id="ytick_3">
     <g id="line2d_11">
      <g>
       <use xlink:href="#m601af51656" x="57.6" y="237.765711" style="stroke: #000000; stroke-width: 0.8"/>
      </g>
     </g>
     <g id="text_12">
      <!-- 1.00 -->
      <g transform="translate(28.334375 241.56493)scale(0.1 -0.1)">
       <use xlink:href="#DejaVuSans-31"/>
       <use xlink:href="#DejaVuSans-2e" x="63.623047"/>
       <use xlink:href="#DejaVuSans-30" x="95.410156"/>
       <use xlink:href="#DejaVuSans-30" x="159.033203"/>
      </g>
     </g>
    </g>
    <g id="ytick_4">
     <g id="line2d_12">
      <g>
       <use xlink:href="#m601af51656" x="57.6" y="206.059408" style="stroke: #000000; stroke-width: 0.8"/>
      </g>
     </g>
     <g id="text_13">
      <!-- 1.25 -->
      <g transform="translate(28.334375 209.858627)scale(0.1 -0.1)">
       <use xlink:href="#DejaVuSans-31"/>
       <use xlink:href="#DejaVuSans-2e" x="63.623047"/>
       <use xlink:href="#DejaVuSans-32" x="95.410156"/>
       <use xlink:href="#DejaVuSans-35" x="159.033203"/>
      </g>
     </g>
    </g>
    <g id="ytick_5">
     <g id="line2d_13">
      <g>
       <use xlink:href="#m601af51656" x="57.6" y="174.353105" style="stroke: #000000; stroke-width: 0.8"/>
      </g>
     </g>
     <g id="text_14">
      <!-- 1.50 -->
      <g transform="translate(28.334375 178.152324)scale(0.1 -0.1)">
       <use xlink:href="#DejaVuSans-31"/>
       <use xlink:href="#DejaVuSans-2e" x="63.623047"/>
       <use xlink:href="#DejaVuSans-35" x="95.410156"/>
       <use xlink:href="#DejaVuSans-30" x="159.033203"/>
      </g>
     </g>
    </g>
    <g id="ytick_6">
     <g id="line2d_14">
      <g>
       <use xlink:href="#m601af51656" x="57.6" y="142.646803" style="stroke: #000000; stroke-width: 0.8"/>
      </g>
     </g>
     <g id="text_15">
      <!-- 1.75 -->
      <g transform="translate(28.334375 146.446021)scale(0.1 -0.1)">
       <use xlink:href="#DejaVuSans-31"/>
       <use xlink:href="#DejaVuSans-2e" x="63.623047"/>
       <use xlink:href="#DejaVuSans-37" x="95.410156"/>
       <use xlink:href="#DejaVuSans-35" x="159.033203"/>
      </g>
     </g>
    </g>
    <g id="ytick_7">
     <g id="line2d_15">
      <g>
       <use xlink:href="#m601af51656" x="57.6" y="110.9405" style="stroke: #000000; stroke-width: 0.8"/>
      </g>
     </g>
     <g id="text_16">
      <!-- 2.00 -->
      <g transform="translate(28.334375 114.739719)scale(0.1 -0.1)">
       <use xlink:href="#DejaVuSans-32"/>
       <use xlink:href="#DejaVuSans-2e" x="63.623047"/>
       <use xlink:href="#DejaVuSans-30" x="95.410156"/>
       <use xlink:href="#DejaVuSans-30" x="159.033203"/>
      </g>
     </g>
    </g>
    <g id="ytick_8">
     <g id="line2d_16">
      <g>
       <use xlink:href="#m601af51656" x="57.6" y="79.234197" style="stroke: #000000; stroke-width: 0.8"/>
      </g>
     </g>
     <g id="text_17">
      <!-- 2.25 -->
      <g transform="translate(28.334375 83.033416)scale(0.1 -0.1)">
       <use xlink:href="#DejaVuSans-32"/>
       <use xlink:href="#DejaVuSans-2e" x="63.623047"/>
       <use xlink:href="#DejaVuSans-32" x="95.410156"/>
       <use xlink:href="#DejaVuSans-35" x="159.033203"/>
      </g>
     </g>
    </g>
    <g id="ytick_9">
     <g id="line2d_17">
      <g>
       <use xlink:href="#m601af51656" x="57.6" y="47.527894" style="stroke: #000000; stroke-width: 0.8"/>
      </g>
     </g>
     <g id="text_18">
      <!-- 2.50 -->
      <g transform="translate(28.334375 51.327113)scale(0.1 -0.1)">
       <use xlink:href="#DejaVuSans-32"/>
       <use xlink:href="#DejaVuSans-2e" x="63.623047"/>
       <use xlink:href="#DejaVuSans-35" x="95.410156"/>
       <use xlink:href="#DejaVuSans-30" x="159.033203"/>
      </g>
     </g>
    </g>
    <g id="text_19">
     <!-- cross-entropy loss -->
     <g transform="translate(22.254687 219.881125)rotate(-90)scale(0.1 -0.1)">
      <defs>
       <path id="DejaVuSans-63" d="M 3122 3366 
L 3122 2828 
Q 2878 2963 2633 3030 
Q 2388 3097 2138 3097 
Q 1578 3097 1268 2742 
Q 959 2388 959 1747 
Q 959 1106 1268 751 
Q 1578 397 2138 397 
Q 2388 397 2633 464 
Q 2878 531 3122 666 
L 3122 134 
Q 2881 22 2623 -34 
Q 2366 -91 2075 -91 
Q 1284 -91 818 406 
Q 353 903 353 1747 
Q 353 2603 823 3093 
Q 1294 3584 2113 3584 
Q 2378 3584 2631 3529 
Q 2884 3475 3122 3366 
z
" transform="scale(0.015625)"/>
       <path id="DejaVuSans-72" d="M 2631 2963 
Q 2534 3019 2420 3045 
Q 2306 3072 2169 3072 
Q 1681 3072 1420 2755 
Q 1159 2438 1159 1844 
L 1159 0 
L 581 0 
L 581 3500 
L 1159 3500 
L 1159 2956 
Q 1341 3275 1631 3429 
Q 1922 3584 2338 3584 
Q 2397 3584 2469 3576 
Q 2541 3569 2628 3553 
L 2631 2963 
z
" transform="scale(0.015625)"/>
       <path id="DejaVuSans-6f" d="M 1959 3097 
Q 1497 3097 1228 2736 
Q 959 2375 959 1747 
Q 959 1119 1226 758 
Q 1494 397 1959 397 
Q 2419 397 2687 759 
Q 2956 1122 2956 1747 
Q 2956 2369 2687 2733 
Q 2419 3097 1959 3097 
z
M 1959 3584 
Q 2709 3584 3137 3096 
Q 3566 2609 3566 1747 
Q 3566 888 3137 398 
Q 2709 -91 1959 -91 
Q 1206 -91 779 398 
Q 353 888 353 1747 
Q 353 2609 779 3096 
Q 1206 3584 1959 3584 
z
" transform="scale(0.015625)"/>
       <path id="DejaVuSans-2d" d="M 313 2009 
L 1997 2009 
L 1997 1497 
L 313 1497 
L 313 2009 
z
" transform="scale(0.015625)"/>
       <path id="DejaVuSans-6e" d="M 3513 2113 
L 3513 0 
L 2938 0 
L 2938 2094 
Q 2938 2591 2744 2837 
Q 2550 3084 2163 3084 
Q 1697 3084 1428 2787 
Q 1159 2491 1159 1978 
L 1159 0 
L 581 0 
L 581 3500 
L 1159 3500 
L 1159 2956 
Q 1366 3272 1645 3428 
Q 1925 3584 2291 3584 
Q 2894 3584 3203 3211 
Q 3513 2838 3513 2113 
z
" transform="scale(0.015625)"/>
       <path id="DejaVuSans-79" d="M 2059 -325 
Q 1816 -950 1584 -1140 
Q 1353 -1331 966 -1331 
L 506 -1331 
L 506 -850 
L 844 -850 
Q 1081 -850 1212 -737 
Q 1344 -625 1503 -206 
L 1606 56 
L 191 3500 
L 800 3500 
L 1894 763 
L 2988 3500 
L 3597 3500 
L 2059 -325 
z
" transform="scale(0.015625)"/>
       <path id="DejaVuSans-20" transform="scale(0.015625)"/>
       <path id="DejaVuSans-6c" d="M 603 4863 
L 1178 4863 
L 1178 0 
L 603 0 
L 603 4863 
z
" transform="scale(0.015625)"/>
      </defs>
      <use xlink:href="#DejaVuSans-63"/>
      <use xlink:href="#DejaVuSans-72" x="54.980469"/>
      <use xlink:href="#DejaVuSans-6f" x="93.84375"/>
      <use xlink:href="#DejaVuSans-73" x="155.025391"/>
      <use xlink:href="#DejaVuSans-73" x="207.125"/>
      <use xlink:href="#DejaVuSans-2d" x="259.224609"/>
      <use xlink:href="#DejaVuSans-65" x="295.308594"/>
      <use xlink:href="#DejaVuSans-6e" x="356.832031"/>
      <use xlink:href="#DejaVuSans-74" x="420.210938"/>
      <use xlink:href="#DejaVuSans-72" x="459.419922"/>
      <use xlink:href="#DejaVuSans-6f" x="498.283203"/>
      <use xlink:href="#DejaVuSans-70" x="559.464844"/>
      <use xlink:href="#DejaVuSans-79" x="622.941406"/>
      <use xlink:href="#DejaVuSans-20" x="682.121094"/>
      <use xlink:href="#DejaVuSans-6c" x="713.908203"/>
      <use xlink:href="#DejaVuSans-6f" x="741.691406"/>
      <use xlink:href="#DejaVuSans-73" x="802.873047"/>
      <use xlink:href="#DejaVuSans-73" x="854.972656"/>
     </g>
    </g>
   </g>
   <g id="line2d_18">
    <path d="M 73.832727 59.056662 
L 74.483338 90.415823 
L 75.133948 53.568 
L 75.784558 108.569187 
L 76.435169 106.771587 
L 77.085779 89.090896 
L 77.736389 150.608839 
L 78.386999 116.047405 
L 79.03761 127.773544 
L 79.68822 96.308881 
L 80.33883 151.775753 
L 80.989441 134.797531 
L 81.640051 138.898166 
L 82.290661 154.986724 
L 82.941272 152.312032 
L 83.591882 143.63243 
L 84.893103 157.635553 
L 85.543713 146.618279 
L 86.194323 117.532486 
L 86.844934 147.200645 
L 87.495544 139.495635 
L 88.146154 166.579693 
L 88.796764 120.554121 
L 89.447375 159.489717 
L 90.097985 155.897927 
L 91.399206 170.284957 
L 92.049816 157.877379 
L 92.700426 124.668944 
L 93.351037 175.106821 
L 94.001647 192.727131 
L 94.652257 115.631897 
L 95.302868 196.970175 
L 95.953478 136.41125 
L 96.604088 155.096994 
L 97.254698 146.058718 
L 97.905309 192.606645 
L 98.555919 173.894682 
L 99.206529 144.403788 
L 99.85714 182.003727 
L 100.50775 143.958346 
L 101.15836 178.102958 
L 101.808971 167.657878 
L 102.459581 161.524828 
L 103.110191 170.533746 
L 103.760802 114.081766 
L 104.411412 207.486872 
L 105.062022 196.45393 
L 105.712633 169.886913 
L 106.363243 153.374511 
L 107.013853 92.574864 
L 107.664463 160.38275 
L 108.315074 195.590854 
L 108.965684 178.023774 
L 109.616294 155.333081 
L 110.266905 172.592371 
L 110.917515 171.071281 
L 111.568125 183.103341 
L 112.218736 142.026001 
L 112.869346 179.797813 
L 113.519956 169.853973 
L 114.170567 174.088067 
L 114.821177 174.316912 
L 115.471787 162.342132 
L 116.122398 188.742256 
L 116.773008 204.164626 
L 117.423618 188.499652 
L 118.074228 184.130959 
L 118.724839 219.177828 
L 119.375449 178.565432 
L 120.026059 164.664499 
L 120.67667 182.012051 
L 121.32728 203.228394 
L 121.97789 197.268633 
L 123.279111 140.72579 
L 123.929721 202.013727 
L 124.580332 164.287731 
L 125.230942 206.217944 
L 125.881552 213.968568 
L 126.532163 191.947256 
L 127.182773 197.820546 
L 127.833383 201.997794 
L 128.483993 187.879741 
L 129.134604 176.315563 
L 129.785214 215.753705 
L 130.435824 168.59915 
L 131.086435 188.976804 
L 131.737045 160.392655 
L 132.387655 168.035473 
L 133.038266 183.649029 
L 133.688876 157.985374 
L 134.339486 166.218593 
L 134.990097 216.093801 
L 135.640707 189.392578 
L 136.291317 202.07531 
L 136.941927 202.926576 
L 137.592538 197.064064 
L 138.243148 179.197782 
L 138.893758 178.972829 
L 139.544369 202.928909 
L 140.194979 177.23725 
L 140.845589 195.328333 
L 141.4962 179.178592 
L 142.14681 202.095609 
L 142.79742 175.921466 
L 143.448031 166.793116 
L 144.098641 181.335924 
L 144.749251 216.433518 
L 145.399862 204.42061 
L 146.050472 203.493142 
L 146.701082 179.301385 
L 147.351692 205.911495 
L 148.652913 169.713797 
L 149.303523 230.975036 
L 149.954134 208.886563 
L 150.604744 207.168801 
L 151.255354 202.231495 
L 151.905965 202.300481 
L 152.556575 221.839388 
L 153.207185 234.508852 
L 153.857796 204.850023 
L 154.508406 221.331188 
L 155.159016 189.620149 
L 155.809627 230.320818 
L 156.460237 209.557281 
L 157.761457 223.760877 
L 158.412068 223.905889 
L 159.062678 236.652238 
L 159.713288 226.391789 
L 160.363899 208.525235 
L 161.014509 247.755714 
L 161.665119 236.883826 
L 162.31573 213.135104 
L 162.96634 202.733347 
L 163.61695 223.264443 
L 164.267561 235.111338 
L 164.918171 175.763715 
L 165.568781 245.366143 
L 166.219392 240.007933 
L 166.870002 222.170488 
L 167.520612 239.043295 
L 168.171222 266.481006 
L 168.821833 242.573445 
L 169.472443 253.831493 
L 170.123053 195.939509 
L 170.773664 237.254723 
L 171.424274 219.141037 
L 172.074884 244.849237 
L 172.725495 197.889854 
L 173.376105 227.246173 
L 174.026715 238.223654 
L 174.677326 213.755507 
L 175.327936 232.382185 
L 175.978546 203.181925 
L 176.629156 261.544477 
L 177.279767 226.699012 
L 177.930377 222.00597 
L 178.580987 243.309362 
L 179.231598 251.894303 
L 180.532818 216.272512 
L 181.183429 218.847221 
L 181.834039 247.20443 
L 182.484649 238.261615 
L 183.13526 234.039791 
L 183.78587 226.607665 
L 184.43648 211.749182 
L 185.087091 240.560818 
L 185.737701 230.093898 
L 186.388311 233.539638 
L 187.038921 235.902436 
L 187.689532 217.513398 
L 188.340142 257.971789 
L 188.990752 223.355161 
L 189.641363 254.532874 
L 190.291973 224.822461 
L 190.942583 253.256254 
L 191.593194 244.626402 
L 192.243804 232.486699 
L 192.894414 229.67742 
L 193.545025 254.738282 
L 194.846245 198.896048 
L 195.496856 270.482458 
L 196.147466 244.706681 
L 196.798076 245.85789 
L 197.448686 234.669209 
L 198.099297 244.5989 
L 198.749907 233.314471 
L 199.400517 240.10982 
L 200.051128 248.363083 
L 200.701738 222.552851 
L 201.352348 231.651229 
L 202.002959 253.075255 
L 202.653569 206.248793 
L 203.304179 255.081222 
L 203.95479 226.790826 
L 204.6054 240.797271 
L 205.25601 266.118547 
L 205.906621 222.314521 
L 206.557231 235.258995 
L 207.207841 209.4282 
L 207.858451 245.44732 
L 208.509062 240.528069 
L 209.159672 279.350791 
L 209.810282 251.141782 
L 210.460893 211.793916 
L 211.111503 256.938799 
L 211.762113 198.189625 
L 212.412724 269.108955 
L 213.063334 239.595334 
L 213.713944 242.169681 
L 214.364555 238.907069 
L 215.015165 240.595428 
L 215.665775 199.005489 
L 216.316385 234.276959 
L 216.966996 229.852542 
L 217.617606 264.682824 
L 218.268216 191.134738 
L 218.918827 239.457136 
L 219.569437 234.454286 
L 220.220047 223.797281 
L 220.870658 258.435231 
L 221.521268 205.035645 
L 222.171878 219.853169 
L 222.822489 227.324602 
L 223.473099 212.303901 
L 224.123709 213.185844 
L 224.77432 268.182571 
L 225.42493 224.785518 
L 226.07554 244.143337 
L 226.72615 259.556574 
L 227.376761 233.772099 
L 228.027371 232.301004 
L 228.677981 254.290699 
L 229.328592 250.371845 
L 229.979202 243.601245 
L 230.629812 247.937121 
L 231.280423 242.420714 
L 231.931033 248.844929 
L 232.581643 212.657915 
L 233.232254 216.566482 
L 233.882864 243.999171 
L 234.533474 207.028578 
L 235.184085 278.907143 
L 235.834695 205.183773 
L 236.485305 269.372677 
L 237.135915 232.774605 
L 237.786526 276.280636 
L 238.437136 200.792238 
L 239.087746 259.433634 
L 239.738357 280.652348 
L 240.388967 217.101106 
L 241.690188 237.970272 
L 242.340798 256.890122 
L 242.991408 252.235231 
L 243.642019 239.848654 
L 244.292629 240.914742 
L 244.943239 215.410881 
L 245.59385 252.405778 
L 246.24446 269.306153 
L 246.89507 207.142145 
L 247.54568 164.50646 
L 248.196291 254.908676 
L 248.846901 243.840152 
L 249.497511 259.444092 
L 250.148122 237.189297 
L 250.798732 209.520057 
L 251.449342 295.488 
L 252.099953 194.80367 
L 252.750563 259.165559 
L 253.401173 173.419657 
L 254.051784 265.124856 
L 254.702394 242.427812 
L 255.353004 245.883657 
L 256.003615 239.282588 
L 256.654225 248.411899 
L 257.304835 252.326398 
L 257.955445 218.358165 
L 258.606056 240.31653 
L 259.256666 195.511416 
L 259.907276 232.286667 
L 260.557887 242.909357 
L 261.208497 217.913799 
L 262.509718 283.727991 
L 263.160328 229.267988 
L 263.810938 247.224159 
L 264.461549 241.464917 
L 265.112159 255.19534 
L 265.762769 195.598368 
L 266.413379 255.155167 
L 267.06399 219.078555 
L 267.7146 266.490229 
L 268.36521 246.031614 
L 269.015821 279.085386 
L 269.666431 272.918561 
L 270.317041 233.92004 
L 270.967652 225.02745 
L 271.618262 240.710252 
L 272.268872 244.438659 
L 272.919483 266.038138 
L 273.570093 224.567554 
L 274.220703 242.388283 
L 274.871314 215.136739 
L 275.521924 253.154469 
L 276.172534 251.061863 
L 276.823144 208.335191 
L 277.473755 250.116821 
L 278.124365 207.396889 
L 278.774975 271.337487 
L 279.425586 220.797663 
L 280.076196 217.977485 
L 280.726806 221.848482 
L 281.377417 221.605147 
L 282.028027 254.805294 
L 282.678637 229.577193 
L 283.329248 239.487265 
L 283.979858 235.336781 
L 284.630468 244.935114 
L 285.281079 248.622027 
L 285.931689 244.507742 
L 286.582299 225.673349 
L 287.232909 235.43957 
L 287.88352 231.297042 
L 288.53413 245.341721 
L 289.18474 249.208218 
L 289.835351 245.41709 
L 290.485961 274.675907 
L 291.136571 255.090795 
L 292.437792 242.626893 
L 293.088402 234.578402 
L 293.739013 221.842778 
L 294.389623 262.774423 
L 295.040233 254.216841 
L 295.690844 231.330724 
L 296.341454 222.064279 
L 296.992064 215.346627 
L 297.642674 229.822509 
L 298.293285 239.423522 
L 298.943895 184.753848 
L 299.594505 258.172619 
L 300.245116 210.338863 
L 300.895726 242.527127 
L 301.546336 254.450893 
L 302.196947 271.961739 
L 302.847557 233.170843 
L 303.498167 248.312882 
L 304.148778 247.952396 
L 304.799388 245.897052 
L 305.449998 264.938824 
L 306.100608 212.324753 
L 306.751219 262.576031 
L 307.401829 220.481493 
L 308.052439 206.571426 
L 308.70305 278.35362 
L 309.35366 239.94379 
L 310.00427 230.281655 
L 310.654881 253.868685 
L 311.305491 247.516974 
L 311.956101 246.095191 
L 312.606712 170.829457 
L 313.257322 216.875119 
L 313.907932 222.093153 
L 314.558543 164.921341 
L 315.209153 172.420411 
L 315.859763 174.960996 
L 316.510373 192.996309 
L 317.160984 221.976052 
L 317.811594 182.208968 
L 318.462204 238.007944 
L 319.112815 209.986109 
L 319.763425 231.683086 
L 320.414035 197.087682 
L 321.064646 217.606319 
L 321.715256 204.64129 
L 322.365866 165.640586 
L 323.016477 171.894127 
L 323.667087 208.914936 
L 324.317697 225.33041 
L 324.968308 234.69252 
L 325.618918 227.24559 
L 326.269528 174.585163 
L 326.920138 199.255919 
L 328.221359 188.487018 
L 328.871969 204.085859 
L 329.52258 234.943471 
L 330.17319 203.528138 
L 330.8238 232.964292 
L 332.125021 196.552734 
L 332.775631 231.631006 
L 333.426242 177.240474 
L 334.076852 261.207613 
L 334.727462 246.478524 
L 335.378073 212.874597 
L 336.028683 219.470361 
L 336.679293 269.23259 
L 337.329903 241.262452 
L 337.980514 257.417611 
L 338.631124 218.325911 
L 339.281734 221.735079 
L 339.932345 212.760673 
L 340.582955 179.853443 
L 341.233565 228.299415 
L 341.884176 217.504381 
L 342.534786 199.730717 
L 343.185396 207.026538 
L 343.836007 242.971669 
L 344.486617 207.011696 
L 345.137227 224.703246 
L 345.787837 206.085199 
L 346.438448 207.026169 
L 347.089058 210.463865 
L 347.739668 198.790225 
L 348.390279 192.011919 
L 349.040889 215.397919 
L 349.691499 213.243826 
L 350.34211 211.709743 
L 350.99272 188.848003 
L 351.64333 232.825285 
L 352.293941 233.585434 
L 352.944551 218.490002 
L 353.595161 188.631334 
L 354.245772 233.946434 
L 354.896382 210.770678 
L 355.546992 218.184584 
L 356.197602 246.379515 
L 356.848213 164.871461 
L 357.498823 195.654 
L 358.149433 234.752326 
L 358.800044 210.246071 
L 359.450654 211.228142 
L 360.101264 242.13365 
L 360.751875 201.109845 
L 361.402485 218.486002 
L 362.053095 248.659854 
L 362.703706 230.738585 
L 363.354316 197.551087 
L 364.004926 254.426718 
L 364.655537 205.276174 
L 365.306147 184.71082 
L 365.956757 238.056365 
L 366.607367 202.041507 
L 367.257978 222.68495 
L 367.908588 198.99083 
L 368.559198 247.842154 
L 369.209809 231.267577 
L 369.860419 231.728705 
L 370.511029 238.634809 
L 371.16164 202.332659 
L 371.81225 231.388258 
L 372.46286 249.125183 
L 373.113471 204.76336 
L 373.764081 220.241553 
L 374.414691 222.088412 
L 375.065302 232.675106 
L 375.715912 224.532942 
L 376.366522 227.17772 
L 377.017132 218.621586 
L 377.667743 184.861264 
L 378.318353 229.210488 
L 378.968963 205.26524 
L 379.619574 236.159244 
L 380.270184 215.408494 
L 380.920794 269.471304 
L 381.571405 246.861488 
L 382.222015 195.327983 
L 382.872625 206.65641 
L 383.523236 222.436906 
L 384.173846 189.694464 
L 384.824456 235.057801 
L 385.475066 211.560482 
L 386.125677 174.415076 
L 386.776287 227.631866 
L 387.426897 201.024827 
L 388.077508 230.986945 
L 388.728118 217.083437 
L 389.378728 208.064674 
L 390.029339 247.61295 
L 390.679949 206.237431 
L 391.330559 210.712811 
L 391.98117 248.100738 
L 392.63178 237.516625 
L 393.28239 231.435355 
L 393.933001 255.55634 
L 394.583611 229.5606 
L 395.234221 230.167513 
L 395.884831 218.058885 
L 396.535442 219.151292 
L 397.186052 247.855604 
L 397.836662 220.532381 
L 398.487273 254.968172 
L 398.487273 254.968172 
" clip-path="url(#p8784f75d8a)" style="fill: none; stroke: #ff4500; stroke-width: 1.5; stroke-linecap: square"/>
   </g>
   <g id="patch_3">
    <path d="M 57.6 307.584 
L 57.6 41.472 
" style="fill: none; stroke: #000000; stroke-width: 0.8; stroke-linejoin: miter; stroke-linecap: square"/>
   </g>
   <g id="patch_4">
    <path d="M 414.72 307.584 
L 414.72 41.472 
" style="fill: none; stroke: #000000; stroke-width: 0.8; stroke-linejoin: miter; stroke-linecap: square"/>
   </g>
   <g id="patch_5">
    <path d="M 57.6 307.584 
L 414.72 307.584 
" style="fill: none; stroke: #000000; stroke-width: 0.8; stroke-linejoin: miter; stroke-linecap: square"/>
   </g>
   <g id="patch_6">
    <path d="M 57.6 41.472 
L 414.72 41.472 
" style="fill: none; stroke: #000000; stroke-width: 0.8; stroke-linejoin: miter; stroke-linecap: square"/>
   </g>
   <g id="text_20">
    <!-- Train Loss -->
    <g transform="translate(193.72875 26.472)scale(0.15 -0.15)">
     <defs>
      <path id="DejaVuSans-Bold-54" d="M 31 4666 
L 4331 4666 
L 4331 3756 
L 2784 3756 
L 2784 0 
L 1581 0 
L 1581 3756 
L 31 3756 
L 31 4666 
z
" transform="scale(0.015625)"/>
      <path id="DejaVuSans-Bold-72" d="M 3138 2547 
Q 2991 2616 2845 2648 
Q 2700 2681 2553 2681 
Q 2122 2681 1889 2404 
Q 1656 2128 1656 1613 
L 1656 0 
L 538 0 
L 538 3500 
L 1656 3500 
L 1656 2925 
Q 1872 3269 2151 3426 
Q 2431 3584 2822 3584 
Q 2878 3584 2943 3579 
Q 3009 3575 3134 3559 
L 3138 2547 
z
" transform="scale(0.015625)"/>
      <path id="DejaVuSans-Bold-61" d="M 2106 1575 
Q 1756 1575 1579 1456 
Q 1403 1338 1403 1106 
Q 1403 894 1545 773 
Q 1688 653 1941 653 
Q 2256 653 2472 879 
Q 2688 1106 2688 1447 
L 2688 1575 
L 2106 1575 
z
M 3816 1997 
L 3816 0 
L 2688 0 
L 2688 519 
Q 2463 200 2181 54 
Q 1900 -91 1497 -91 
Q 953 -91 614 226 
Q 275 544 275 1050 
Q 275 1666 698 1953 
Q 1122 2241 2028 2241 
L 2688 2241 
L 2688 2328 
Q 2688 2594 2478 2717 
Q 2269 2841 1825 2841 
Q 1466 2841 1156 2769 
Q 847 2697 581 2553 
L 581 3406 
Q 941 3494 1303 3539 
Q 1666 3584 2028 3584 
Q 2975 3584 3395 3211 
Q 3816 2838 3816 1997 
z
" transform="scale(0.015625)"/>
      <path id="DejaVuSans-Bold-69" d="M 538 3500 
L 1656 3500 
L 1656 0 
L 538 0 
L 538 3500 
z
M 538 4863 
L 1656 4863 
L 1656 3950 
L 538 3950 
L 538 4863 
z
" transform="scale(0.015625)"/>
      <path id="DejaVuSans-Bold-6e" d="M 4056 2131 
L 4056 0 
L 2931 0 
L 2931 347 
L 2931 1631 
Q 2931 2084 2911 2256 
Q 2891 2428 2841 2509 
Q 2775 2619 2662 2680 
Q 2550 2741 2406 2741 
Q 2056 2741 1856 2470 
Q 1656 2200 1656 1722 
L 1656 0 
L 538 0 
L 538 3500 
L 1656 3500 
L 1656 2988 
Q 1909 3294 2193 3439 
Q 2478 3584 2822 3584 
Q 3428 3584 3742 3212 
Q 4056 2841 4056 2131 
z
" transform="scale(0.015625)"/>
      <path id="DejaVuSans-Bold-20" transform="scale(0.015625)"/>
      <path id="DejaVuSans-Bold-4c" d="M 588 4666 
L 1791 4666 
L 1791 909 
L 3903 909 
L 3903 0 
L 588 0 
L 588 4666 
z
" transform="scale(0.015625)"/>
      <path id="DejaVuSans-Bold-6f" d="M 2203 2784 
Q 1831 2784 1636 2517 
Q 1441 2250 1441 1747 
Q 1441 1244 1636 976 
Q 1831 709 2203 709 
Q 2569 709 2762 976 
Q 2956 1244 2956 1747 
Q 2956 2250 2762 2517 
Q 2569 2784 2203 2784 
z
M 2203 3584 
Q 3106 3584 3614 3096 
Q 4122 2609 4122 1747 
Q 4122 884 3614 396 
Q 3106 -91 2203 -91 
Q 1297 -91 786 396 
Q 275 884 275 1747 
Q 275 2609 786 3096 
Q 1297 3584 2203 3584 
z
" transform="scale(0.015625)"/>
      <path id="DejaVuSans-Bold-73" d="M 3272 3391 
L 3272 2541 
Q 2913 2691 2578 2766 
Q 2244 2841 1947 2841 
Q 1628 2841 1473 2761 
Q 1319 2681 1319 2516 
Q 1319 2381 1436 2309 
Q 1553 2238 1856 2203 
L 2053 2175 
Q 2913 2066 3209 1816 
Q 3506 1566 3506 1031 
Q 3506 472 3093 190 
Q 2681 -91 1863 -91 
Q 1516 -91 1145 -36 
Q 775 19 384 128 
L 384 978 
Q 719 816 1070 734 
Q 1422 653 1784 653 
Q 2113 653 2278 743 
Q 2444 834 2444 1013 
Q 2444 1163 2330 1236 
Q 2216 1309 1875 1350 
L 1678 1375 
Q 931 1469 631 1722 
Q 331 1975 331 2491 
Q 331 3047 712 3315 
Q 1094 3584 1881 3584 
Q 2191 3584 2531 3537 
Q 2872 3491 3272 3391 
z
" transform="scale(0.015625)"/>
     </defs>
     <use xlink:href="#DejaVuSans-Bold-54"/>
     <use xlink:href="#DejaVuSans-Bold-72" x="57.212891"/>
     <use xlink:href="#DejaVuSans-Bold-61" x="106.529297"/>
     <use xlink:href="#DejaVuSans-Bold-69" x="174.009766"/>
     <use xlink:href="#DejaVuSans-Bold-6e" x="208.287109"/>
     <use xlink:href="#DejaVuSans-Bold-20" x="279.478516"/>
     <use xlink:href="#DejaVuSans-Bold-4c" x="314.292969"/>
     <use xlink:href="#DejaVuSans-Bold-6f" x="378.013672"/>
     <use xlink:href="#DejaVuSans-Bold-73" x="446.714844"/>
     <use xlink:href="#DejaVuSans-Bold-73" x="506.236328"/>
    </g>
   </g>
  </g>
 </g>
 <defs>
  <clipPath id="p8784f75d8a">
   <rect x="57.6" y="41.472" width="357.12" height="266.112"/>
  </clipPath>
 </defs>
</svg>
