<?xml version="1.0" encoding="utf-8" standalone="no"?>
<!DOCTYPE svg PUBLIC "-//W3C//DTD SVG 1.1//EN"
  "http://www.w3.org/Graphics/SVG/1.1/DTD/svg11.dtd">
<svg xmlns:xlink="http://www.w3.org/1999/xlink" width="460.8pt" height="345.6pt" viewBox="0 0 460.8 345.6" xmlns="http://www.w3.org/2000/svg" version="1.1">
 <metadata>
  <rdf:RDF xmlns:dc="http://purl.org/dc/elements/1.1/" xmlns:cc="http://creativecommons.org/ns#" xmlns:rdf="http://www.w3.org/1999/02/22-rdf-syntax-ns#">
   <cc:Work>
    <dc:type rdf:resource="http://purl.org/dc/dcmitype/StillImage"/>
    <dc:date>2023-12-10T13:35:01.646648</dc:date>
    <dc:format>image/svg+xml</dc:format>
    <dc:creator>
     <cc:Agent>
      <dc:title>Matplotlib v3.5.3, https://matplotlib.org/</dc:title>
     </cc:Agent>
    </dc:creator>
   </cc:Work>
  </rdf:RDF>
 </metadata>
 <defs>
  <style type="text/css">*{stroke-linejoin: round; stroke-linecap: butt}</style>
 </defs>
 <g id="figure_1">
  <g id="patch_1">
   <path d="M 0 345.6 
L 460.8 345.6 
L 460.8 0 
L 0 0 
z
" style="fill: #ffffff"/>
  </g>
  <g id="axes_1">
   <g id="patch_2">
    <path d="M 57.6 307.584 
L 414.72 307.584 
L 414.72 41.472 
L 57.6 41.472 
z
" style="fill: #ffffff"/>
   </g>
   <g id="matplotlib.axis_1">
    <g id="xtick_1">
     <g id="line2d_1">
      <defs>
       <path id="m774b8c9008" d="M 0 0 
L 0 3.5 
" style="stroke: #000000; stroke-width: 0.8"/>
      </defs>
      <g>
       <use xlink:href="#m774b8c9008" x="73.379519" y="307.584" style="stroke: #000000; stroke-width: 0.8"/>
      </g>
     </g>
     <g id="text_1">
      <!-- 0 -->
      <g transform="translate(70.198269 322.182437)scale(0.1 -0.1)">
       <defs>
        <path id="DejaVuSans-30" d="M 2034 4250 
Q 1547 4250 1301 3770 
Q 1056 3291 1056 2328 
Q 1056 1369 1301 889 
Q 1547 409 2034 409 
Q 2525 409 2770 889 
Q 3016 1369 3016 2328 
Q 3016 3291 2770 3770 
Q 2525 4250 2034 4250 
z
M 2034 4750 
Q 2819 4750 3233 4129 
Q 3647 3509 3647 2328 
Q 3647 1150 3233 529 
Q 2819 -91 2034 -91 
Q 1250 -91 836 529 
Q 422 1150 422 2328 
Q 422 3509 836 4129 
Q 1250 4750 2034 4750 
z
" transform="scale(0.015625)"/>
       </defs>
       <use xlink:href="#DejaVuSans-30"/>
      </g>
     </g>
    </g>
    <g id="xtick_2">
     <g id="line2d_2">
      <g>
       <use xlink:href="#m774b8c9008" x="119.625287" y="307.584" style="stroke: #000000; stroke-width: 0.8"/>
      </g>
     </g>
     <g id="text_2">
      <!-- 5000 -->
      <g transform="translate(106.900287 322.182437)scale(0.1 -0.1)">
       <defs>
        <path id="DejaVuSans-35" d="M 691 4666 
L 3169 4666 
L 3169 4134 
L 1269 4134 
L 1269 2991 
Q 1406 3038 1543 3061 
Q 1681 3084 1819 3084 
Q 2600 3084 3056 2656 
Q 3513 2228 3513 1497 
Q 3513 744 3044 326 
Q 2575 -91 1722 -91 
Q 1428 -91 1123 -41 
Q 819 9 494 109 
L 494 744 
Q 775 591 1075 516 
Q 1375 441 1709 441 
Q 2250 441 2565 725 
Q 2881 1009 2881 1497 
Q 2881 1984 2565 2268 
Q 2250 2553 1709 2553 
Q 1456 2553 1204 2497 
Q 953 2441 691 2322 
L 691 4666 
z
" transform="scale(0.015625)"/>
       </defs>
       <use xlink:href="#DejaVuSans-35"/>
       <use xlink:href="#DejaVuSans-30" x="63.623047"/>
       <use xlink:href="#DejaVuSans-30" x="127.246094"/>
       <use xlink:href="#DejaVuSans-30" x="190.869141"/>
      </g>
     </g>
    </g>
    <g id="xtick_3">
     <g id="line2d_3">
      <g>
       <use xlink:href="#m774b8c9008" x="165.871056" y="307.584" style="stroke: #000000; stroke-width: 0.8"/>
      </g>
     </g>
     <g id="text_3">
      <!-- 10000 -->
      <g transform="translate(149.964806 322.182437)scale(0.1 -0.1)">
       <defs>
        <path id="DejaVuSans-31" d="M 794 531 
L 1825 531 
L 1825 4091 
L 703 3866 
L 703 4441 
L 1819 4666 
L 2450 4666 
L 2450 531 
L 3481 531 
L 3481 0 
L 794 0 
L 794 531 
z
" transform="scale(0.015625)"/>
       </defs>
       <use xlink:href="#DejaVuSans-31"/>
       <use xlink:href="#DejaVuSans-30" x="63.623047"/>
       <use xlink:href="#DejaVuSans-30" x="127.246094"/>
       <use xlink:href="#DejaVuSans-30" x="190.869141"/>
       <use xlink:href="#DejaVuSans-30" x="254.492188"/>
      </g>
     </g>
    </g>
    <g id="xtick_4">
     <g id="line2d_4">
      <g>
       <use xlink:href="#m774b8c9008" x="212.116825" y="307.584" style="stroke: #000000; stroke-width: 0.8"/>
      </g>
     </g>
     <g id="text_4">
      <!-- 15000 -->
      <g transform="translate(196.210575 322.182437)scale(0.1 -0.1)">
       <use xlink:href="#DejaVuSans-31"/>
       <use xlink:href="#DejaVuSans-35" x="63.623047"/>
       <use xlink:href="#DejaVuSans-30" x="127.246094"/>
       <use xlink:href="#DejaVuSans-30" x="190.869141"/>
       <use xlink:href="#DejaVuSans-30" x="254.492188"/>
      </g>
     </g>
    </g>
    <g id="xtick_5">
     <g id="line2d_5">
      <g>
       <use xlink:href="#m774b8c9008" x="258.362594" y="307.584" style="stroke: #000000; stroke-width: 0.8"/>
      </g>
     </g>
     <g id="text_5">
      <!-- 20000 -->
      <g transform="translate(242.456344 322.182437)scale(0.1 -0.1)">
       <defs>
        <path id="DejaVuSans-32" d="M 1228 531 
L 3431 531 
L 3431 0 
L 469 0 
L 469 531 
Q 828 903 1448 1529 
Q 2069 2156 2228 2338 
Q 2531 2678 2651 2914 
Q 2772 3150 2772 3378 
Q 2772 3750 2511 3984 
Q 2250 4219 1831 4219 
Q 1534 4219 1204 4116 
Q 875 4013 500 3803 
L 500 4441 
Q 881 4594 1212 4672 
Q 1544 4750 1819 4750 
Q 2544 4750 2975 4387 
Q 3406 4025 3406 3419 
Q 3406 3131 3298 2873 
Q 3191 2616 2906 2266 
Q 2828 2175 2409 1742 
Q 1991 1309 1228 531 
z
" transform="scale(0.015625)"/>
       </defs>
       <use xlink:href="#DejaVuSans-32"/>
       <use xlink:href="#DejaVuSans-30" x="63.623047"/>
       <use xlink:href="#DejaVuSans-30" x="127.246094"/>
       <use xlink:href="#DejaVuSans-30" x="190.869141"/>
       <use xlink:href="#DejaVuSans-30" x="254.492188"/>
      </g>
     </g>
    </g>
    <g id="xtick_6">
     <g id="line2d_6">
      <g>
       <use xlink:href="#m774b8c9008" x="304.608362" y="307.584" style="stroke: #000000; stroke-width: 0.8"/>
      </g>
     </g>
     <g id="text_6">
      <!-- 25000 -->
      <g transform="translate(288.702112 322.182437)scale(0.1 -0.1)">
       <use xlink:href="#DejaVuSans-32"/>
       <use xlink:href="#DejaVuSans-35" x="63.623047"/>
       <use xlink:href="#DejaVuSans-30" x="127.246094"/>
       <use xlink:href="#DejaVuSans-30" x="190.869141"/>
       <use xlink:href="#DejaVuSans-30" x="254.492188"/>
      </g>
     </g>
    </g>
    <g id="xtick_7">
     <g id="line2d_7">
      <g>
       <use xlink:href="#m774b8c9008" x="350.854131" y="307.584" style="stroke: #000000; stroke-width: 0.8"/>
      </g>
     </g>
     <g id="text_7">
      <!-- 30000 -->
      <g transform="translate(334.947881 322.182437)scale(0.1 -0.1)">
       <defs>
        <path id="DejaVuSans-33" d="M 2597 2516 
Q 3050 2419 3304 2112 
Q 3559 1806 3559 1356 
Q 3559 666 3084 287 
Q 2609 -91 1734 -91 
Q 1441 -91 1130 -33 
Q 819 25 488 141 
L 488 750 
Q 750 597 1062 519 
Q 1375 441 1716 441 
Q 2309 441 2620 675 
Q 2931 909 2931 1356 
Q 2931 1769 2642 2001 
Q 2353 2234 1838 2234 
L 1294 2234 
L 1294 2753 
L 1863 2753 
Q 2328 2753 2575 2939 
Q 2822 3125 2822 3475 
Q 2822 3834 2567 4026 
Q 2313 4219 1838 4219 
Q 1578 4219 1281 4162 
Q 984 4106 628 3988 
L 628 4550 
Q 988 4650 1302 4700 
Q 1616 4750 1894 4750 
Q 2613 4750 3031 4423 
Q 3450 4097 3450 3541 
Q 3450 3153 3228 2886 
Q 3006 2619 2597 2516 
z
" transform="scale(0.015625)"/>
       </defs>
       <use xlink:href="#DejaVuSans-33"/>
       <use xlink:href="#DejaVuSans-30" x="63.623047"/>
       <use xlink:href="#DejaVuSans-30" x="127.246094"/>
       <use xlink:href="#DejaVuSans-30" x="190.869141"/>
       <use xlink:href="#DejaVuSans-30" x="254.492188"/>
      </g>
     </g>
    </g>
    <g id="xtick_8">
     <g id="line2d_8">
      <g>
       <use xlink:href="#m774b8c9008" x="397.0999" y="307.584" style="stroke: #000000; stroke-width: 0.8"/>
      </g>
     </g>
     <g id="text_8">
      <!-- 35000 -->
      <g transform="translate(381.19365 322.182437)scale(0.1 -0.1)">
       <use xlink:href="#DejaVuSans-33"/>
       <use xlink:href="#DejaVuSans-35" x="63.623047"/>
       <use xlink:href="#DejaVuSans-30" x="127.246094"/>
       <use xlink:href="#DejaVuSans-30" x="190.869141"/>
       <use xlink:href="#DejaVuSans-30" x="254.492188"/>
      </g>
     </g>
    </g>
    <g id="text_9">
     <!-- step -->
     <g transform="translate(225.344375 335.860562)scale(0.1 -0.1)">
      <defs>
       <path id="DejaVuSans-73" d="M 2834 3397 
L 2834 2853 
Q 2591 2978 2328 3040 
Q 2066 3103 1784 3103 
Q 1356 3103 1142 2972 
Q 928 2841 928 2578 
Q 928 2378 1081 2264 
Q 1234 2150 1697 2047 
L 1894 2003 
Q 2506 1872 2764 1633 
Q 3022 1394 3022 966 
Q 3022 478 2636 193 
Q 2250 -91 1575 -91 
Q 1294 -91 989 -36 
Q 684 19 347 128 
L 347 722 
Q 666 556 975 473 
Q 1284 391 1588 391 
Q 1994 391 2212 530 
Q 2431 669 2431 922 
Q 2431 1156 2273 1281 
Q 2116 1406 1581 1522 
L 1381 1569 
Q 847 1681 609 1914 
Q 372 2147 372 2553 
Q 372 3047 722 3315 
Q 1072 3584 1716 3584 
Q 2034 3584 2315 3537 
Q 2597 3491 2834 3397 
z
" transform="scale(0.015625)"/>
       <path id="DejaVuSans-74" d="M 1172 4494 
L 1172 3500 
L 2356 3500 
L 2356 3053 
L 1172 3053 
L 1172 1153 
Q 1172 725 1289 603 
Q 1406 481 1766 481 
L 2356 481 
L 2356 0 
L 1766 0 
Q 1100 0 847 248 
Q 594 497 594 1153 
L 594 3053 
L 172 3053 
L 172 3500 
L 594 3500 
L 594 4494 
L 1172 4494 
z
" transform="scale(0.015625)"/>
       <path id="DejaVuSans-65" d="M 3597 1894 
L 3597 1613 
L 953 1613 
Q 991 1019 1311 708 
Q 1631 397 2203 397 
Q 2534 397 2845 478 
Q 3156 559 3463 722 
L 3463 178 
Q 3153 47 2828 -22 
Q 2503 -91 2169 -91 
Q 1331 -91 842 396 
Q 353 884 353 1716 
Q 353 2575 817 3079 
Q 1281 3584 2069 3584 
Q 2775 3584 3186 3129 
Q 3597 2675 3597 1894 
z
M 3022 2063 
Q 3016 2534 2758 2815 
Q 2500 3097 2075 3097 
Q 1594 3097 1305 2825 
Q 1016 2553 972 2059 
L 3022 2063 
z
" transform="scale(0.015625)"/>
       <path id="DejaVuSans-70" d="M 1159 525 
L 1159 -1331 
L 581 -1331 
L 581 3500 
L 1159 3500 
L 1159 2969 
Q 1341 3281 1617 3432 
Q 1894 3584 2278 3584 
Q 2916 3584 3314 3078 
Q 3713 2572 3713 1747 
Q 3713 922 3314 415 
Q 2916 -91 2278 -91 
Q 1894 -91 1617 61 
Q 1341 213 1159 525 
z
M 3116 1747 
Q 3116 2381 2855 2742 
Q 2594 3103 2138 3103 
Q 1681 3103 1420 2742 
Q 1159 2381 1159 1747 
Q 1159 1113 1420 752 
Q 1681 391 2138 391 
Q 2594 391 2855 752 
Q 3116 1113 3116 1747 
z
" transform="scale(0.015625)"/>
      </defs>
      <use xlink:href="#DejaVuSans-73"/>
      <use xlink:href="#DejaVuSans-74" x="52.099609"/>
      <use xlink:href="#DejaVuSans-65" x="91.308594"/>
      <use xlink:href="#DejaVuSans-70" x="152.832031"/>
     </g>
    </g>
   </g>
   <g id="matplotlib.axis_2">
    <g id="ytick_1">
     <g id="line2d_9">
      <defs>
       <path id="m2a09931c93" d="M 0 0 
L -3.5 0 
" style="stroke: #000000; stroke-width: 0.8"/>
      </defs>
      <g>
       <use xlink:href="#m2a09931c93" x="57.6" y="274.848818" style="stroke: #000000; stroke-width: 0.8"/>
      </g>
     </g>
     <g id="text_10">
      <!-- 0.6 -->
      <g transform="translate(34.696875 278.648037)scale(0.1 -0.1)">
       <defs>
        <path id="DejaVuSans-2e" d="M 684 794 
L 1344 794 
L 1344 0 
L 684 0 
L 684 794 
z
" transform="scale(0.015625)"/>
        <path id="DejaVuSans-36" d="M 2113 2584 
Q 1688 2584 1439 2293 
Q 1191 2003 1191 1497 
Q 1191 994 1439 701 
Q 1688 409 2113 409 
Q 2538 409 2786 701 
Q 3034 994 3034 1497 
Q 3034 2003 2786 2293 
Q 2538 2584 2113 2584 
z
M 3366 4563 
L 3366 3988 
Q 3128 4100 2886 4159 
Q 2644 4219 2406 4219 
Q 1781 4219 1451 3797 
Q 1122 3375 1075 2522 
Q 1259 2794 1537 2939 
Q 1816 3084 2150 3084 
Q 2853 3084 3261 2657 
Q 3669 2231 3669 1497 
Q 3669 778 3244 343 
Q 2819 -91 2113 -91 
Q 1303 -91 875 529 
Q 447 1150 447 2328 
Q 447 3434 972 4092 
Q 1497 4750 2381 4750 
Q 2619 4750 2861 4703 
Q 3103 4656 3366 4563 
z
" transform="scale(0.015625)"/>
       </defs>
       <use xlink:href="#DejaVuSans-30"/>
       <use xlink:href="#DejaVuSans-2e" x="63.623047"/>
       <use xlink:href="#DejaVuSans-36" x="95.410156"/>
      </g>
     </g>
    </g>
    <g id="ytick_2">
     <g id="line2d_10">
      <g>
       <use xlink:href="#m2a09931c93" x="57.6" y="219.446963" style="stroke: #000000; stroke-width: 0.8"/>
      </g>
     </g>
     <g id="text_11">
      <!-- 0.7 -->
      <g transform="translate(34.696875 223.246182)scale(0.1 -0.1)">
       <defs>
        <path id="DejaVuSans-37" d="M 525 4666 
L 3525 4666 
L 3525 4397 
L 1831 0 
L 1172 0 
L 2766 4134 
L 525 4134 
L 525 4666 
z
" transform="scale(0.015625)"/>
       </defs>
       <use xlink:href="#DejaVuSans-30"/>
       <use xlink:href="#DejaVuSans-2e" x="63.623047"/>
       <use xlink:href="#DejaVuSans-37" x="95.410156"/>
      </g>
     </g>
    </g>
    <g id="ytick_3">
     <g id="line2d_11">
      <g>
       <use xlink:href="#m2a09931c93" x="57.6" y="164.045107" style="stroke: #000000; stroke-width: 0.8"/>
      </g>
     </g>
     <g id="text_12">
      <!-- 0.8 -->
      <g transform="translate(34.696875 167.844326)scale(0.1 -0.1)">
       <defs>
        <path id="DejaVuSans-38" d="M 2034 2216 
Q 1584 2216 1326 1975 
Q 1069 1734 1069 1313 
Q 1069 891 1326 650 
Q 1584 409 2034 409 
Q 2484 409 2743 651 
Q 3003 894 3003 1313 
Q 3003 1734 2745 1975 
Q 2488 2216 2034 2216 
z
M 1403 2484 
Q 997 2584 770 2862 
Q 544 3141 544 3541 
Q 544 4100 942 4425 
Q 1341 4750 2034 4750 
Q 2731 4750 3128 4425 
Q 3525 4100 3525 3541 
Q 3525 3141 3298 2862 
Q 3072 2584 2669 2484 
Q 3125 2378 3379 2068 
Q 3634 1759 3634 1313 
Q 3634 634 3220 271 
Q 2806 -91 2034 -91 
Q 1263 -91 848 271 
Q 434 634 434 1313 
Q 434 1759 690 2068 
Q 947 2378 1403 2484 
z
M 1172 3481 
Q 1172 3119 1398 2916 
Q 1625 2713 2034 2713 
Q 2441 2713 2670 2916 
Q 2900 3119 2900 3481 
Q 2900 3844 2670 4047 
Q 2441 4250 2034 4250 
Q 1625 4250 1398 4047 
Q 1172 3844 1172 3481 
z
" transform="scale(0.015625)"/>
       </defs>
       <use xlink:href="#DejaVuSans-30"/>
       <use xlink:href="#DejaVuSans-2e" x="63.623047"/>
       <use xlink:href="#DejaVuSans-38" x="95.410156"/>
      </g>
     </g>
    </g>
    <g id="ytick_4">
     <g id="line2d_12">
      <g>
       <use xlink:href="#m2a09931c93" x="57.6" y="108.643252" style="stroke: #000000; stroke-width: 0.8"/>
      </g>
     </g>
     <g id="text_13">
      <!-- 0.9 -->
      <g transform="translate(34.696875 112.442471)scale(0.1 -0.1)">
       <defs>
        <path id="DejaVuSans-39" d="M 703 97 
L 703 672 
Q 941 559 1184 500 
Q 1428 441 1663 441 
Q 2288 441 2617 861 
Q 2947 1281 2994 2138 
Q 2813 1869 2534 1725 
Q 2256 1581 1919 1581 
Q 1219 1581 811 2004 
Q 403 2428 403 3163 
Q 403 3881 828 4315 
Q 1253 4750 1959 4750 
Q 2769 4750 3195 4129 
Q 3622 3509 3622 2328 
Q 3622 1225 3098 567 
Q 2575 -91 1691 -91 
Q 1453 -91 1209 -44 
Q 966 3 703 97 
z
M 1959 2075 
Q 2384 2075 2632 2365 
Q 2881 2656 2881 3163 
Q 2881 3666 2632 3958 
Q 2384 4250 1959 4250 
Q 1534 4250 1286 3958 
Q 1038 3666 1038 3163 
Q 1038 2656 1286 2365 
Q 1534 2075 1959 2075 
z
" transform="scale(0.015625)"/>
       </defs>
       <use xlink:href="#DejaVuSans-30"/>
       <use xlink:href="#DejaVuSans-2e" x="63.623047"/>
       <use xlink:href="#DejaVuSans-39" x="95.410156"/>
      </g>
     </g>
    </g>
    <g id="ytick_5">
     <g id="line2d_13">
      <g>
       <use xlink:href="#m2a09931c93" x="57.6" y="53.241396" style="stroke: #000000; stroke-width: 0.8"/>
      </g>
     </g>
     <g id="text_14">
      <!-- 1.0 -->
      <g transform="translate(34.696875 57.040615)scale(0.1 -0.1)">
       <use xlink:href="#DejaVuSans-31"/>
       <use xlink:href="#DejaVuSans-2e" x="63.623047"/>
       <use xlink:href="#DejaVuSans-30" x="95.410156"/>
      </g>
     </g>
    </g>
    <g id="text_15">
     <!-- top 5 accuracy -->
     <g transform="translate(28.617187 211.6405)rotate(-90)scale(0.1 -0.1)">
      <defs>
       <path id="DejaVuSans-6f" d="M 1959 3097 
Q 1497 3097 1228 2736 
Q 959 2375 959 1747 
Q 959 1119 1226 758 
Q 1494 397 1959 397 
Q 2419 397 2687 759 
Q 2956 1122 2956 1747 
Q 2956 2369 2687 2733 
Q 2419 3097 1959 3097 
z
M 1959 3584 
Q 2709 3584 3137 3096 
Q 3566 2609 3566 1747 
Q 3566 888 3137 398 
Q 2709 -91 1959 -91 
Q 1206 -91 779 398 
Q 353 888 353 1747 
Q 353 2609 779 3096 
Q 1206 3584 1959 3584 
z
" transform="scale(0.015625)"/>
       <path id="DejaVuSans-20" transform="scale(0.015625)"/>
       <path id="DejaVuSans-61" d="M 2194 1759 
Q 1497 1759 1228 1600 
Q 959 1441 959 1056 
Q 959 750 1161 570 
Q 1363 391 1709 391 
Q 2188 391 2477 730 
Q 2766 1069 2766 1631 
L 2766 1759 
L 2194 1759 
z
M 3341 1997 
L 3341 0 
L 2766 0 
L 2766 531 
Q 2569 213 2275 61 
Q 1981 -91 1556 -91 
Q 1019 -91 701 211 
Q 384 513 384 1019 
Q 384 1609 779 1909 
Q 1175 2209 1959 2209 
L 2766 2209 
L 2766 2266 
Q 2766 2663 2505 2880 
Q 2244 3097 1772 3097 
Q 1472 3097 1187 3025 
Q 903 2953 641 2809 
L 641 3341 
Q 956 3463 1253 3523 
Q 1550 3584 1831 3584 
Q 2591 3584 2966 3190 
Q 3341 2797 3341 1997 
z
" transform="scale(0.015625)"/>
       <path id="DejaVuSans-63" d="M 3122 3366 
L 3122 2828 
Q 2878 2963 2633 3030 
Q 2388 3097 2138 3097 
Q 1578 3097 1268 2742 
Q 959 2388 959 1747 
Q 959 1106 1268 751 
Q 1578 397 2138 397 
Q 2388 397 2633 464 
Q 2878 531 3122 666 
L 3122 134 
Q 2881 22 2623 -34 
Q 2366 -91 2075 -91 
Q 1284 -91 818 406 
Q 353 903 353 1747 
Q 353 2603 823 3093 
Q 1294 3584 2113 3584 
Q 2378 3584 2631 3529 
Q 2884 3475 3122 3366 
z
" transform="scale(0.015625)"/>
       <path id="DejaVuSans-75" d="M 544 1381 
L 544 3500 
L 1119 3500 
L 1119 1403 
Q 1119 906 1312 657 
Q 1506 409 1894 409 
Q 2359 409 2629 706 
Q 2900 1003 2900 1516 
L 2900 3500 
L 3475 3500 
L 3475 0 
L 2900 0 
L 2900 538 
Q 2691 219 2414 64 
Q 2138 -91 1772 -91 
Q 1169 -91 856 284 
Q 544 659 544 1381 
z
M 1991 3584 
L 1991 3584 
z
" transform="scale(0.015625)"/>
       <path id="DejaVuSans-72" d="M 2631 2963 
Q 2534 3019 2420 3045 
Q 2306 3072 2169 3072 
Q 1681 3072 1420 2755 
Q 1159 2438 1159 1844 
L 1159 0 
L 581 0 
L 581 3500 
L 1159 3500 
L 1159 2956 
Q 1341 3275 1631 3429 
Q 1922 3584 2338 3584 
Q 2397 3584 2469 3576 
Q 2541 3569 2628 3553 
L 2631 2963 
z
" transform="scale(0.015625)"/>
       <path id="DejaVuSans-79" d="M 2059 -325 
Q 1816 -950 1584 -1140 
Q 1353 -1331 966 -1331 
L 506 -1331 
L 506 -850 
L 844 -850 
Q 1081 -850 1212 -737 
Q 1344 -625 1503 -206 
L 1606 56 
L 191 3500 
L 800 3500 
L 1894 763 
L 2988 3500 
L 3597 3500 
L 2059 -325 
z
" transform="scale(0.015625)"/>
      </defs>
      <use xlink:href="#DejaVuSans-74"/>
      <use xlink:href="#DejaVuSans-6f" x="39.208984"/>
      <use xlink:href="#DejaVuSans-70" x="100.390625"/>
      <use xlink:href="#DejaVuSans-20" x="163.867188"/>
      <use xlink:href="#DejaVuSans-35" x="195.654297"/>
      <use xlink:href="#DejaVuSans-20" x="259.277344"/>
      <use xlink:href="#DejaVuSans-61" x="291.064453"/>
      <use xlink:href="#DejaVuSans-63" x="352.34375"/>
      <use xlink:href="#DejaVuSans-63" x="407.324219"/>
      <use xlink:href="#DejaVuSans-75" x="462.304688"/>
      <use xlink:href="#DejaVuSans-72" x="525.683594"/>
      <use xlink:href="#DejaVuSans-61" x="566.796875"/>
      <use xlink:href="#DejaVuSans-63" x="628.076172"/>
      <use xlink:href="#DejaVuSans-79" x="683.056641"/>
     </g>
    </g>
   </g>
   <g id="line2d_14">
    <path d="M 73.832727 260.998355 
L 74.483338 247.143129 
L 75.133948 295.488 
L 75.784558 176.32747 
L 76.435169 232.635032 
L 77.085779 179.617283 
L 77.736389 158.971647 
L 78.386999 161.334612 
L 79.03761 171.356175 
L 79.68822 277.18882 
L 80.33883 127.107896 
L 80.989441 187.977451 
L 81.640051 184.77036 
L 82.290661 163.648175 
L 82.941272 157.048059 
L 83.591882 162.163514 
L 84.242492 132.31739 
L 84.893103 165.174676 
L 85.543713 139.251393 
L 86.194323 204.169503 
L 86.844934 180.147385 
L 87.495544 150.506187 
L 88.146154 168.301948 
L 88.796764 165.703121 
L 89.447375 114.139593 
L 90.097985 176.072401 
L 90.748595 169.747397 
L 91.399206 145.511027 
L 92.049816 158.29564 
L 92.700426 181.108159 
L 93.351037 98.183015 
L 94.001647 129.753608 
L 94.652257 203.393975 
L 95.302868 83.579492 
L 95.953478 212.312145 
L 96.604088 161.281208 
L 97.254698 188.189028 
L 97.905309 119.455373 
L 98.555919 120.45458 
L 99.206529 136.784113 
L 99.85714 138.966737 
L 100.50775 212.732371 
L 101.15836 130.853181 
L 101.808971 169.327545 
L 102.459581 100.118195 
L 103.110191 136.773509 
L 103.760802 207.974483 
L 104.411412 112.986069 
L 105.062022 116.838157 
L 105.712633 144.942666 
L 106.363243 130.520369 
L 107.013853 196.761787 
L 107.664463 137.725093 
L 108.315074 116.061437 
L 108.965684 121.086564 
L 109.616294 152.517851 
L 110.266905 159.927381 
L 110.917515 162.354085 
L 111.568125 127.786144 
L 112.218736 215.046569 
L 112.869346 128.9297 
L 113.519956 116.994995 
L 114.170567 158.718401 
L 114.821177 169.220269 
L 115.471787 134.474346 
L 116.122398 147.818804 
L 116.773008 117.261897 
L 117.423618 145.032225 
L 118.074228 125.380544 
L 118.724839 109.189138 
L 119.375449 125.49192 
L 120.026059 159.509858 
L 120.67667 127.212476 
L 121.32728 141.366145 
L 121.97789 136.496966 
L 122.628501 154.811745 
L 123.279111 142.152813 
L 123.929721 142.938846 
L 124.580332 122.985727 
L 125.230942 160.425691 
L 125.881552 108.879768 
L 126.532163 147.580353 
L 127.182773 100.654316 
L 127.833383 111.874962 
L 128.483993 167.279812 
L 129.134604 157.638936 
L 129.785214 99.92871 
L 130.435824 121.877912 
L 131.737045 181.51998 
L 132.387655 179.623277 
L 133.038266 123.051869 
L 133.688876 160.167802 
L 134.339486 143.803634 
L 134.990097 96.32394 
L 135.640707 112.593446 
L 136.941927 136.997644 
L 137.592538 129.472255 
L 138.243148 164.873188 
L 138.893758 150.676393 
L 139.544369 102.611165 
L 140.194979 151.403507 
L 140.845589 143.082598 
L 141.4962 151.00378 
L 142.14681 117.888922 
L 142.79742 112.065535 
L 143.448031 177.705328 
L 144.098641 111.081514 
L 145.399862 127.018963 
L 146.050472 109.217053 
L 146.701082 130.05466 
L 147.351692 99.079651 
L 148.002303 153.489097 
L 148.652913 108.488859 
L 149.303523 116.186457 
L 149.954134 108.852095 
L 150.604744 111.110239 
L 151.255354 155.1324 
L 151.905965 114.234768 
L 152.556575 102.336554 
L 153.207185 97.265202 
L 153.857796 144.638494 
L 154.508406 108.987386 
L 155.159016 117.233058 
L 155.809627 114.922477 
L 156.460237 124.100415 
L 157.110847 110.168484 
L 157.761457 89.122191 
L 158.412068 120.433112 
L 159.062678 89.696485 
L 159.713288 80.224164 
L 160.363899 123.927797 
L 161.014509 94.728623 
L 161.665119 109.285038 
L 162.31573 130.828137 
L 162.96634 137.720117 
L 163.61695 116.386197 
L 164.267561 81.164897 
L 164.918171 123.443946 
L 165.568781 82.947953 
L 166.219392 107.532116 
L 166.870002 83.430628 
L 167.520612 101.404173 
L 168.171222 111.105743 
L 168.821833 71.849783 
L 169.472443 88.012967 
L 170.123053 158.868611 
L 170.773664 70.068058 
L 171.424274 111.380364 
L 172.074884 89.198167 
L 172.725495 146.280648 
L 173.376105 99.668845 
L 174.026715 118.61159 
L 174.677326 112.977981 
L 175.327936 105.010106 
L 175.978546 108.942338 
L 176.629156 80.977803 
L 177.279767 104.498629 
L 177.930377 111.52943 
L 178.580987 85.439202 
L 179.231598 77.246348 
L 179.882208 127.887948 
L 180.532818 104.4574 
L 181.183429 123.205553 
L 181.834039 74.002845 
L 182.484649 109.950324 
L 183.13526 120.99068 
L 183.78587 98.346621 
L 184.43648 121.683637 
L 185.087091 130.18546 
L 185.737701 134.614106 
L 186.388311 105.974586 
L 187.038921 94.735485 
L 187.689532 147.437485 
L 188.340142 95.450715 
L 188.990752 111.209112 
L 189.641363 107.026155 
L 190.291973 87.182736 
L 190.942583 91.205093 
L 191.593194 98.206843 
L 192.243804 133.072816 
L 192.894414 108.862232 
L 193.545025 55.514351 
L 194.195635 113.294227 
L 194.846245 132.165781 
L 195.496856 74.482615 
L 196.147466 109.793335 
L 196.798076 100.782402 
L 197.448686 106.262966 
L 198.099297 92.9955 
L 198.749907 109.946088 
L 199.400517 140.616708 
L 200.051128 103.519767 
L 200.701738 93.30889 
L 201.352348 89.704519 
L 202.002959 99.955833 
L 202.653569 108.214754 
L 203.304179 88.360858 
L 203.95479 134.468511 
L 204.6054 113.887245 
L 205.25601 74.483929 
L 205.906621 98.597072 
L 206.557231 99.438572 
L 207.207841 105.587565 
L 208.509062 96.59241 
L 209.159672 62.25657 
L 209.810282 99.412976 
L 210.460893 116.875213 
L 211.111503 93.211298 
L 211.762113 137.624799 
L 212.412724 81.993298 
L 213.063334 100.951276 
L 213.713944 83.471743 
L 214.364555 109.527813 
L 215.015165 73.23166 
L 215.665775 105.865697 
L 216.316385 109.937616 
L 216.966996 95.250955 
L 217.617606 74.197268 
L 218.268216 114.896565 
L 218.918827 107.970785 
L 219.569437 63.694853 
L 220.220047 121.627935 
L 220.870658 78.047134 
L 221.521268 105.204994 
L 222.171878 138.885572 
L 222.822489 112.84811 
L 223.473099 130.363759 
L 224.123709 111.255184 
L 224.77432 84.967399 
L 225.42493 96.28662 
L 226.07554 89.003149 
L 226.72615 84.983275 
L 227.376761 110.4265 
L 228.027371 94.328211 
L 228.677981 122.103146 
L 229.328592 103.016895 
L 229.979202 111.760406 
L 231.280423 83.760212 
L 231.931033 120.386436 
L 232.581643 117.998459 
L 233.232254 131.80446 
L 233.882864 55.152353 
L 234.533474 103.76031 
L 235.184085 61.421726 
L 235.834695 125.798242 
L 236.485305 62.966893 
L 237.135915 134.805716 
L 237.786526 74.407354 
L 239.087746 99.715739 
L 239.738357 62.718095 
L 240.388967 123.830433 
L 241.039577 140.084081 
L 241.690188 101.476773 
L 242.340798 109.93344 
L 242.991408 87.883461 
L 243.642019 109.57738 
L 244.292629 115.031425 
L 244.943239 99.437472 
L 245.59385 89.668851 
L 246.24446 82.968645 
L 246.89507 129.708233 
L 247.54568 142.840308 
L 248.196291 98.622687 
L 248.846901 107.6089 
L 249.497511 97.393299 
L 250.148122 124.534727 
L 250.798732 115.233105 
L 251.449342 64.40829 
L 252.099953 144.216196 
L 252.750563 74.964605 
L 253.401173 144.687248 
L 254.051784 81.109831 
L 254.702394 65.458969 
L 255.353004 74.359263 
L 256.003615 107.964829 
L 256.654225 88.62201 
L 257.304835 85.931327 
L 257.955445 94.338918 
L 258.606056 106.229294 
L 259.256666 133.807152 
L 259.907276 75.775572 
L 260.557887 62.942917 
L 261.208497 132.079653 
L 261.859107 70.198475 
L 262.509718 76.144544 
L 263.160328 121.026979 
L 263.810938 63.181997 
L 264.461549 160.34721 
L 265.112159 81.162708 
L 265.762769 157.280521 
L 266.413379 86.441718 
L 267.06399 135.552373 
L 267.7146 79.443911 
L 268.36521 125.705807 
L 269.015821 65.182274 
L 269.666431 91.774308 
L 270.317041 95.128734 
L 270.967652 106.680763 
L 271.618262 75.474143 
L 272.268872 100.355619 
L 272.919483 72.174452 
L 273.570093 86.078714 
L 274.220703 115.546958 
L 274.871314 159.242503 
L 275.521924 89.679317 
L 276.172534 93.542587 
L 276.823144 143.944794 
L 277.473755 79.479861 
L 278.124365 87.88205 
L 278.774975 82.586203 
L 279.425586 105.612107 
L 280.726806 116.722078 
L 281.377417 143.974218 
L 282.028027 83.363039 
L 282.678637 109.797469 
L 283.329248 111.057099 
L 283.979858 133.662223 
L 284.630468 103.134893 
L 285.281079 88.293728 
L 285.931689 116.135972 
L 286.582299 122.857892 
L 287.232909 125.423506 
L 287.88352 109.752218 
L 288.53413 105.687332 
L 289.18474 84.921991 
L 289.835351 99.634795 
L 290.485961 72.752519 
L 291.136571 86.262426 
L 291.787182 75.635845 
L 292.437792 107.63769 
L 293.088402 100.129905 
L 293.739013 129.212081 
L 294.389623 88.93126 
L 295.040233 95.653774 
L 295.690844 108.680787 
L 296.341454 92.835216 
L 296.992064 137.283508 
L 297.642674 65.647211 
L 298.293285 90.647435 
L 298.943895 151.075854 
L 299.594505 79.299382 
L 300.245116 130.433107 
L 300.895726 87.752388 
L 301.546336 125.907407 
L 302.196947 77.934543 
L 302.847557 114.060315 
L 303.498167 79.869885 
L 304.148778 99.602915 
L 304.799388 89.129879 
L 305.449998 71.089961 
L 306.100608 156.892025 
L 306.751219 88.47034 
L 307.401829 112.984322 
L 308.052439 126.347649 
L 308.70305 99.500441 
L 309.35366 94.960042 
L 310.654881 115.230448 
L 311.305491 122.346762 
L 311.956101 81.578071 
L 312.606712 128.599405 
L 313.257322 92.317178 
L 313.907932 94.749419 
L 314.558543 168.500794 
L 315.209153 169.064389 
L 315.859763 132.800967 
L 316.510373 105.002667 
L 317.160984 125.122846 
L 317.811594 155.059134 
L 318.462204 89.029384 
L 319.112815 119.765191 
L 319.763425 100.578784 
L 320.414035 156.924079 
L 321.064646 86.975115 
L 321.715256 134.579293 
L 322.365866 120.809395 
L 323.016477 156.83179 
L 324.317697 79.587808 
L 324.968308 87.930653 
L 325.618918 138.513521 
L 326.269528 127.710026 
L 326.920138 107.527032 
L 327.570749 118.262737 
L 328.221359 135.637417 
L 328.871969 125.736269 
L 329.52258 86.168793 
L 330.17319 129.876349 
L 330.8238 101.08072 
L 331.474411 146.515784 
L 332.125021 124.192642 
L 332.775631 77.008489 
L 333.426242 104.788826 
L 334.076852 79.035208 
L 334.727462 102.608024 
L 335.378073 115.706859 
L 336.028683 124.257523 
L 336.679293 53.568 
L 337.329903 79.571661 
L 337.980514 65.412628 
L 338.631124 121.48987 
L 339.281734 110.951175 
L 339.932345 121.824452 
L 340.582955 124.463842 
L 341.233565 133.354993 
L 341.884176 106.179347 
L 342.534786 110.057557 
L 343.185396 143.837082 
L 343.836007 99.044838 
L 344.486617 106.728256 
L 345.137227 98.92626 
L 345.787837 134.556669 
L 346.438448 101.95488 
L 347.089058 155.674885 
L 347.739668 124.530772 
L 348.390279 134.395929 
L 349.040889 100.50058 
L 349.691499 120.527854 
L 350.34211 108.547032 
L 350.99272 138.667583 
L 352.293941 84.558564 
L 352.944551 118.74594 
L 353.595161 89.86772 
L 354.245772 85.470695 
L 354.896382 121.808531 
L 355.546992 65.364337 
L 356.197602 88.42896 
L 356.848213 167.714341 
L 357.498823 151.578738 
L 358.149433 118.263429 
L 358.800044 102.853531 
L 359.450654 123.721903 
L 360.101264 77.00922 
L 360.751875 144.005778 
L 361.402485 86.728797 
L 362.053095 89.176207 
L 362.703706 112.495947 
L 363.354316 131.817985 
L 364.004926 120.981163 
L 364.655537 103.5749 
L 365.306147 138.562692 
L 365.956757 86.798335 
L 366.607367 134.686415 
L 367.257978 115.680385 
L 367.908588 109.374777 
L 368.559198 108.250727 
L 369.209809 101.580974 
L 369.860419 86.382086 
L 370.511029 110.490973 
L 371.16164 145.837598 
L 371.81225 101.081611 
L 372.46286 79.363882 
L 373.113471 157.284854 
L 373.764081 91.875473 
L 374.414691 87.80644 
L 375.065302 86.365237 
L 375.715912 105.015348 
L 376.366522 119.144386 
L 377.017132 140.460414 
L 377.667743 122.45395 
L 378.318353 100.129948 
L 378.968963 160.847318 
L 379.619574 97.449808 
L 380.270184 132.038446 
L 380.920794 76.585879 
L 381.571405 93.556075 
L 382.222015 138.693745 
L 382.872625 108.442675 
L 383.523236 117.606139 
L 384.173846 113.046273 
L 384.824456 109.726627 
L 385.475066 129.384583 
L 386.125677 118.34575 
L 386.776287 96.388797 
L 387.426897 145.249807 
L 388.077508 80.238544 
L 389.378728 113.917169 
L 390.029339 94.982305 
L 390.679949 162.151993 
L 391.330559 101.827726 
L 391.98117 89.484651 
L 392.63178 113.074846 
L 393.28239 93.025039 
L 393.933001 111.39762 
L 394.583611 106.665052 
L 395.234221 99.249048 
L 395.884831 136.964115 
L 396.535442 92.125954 
L 397.186052 104.407533 
L 397.836662 91.220581 
L 398.487273 89.443095 
L 398.487273 89.443095 
" clip-path="url(#pf00048963a)" style="fill: none; stroke: #ff4500; stroke-width: 1.5; stroke-linecap: square"/>
   </g>
   <g id="patch_3">
    <path d="M 57.6 307.584 
L 57.6 41.472 
" style="fill: none; stroke: #000000; stroke-width: 0.8; stroke-linejoin: miter; stroke-linecap: square"/>
   </g>
   <g id="patch_4">
    <path d="M 414.72 307.584 
L 414.72 41.472 
" style="fill: none; stroke: #000000; stroke-width: 0.8; stroke-linejoin: miter; stroke-linecap: square"/>
   </g>
   <g id="patch_5">
    <path d="M 57.6 307.584 
L 414.72 307.584 
" style="fill: none; stroke: #000000; stroke-width: 0.8; stroke-linejoin: miter; stroke-linecap: square"/>
   </g>
   <g id="patch_6">
    <path d="M 57.6 41.472 
L 414.72 41.472 
" style="fill: none; stroke: #000000; stroke-width: 0.8; stroke-linejoin: miter; stroke-linecap: square"/>
   </g>
   <g id="text_16">
    <!-- Top 5 Train Accuracy -->
    <g transform="translate(149.373281 26.472)scale(0.15 -0.15)">
     <defs>
      <path id="DejaVuSans-Bold-54" d="M 31 4666 
L 4331 4666 
L 4331 3756 
L 2784 3756 
L 2784 0 
L 1581 0 
L 1581 3756 
L 31 3756 
L 31 4666 
z
" transform="scale(0.015625)"/>
      <path id="DejaVuSans-Bold-6f" d="M 2203 2784 
Q 1831 2784 1636 2517 
Q 1441 2250 1441 1747 
Q 1441 1244 1636 976 
Q 1831 709 2203 709 
Q 2569 709 2762 976 
Q 2956 1244 2956 1747 
Q 2956 2250 2762 2517 
Q 2569 2784 2203 2784 
z
M 2203 3584 
Q 3106 3584 3614 3096 
Q 4122 2609 4122 1747 
Q 4122 884 3614 396 
Q 3106 -91 2203 -91 
Q 1297 -91 786 396 
Q 275 884 275 1747 
Q 275 2609 786 3096 
Q 1297 3584 2203 3584 
z
" transform="scale(0.015625)"/>
      <path id="DejaVuSans-Bold-70" d="M 1656 506 
L 1656 -1331 
L 538 -1331 
L 538 3500 
L 1656 3500 
L 1656 2988 
Q 1888 3294 2169 3439 
Q 2450 3584 2816 3584 
Q 3463 3584 3878 3070 
Q 4294 2556 4294 1747 
Q 4294 938 3878 423 
Q 3463 -91 2816 -91 
Q 2450 -91 2169 54 
Q 1888 200 1656 506 
z
M 2400 2772 
Q 2041 2772 1848 2508 
Q 1656 2244 1656 1747 
Q 1656 1250 1848 986 
Q 2041 722 2400 722 
Q 2759 722 2948 984 
Q 3138 1247 3138 1747 
Q 3138 2247 2948 2509 
Q 2759 2772 2400 2772 
z
" transform="scale(0.015625)"/>
      <path id="DejaVuSans-Bold-20" transform="scale(0.015625)"/>
      <path id="DejaVuSans-Bold-35" d="M 678 4666 
L 3669 4666 
L 3669 3781 
L 1638 3781 
L 1638 3059 
Q 1775 3097 1914 3117 
Q 2053 3138 2203 3138 
Q 3056 3138 3531 2711 
Q 4006 2284 4006 1522 
Q 4006 766 3489 337 
Q 2972 -91 2053 -91 
Q 1656 -91 1267 -14 
Q 878 63 494 219 
L 494 1166 
Q 875 947 1217 837 
Q 1559 728 1863 728 
Q 2300 728 2551 942 
Q 2803 1156 2803 1522 
Q 2803 1891 2551 2103 
Q 2300 2316 1863 2316 
Q 1603 2316 1309 2248 
Q 1016 2181 678 2041 
L 678 4666 
z
" transform="scale(0.015625)"/>
      <path id="DejaVuSans-Bold-72" d="M 3138 2547 
Q 2991 2616 2845 2648 
Q 2700 2681 2553 2681 
Q 2122 2681 1889 2404 
Q 1656 2128 1656 1613 
L 1656 0 
L 538 0 
L 538 3500 
L 1656 3500 
L 1656 2925 
Q 1872 3269 2151 3426 
Q 2431 3584 2822 3584 
Q 2878 3584 2943 3579 
Q 3009 3575 3134 3559 
L 3138 2547 
z
" transform="scale(0.015625)"/>
      <path id="DejaVuSans-Bold-61" d="M 2106 1575 
Q 1756 1575 1579 1456 
Q 1403 1338 1403 1106 
Q 1403 894 1545 773 
Q 1688 653 1941 653 
Q 2256 653 2472 879 
Q 2688 1106 2688 1447 
L 2688 1575 
L 2106 1575 
z
M 3816 1997 
L 3816 0 
L 2688 0 
L 2688 519 
Q 2463 200 2181 54 
Q 1900 -91 1497 -91 
Q 953 -91 614 226 
Q 275 544 275 1050 
Q 275 1666 698 1953 
Q 1122 2241 2028 2241 
L 2688 2241 
L 2688 2328 
Q 2688 2594 2478 2717 
Q 2269 2841 1825 2841 
Q 1466 2841 1156 2769 
Q 847 2697 581 2553 
L 581 3406 
Q 941 3494 1303 3539 
Q 1666 3584 2028 3584 
Q 2975 3584 3395 3211 
Q 3816 2838 3816 1997 
z
" transform="scale(0.015625)"/>
      <path id="DejaVuSans-Bold-69" d="M 538 3500 
L 1656 3500 
L 1656 0 
L 538 0 
L 538 3500 
z
M 538 4863 
L 1656 4863 
L 1656 3950 
L 538 3950 
L 538 4863 
z
" transform="scale(0.015625)"/>
      <path id="DejaVuSans-Bold-6e" d="M 4056 2131 
L 4056 0 
L 2931 0 
L 2931 347 
L 2931 1631 
Q 2931 2084 2911 2256 
Q 2891 2428 2841 2509 
Q 2775 2619 2662 2680 
Q 2550 2741 2406 2741 
Q 2056 2741 1856 2470 
Q 1656 2200 1656 1722 
L 1656 0 
L 538 0 
L 538 3500 
L 1656 3500 
L 1656 2988 
Q 1909 3294 2193 3439 
Q 2478 3584 2822 3584 
Q 3428 3584 3742 3212 
Q 4056 2841 4056 2131 
z
" transform="scale(0.015625)"/>
      <path id="DejaVuSans-Bold-41" d="M 3419 850 
L 1538 850 
L 1241 0 
L 31 0 
L 1759 4666 
L 3194 4666 
L 4922 0 
L 3713 0 
L 3419 850 
z
M 1838 1716 
L 3116 1716 
L 2478 3572 
L 1838 1716 
z
" transform="scale(0.015625)"/>
      <path id="DejaVuSans-Bold-63" d="M 3366 3391 
L 3366 2478 
Q 3138 2634 2908 2709 
Q 2678 2784 2431 2784 
Q 1963 2784 1702 2511 
Q 1441 2238 1441 1747 
Q 1441 1256 1702 982 
Q 1963 709 2431 709 
Q 2694 709 2930 787 
Q 3166 866 3366 1019 
L 3366 103 
Q 3103 6 2833 -42 
Q 2563 -91 2291 -91 
Q 1344 -91 809 395 
Q 275 881 275 1747 
Q 275 2613 809 3098 
Q 1344 3584 2291 3584 
Q 2566 3584 2833 3536 
Q 3100 3488 3366 3391 
z
" transform="scale(0.015625)"/>
      <path id="DejaVuSans-Bold-75" d="M 500 1363 
L 500 3500 
L 1625 3500 
L 1625 3150 
Q 1625 2866 1622 2436 
Q 1619 2006 1619 1863 
Q 1619 1441 1641 1255 
Q 1663 1069 1716 984 
Q 1784 875 1895 815 
Q 2006 756 2150 756 
Q 2500 756 2700 1025 
Q 2900 1294 2900 1772 
L 2900 3500 
L 4019 3500 
L 4019 0 
L 2900 0 
L 2900 506 
Q 2647 200 2364 54 
Q 2081 -91 1741 -91 
Q 1134 -91 817 281 
Q 500 653 500 1363 
z
" transform="scale(0.015625)"/>
      <path id="DejaVuSans-Bold-79" d="M 78 3500 
L 1197 3500 
L 2138 1125 
L 2938 3500 
L 4056 3500 
L 2584 -331 
Q 2363 -916 2067 -1148 
Q 1772 -1381 1288 -1381 
L 641 -1381 
L 641 -647 
L 991 -647 
Q 1275 -647 1404 -556 
Q 1534 -466 1606 -231 
L 1638 -134 
L 78 3500 
z
" transform="scale(0.015625)"/>
     </defs>
     <use xlink:href="#DejaVuSans-Bold-54"/>
     <use xlink:href="#DejaVuSans-Bold-6f" x="54.962891"/>
     <use xlink:href="#DejaVuSans-Bold-70" x="123.664062"/>
     <use xlink:href="#DejaVuSans-Bold-20" x="195.246094"/>
     <use xlink:href="#DejaVuSans-Bold-35" x="230.060547"/>
     <use xlink:href="#DejaVuSans-Bold-20" x="299.640625"/>
     <use xlink:href="#DejaVuSans-Bold-54" x="334.455078"/>
     <use xlink:href="#DejaVuSans-Bold-72" x="391.667969"/>
     <use xlink:href="#DejaVuSans-Bold-61" x="440.984375"/>
     <use xlink:href="#DejaVuSans-Bold-69" x="508.464844"/>
     <use xlink:href="#DejaVuSans-Bold-6e" x="542.742188"/>
     <use xlink:href="#DejaVuSans-Bold-20" x="613.933594"/>
     <use xlink:href="#DejaVuSans-Bold-41" x="648.748047"/>
     <use xlink:href="#DejaVuSans-Bold-63" x="726.140625"/>
     <use xlink:href="#DejaVuSans-Bold-63" x="785.417969"/>
     <use xlink:href="#DejaVuSans-Bold-75" x="844.695312"/>
     <use xlink:href="#DejaVuSans-Bold-72" x="915.886719"/>
     <use xlink:href="#DejaVuSans-Bold-61" x="965.203125"/>
     <use xlink:href="#DejaVuSans-Bold-63" x="1032.683594"/>
     <use xlink:href="#DejaVuSans-Bold-79" x="1091.960938"/>
    </g>
   </g>
  </g>
 </g>
 <defs>
  <clipPath id="pf00048963a">
   <rect x="57.6" y="41.472" width="357.12" height="266.112"/>
  </clipPath>
 </defs>
</svg>
