<?xml version="1.0" encoding="utf-8" standalone="no"?>
<!DOCTYPE svg PUBLIC "-//W3C//DTD SVG 1.1//EN"
  "http://www.w3.org/Graphics/SVG/1.1/DTD/svg11.dtd">
<svg xmlns:xlink="http://www.w3.org/1999/xlink" width="460.8pt" height="345.6pt" viewBox="0 0 460.8 345.6" xmlns="http://www.w3.org/2000/svg" version="1.1">
 <metadata>
  <rdf:RDF xmlns:dc="http://purl.org/dc/elements/1.1/" xmlns:cc="http://creativecommons.org/ns#" xmlns:rdf="http://www.w3.org/1999/02/22-rdf-syntax-ns#">
   <cc:Work>
    <dc:type rdf:resource="http://purl.org/dc/dcmitype/StillImage"/>
    <dc:date>2023-12-10T13:34:24.060007</dc:date>
    <dc:format>image/svg+xml</dc:format>
    <dc:creator>
     <cc:Agent>
      <dc:title>Matplotlib v3.5.3, https://matplotlib.org/</dc:title>
     </cc:Agent>
    </dc:creator>
   </cc:Work>
  </rdf:RDF>
 </metadata>
 <defs>
  <style type="text/css">*{stroke-linejoin: round; stroke-linecap: butt}</style>
 </defs>
 <g id="figure_1">
  <g id="patch_1">
   <path d="M 0 345.6 
L 460.8 345.6 
L 460.8 0 
L 0 0 
z
" style="fill: #ffffff"/>
  </g>
  <g id="axes_1">
   <g id="patch_2">
    <path d="M 57.6 307.584 
L 414.72 307.584 
L 414.72 41.472 
L 57.6 41.472 
z
" style="fill: #ffffff"/>
   </g>
   <g id="matplotlib.axis_1">
    <g id="xtick_1">
     <g id="line2d_1">
      <defs>
       <path id="mc018fd3625" d="M 0 0 
L 0 3.5 
" style="stroke: #000000; stroke-width: 0.8"/>
      </defs>
      <g>
       <use xlink:href="#mc018fd3625" x="73.379519" y="307.584" style="stroke: #000000; stroke-width: 0.8"/>
      </g>
     </g>
     <g id="text_1">
      <!-- 0 -->
      <g transform="translate(70.198269 322.182437)scale(0.1 -0.1)">
       <defs>
        <path id="DejaVuSans-30" d="M 2034 4250 
Q 1547 4250 1301 3770 
Q 1056 3291 1056 2328 
Q 1056 1369 1301 889 
Q 1547 409 2034 409 
Q 2525 409 2770 889 
Q 3016 1369 3016 2328 
Q 3016 3291 2770 3770 
Q 2525 4250 2034 4250 
z
M 2034 4750 
Q 2819 4750 3233 4129 
Q 3647 3509 3647 2328 
Q 3647 1150 3233 529 
Q 2819 -91 2034 -91 
Q 1250 -91 836 529 
Q 422 1150 422 2328 
Q 422 3509 836 4129 
Q 1250 4750 2034 4750 
z
" transform="scale(0.015625)"/>
       </defs>
       <use xlink:href="#DejaVuSans-30"/>
      </g>
     </g>
    </g>
    <g id="xtick_2">
     <g id="line2d_2">
      <g>
       <use xlink:href="#mc018fd3625" x="119.625287" y="307.584" style="stroke: #000000; stroke-width: 0.8"/>
      </g>
     </g>
     <g id="text_2">
      <!-- 5000 -->
      <g transform="translate(106.900287 322.182437)scale(0.1 -0.1)">
       <defs>
        <path id="DejaVuSans-35" d="M 691 4666 
L 3169 4666 
L 3169 4134 
L 1269 4134 
L 1269 2991 
Q 1406 3038 1543 3061 
Q 1681 3084 1819 3084 
Q 2600 3084 3056 2656 
Q 3513 2228 3513 1497 
Q 3513 744 3044 326 
Q 2575 -91 1722 -91 
Q 1428 -91 1123 -41 
Q 819 9 494 109 
L 494 744 
Q 775 591 1075 516 
Q 1375 441 1709 441 
Q 2250 441 2565 725 
Q 2881 1009 2881 1497 
Q 2881 1984 2565 2268 
Q 2250 2553 1709 2553 
Q 1456 2553 1204 2497 
Q 953 2441 691 2322 
L 691 4666 
z
" transform="scale(0.015625)"/>
       </defs>
       <use xlink:href="#DejaVuSans-35"/>
       <use xlink:href="#DejaVuSans-30" x="63.623047"/>
       <use xlink:href="#DejaVuSans-30" x="127.246094"/>
       <use xlink:href="#DejaVuSans-30" x="190.869141"/>
      </g>
     </g>
    </g>
    <g id="xtick_3">
     <g id="line2d_3">
      <g>
       <use xlink:href="#mc018fd3625" x="165.871056" y="307.584" style="stroke: #000000; stroke-width: 0.8"/>
      </g>
     </g>
     <g id="text_3">
      <!-- 10000 -->
      <g transform="translate(149.964806 322.182437)scale(0.1 -0.1)">
       <defs>
        <path id="DejaVuSans-31" d="M 794 531 
L 1825 531 
L 1825 4091 
L 703 3866 
L 703 4441 
L 1819 4666 
L 2450 4666 
L 2450 531 
L 3481 531 
L 3481 0 
L 794 0 
L 794 531 
z
" transform="scale(0.015625)"/>
       </defs>
       <use xlink:href="#DejaVuSans-31"/>
       <use xlink:href="#DejaVuSans-30" x="63.623047"/>
       <use xlink:href="#DejaVuSans-30" x="127.246094"/>
       <use xlink:href="#DejaVuSans-30" x="190.869141"/>
       <use xlink:href="#DejaVuSans-30" x="254.492188"/>
      </g>
     </g>
    </g>
    <g id="xtick_4">
     <g id="line2d_4">
      <g>
       <use xlink:href="#mc018fd3625" x="212.116825" y="307.584" style="stroke: #000000; stroke-width: 0.8"/>
      </g>
     </g>
     <g id="text_4">
      <!-- 15000 -->
      <g transform="translate(196.210575 322.182437)scale(0.1 -0.1)">
       <use xlink:href="#DejaVuSans-31"/>
       <use xlink:href="#DejaVuSans-35" x="63.623047"/>
       <use xlink:href="#DejaVuSans-30" x="127.246094"/>
       <use xlink:href="#DejaVuSans-30" x="190.869141"/>
       <use xlink:href="#DejaVuSans-30" x="254.492188"/>
      </g>
     </g>
    </g>
    <g id="xtick_5">
     <g id="line2d_5">
      <g>
       <use xlink:href="#mc018fd3625" x="258.362594" y="307.584" style="stroke: #000000; stroke-width: 0.8"/>
      </g>
     </g>
     <g id="text_5">
      <!-- 20000 -->
      <g transform="translate(242.456344 322.182437)scale(0.1 -0.1)">
       <defs>
        <path id="DejaVuSans-32" d="M 1228 531 
L 3431 531 
L 3431 0 
L 469 0 
L 469 531 
Q 828 903 1448 1529 
Q 2069 2156 2228 2338 
Q 2531 2678 2651 2914 
Q 2772 3150 2772 3378 
Q 2772 3750 2511 3984 
Q 2250 4219 1831 4219 
Q 1534 4219 1204 4116 
Q 875 4013 500 3803 
L 500 4441 
Q 881 4594 1212 4672 
Q 1544 4750 1819 4750 
Q 2544 4750 2975 4387 
Q 3406 4025 3406 3419 
Q 3406 3131 3298 2873 
Q 3191 2616 2906 2266 
Q 2828 2175 2409 1742 
Q 1991 1309 1228 531 
z
" transform="scale(0.015625)"/>
       </defs>
       <use xlink:href="#DejaVuSans-32"/>
       <use xlink:href="#DejaVuSans-30" x="63.623047"/>
       <use xlink:href="#DejaVuSans-30" x="127.246094"/>
       <use xlink:href="#DejaVuSans-30" x="190.869141"/>
       <use xlink:href="#DejaVuSans-30" x="254.492188"/>
      </g>
     </g>
    </g>
    <g id="xtick_6">
     <g id="line2d_6">
      <g>
       <use xlink:href="#mc018fd3625" x="304.608362" y="307.584" style="stroke: #000000; stroke-width: 0.8"/>
      </g>
     </g>
     <g id="text_6">
      <!-- 25000 -->
      <g transform="translate(288.702112 322.182437)scale(0.1 -0.1)">
       <use xlink:href="#DejaVuSans-32"/>
       <use xlink:href="#DejaVuSans-35" x="63.623047"/>
       <use xlink:href="#DejaVuSans-30" x="127.246094"/>
       <use xlink:href="#DejaVuSans-30" x="190.869141"/>
       <use xlink:href="#DejaVuSans-30" x="254.492188"/>
      </g>
     </g>
    </g>
    <g id="xtick_7">
     <g id="line2d_7">
      <g>
       <use xlink:href="#mc018fd3625" x="350.854131" y="307.584" style="stroke: #000000; stroke-width: 0.8"/>
      </g>
     </g>
     <g id="text_7">
      <!-- 30000 -->
      <g transform="translate(334.947881 322.182437)scale(0.1 -0.1)">
       <defs>
        <path id="DejaVuSans-33" d="M 2597 2516 
Q 3050 2419 3304 2112 
Q 3559 1806 3559 1356 
Q 3559 666 3084 287 
Q 2609 -91 1734 -91 
Q 1441 -91 1130 -33 
Q 819 25 488 141 
L 488 750 
Q 750 597 1062 519 
Q 1375 441 1716 441 
Q 2309 441 2620 675 
Q 2931 909 2931 1356 
Q 2931 1769 2642 2001 
Q 2353 2234 1838 2234 
L 1294 2234 
L 1294 2753 
L 1863 2753 
Q 2328 2753 2575 2939 
Q 2822 3125 2822 3475 
Q 2822 3834 2567 4026 
Q 2313 4219 1838 4219 
Q 1578 4219 1281 4162 
Q 984 4106 628 3988 
L 628 4550 
Q 988 4650 1302 4700 
Q 1616 4750 1894 4750 
Q 2613 4750 3031 4423 
Q 3450 4097 3450 3541 
Q 3450 3153 3228 2886 
Q 3006 2619 2597 2516 
z
" transform="scale(0.015625)"/>
       </defs>
       <use xlink:href="#DejaVuSans-33"/>
       <use xlink:href="#DejaVuSans-30" x="63.623047"/>
       <use xlink:href="#DejaVuSans-30" x="127.246094"/>
       <use xlink:href="#DejaVuSans-30" x="190.869141"/>
       <use xlink:href="#DejaVuSans-30" x="254.492188"/>
      </g>
     </g>
    </g>
    <g id="xtick_8">
     <g id="line2d_8">
      <g>
       <use xlink:href="#mc018fd3625" x="397.0999" y="307.584" style="stroke: #000000; stroke-width: 0.8"/>
      </g>
     </g>
     <g id="text_8">
      <!-- 35000 -->
      <g transform="translate(381.19365 322.182437)scale(0.1 -0.1)">
       <use xlink:href="#DejaVuSans-33"/>
       <use xlink:href="#DejaVuSans-35" x="63.623047"/>
       <use xlink:href="#DejaVuSans-30" x="127.246094"/>
       <use xlink:href="#DejaVuSans-30" x="190.869141"/>
       <use xlink:href="#DejaVuSans-30" x="254.492188"/>
      </g>
     </g>
    </g>
    <g id="text_9">
     <!-- step -->
     <g transform="translate(225.344375 335.860562)scale(0.1 -0.1)">
      <defs>
       <path id="DejaVuSans-73" d="M 2834 3397 
L 2834 2853 
Q 2591 2978 2328 3040 
Q 2066 3103 1784 3103 
Q 1356 3103 1142 2972 
Q 928 2841 928 2578 
Q 928 2378 1081 2264 
Q 1234 2150 1697 2047 
L 1894 2003 
Q 2506 1872 2764 1633 
Q 3022 1394 3022 966 
Q 3022 478 2636 193 
Q 2250 -91 1575 -91 
Q 1294 -91 989 -36 
Q 684 19 347 128 
L 347 722 
Q 666 556 975 473 
Q 1284 391 1588 391 
Q 1994 391 2212 530 
Q 2431 669 2431 922 
Q 2431 1156 2273 1281 
Q 2116 1406 1581 1522 
L 1381 1569 
Q 847 1681 609 1914 
Q 372 2147 372 2553 
Q 372 3047 722 3315 
Q 1072 3584 1716 3584 
Q 2034 3584 2315 3537 
Q 2597 3491 2834 3397 
z
" transform="scale(0.015625)"/>
       <path id="DejaVuSans-74" d="M 1172 4494 
L 1172 3500 
L 2356 3500 
L 2356 3053 
L 1172 3053 
L 1172 1153 
Q 1172 725 1289 603 
Q 1406 481 1766 481 
L 2356 481 
L 2356 0 
L 1766 0 
Q 1100 0 847 248 
Q 594 497 594 1153 
L 594 3053 
L 172 3053 
L 172 3500 
L 594 3500 
L 594 4494 
L 1172 4494 
z
" transform="scale(0.015625)"/>
       <path id="DejaVuSans-65" d="M 3597 1894 
L 3597 1613 
L 953 1613 
Q 991 1019 1311 708 
Q 1631 397 2203 397 
Q 2534 397 2845 478 
Q 3156 559 3463 722 
L 3463 178 
Q 3153 47 2828 -22 
Q 2503 -91 2169 -91 
Q 1331 -91 842 396 
Q 353 884 353 1716 
Q 353 2575 817 3079 
Q 1281 3584 2069 3584 
Q 2775 3584 3186 3129 
Q 3597 2675 3597 1894 
z
M 3022 2063 
Q 3016 2534 2758 2815 
Q 2500 3097 2075 3097 
Q 1594 3097 1305 2825 
Q 1016 2553 972 2059 
L 3022 2063 
z
" transform="scale(0.015625)"/>
       <path id="DejaVuSans-70" d="M 1159 525 
L 1159 -1331 
L 581 -1331 
L 581 3500 
L 1159 3500 
L 1159 2969 
Q 1341 3281 1617 3432 
Q 1894 3584 2278 3584 
Q 2916 3584 3314 3078 
Q 3713 2572 3713 1747 
Q 3713 922 3314 415 
Q 2916 -91 2278 -91 
Q 1894 -91 1617 61 
Q 1341 213 1159 525 
z
M 3116 1747 
Q 3116 2381 2855 2742 
Q 2594 3103 2138 3103 
Q 1681 3103 1420 2742 
Q 1159 2381 1159 1747 
Q 1159 1113 1420 752 
Q 1681 391 2138 391 
Q 2594 391 2855 752 
Q 3116 1113 3116 1747 
z
" transform="scale(0.015625)"/>
      </defs>
      <use xlink:href="#DejaVuSans-73"/>
      <use xlink:href="#DejaVuSans-74" x="52.099609"/>
      <use xlink:href="#DejaVuSans-65" x="91.308594"/>
      <use xlink:href="#DejaVuSans-70" x="152.832031"/>
     </g>
    </g>
   </g>
   <g id="matplotlib.axis_2">
    <g id="ytick_1">
     <g id="line2d_9">
      <defs>
       <path id="mb4ae406f03" d="M 0 0 
L -3.5 0 
" style="stroke: #000000; stroke-width: 0.8"/>
      </defs>
      <g>
       <use xlink:href="#mb4ae406f03" x="57.6" y="290.83541" style="stroke: #000000; stroke-width: 0.8"/>
      </g>
     </g>
     <g id="text_10">
      <!-- 0.2 -->
      <g transform="translate(34.696875 294.634629)scale(0.1 -0.1)">
       <defs>
        <path id="DejaVuSans-2e" d="M 684 794 
L 1344 794 
L 1344 0 
L 684 0 
L 684 794 
z
" transform="scale(0.015625)"/>
       </defs>
       <use xlink:href="#DejaVuSans-30"/>
       <use xlink:href="#DejaVuSans-2e" x="63.623047"/>
       <use xlink:href="#DejaVuSans-32" x="95.410156"/>
      </g>
     </g>
    </g>
    <g id="ytick_2">
     <g id="line2d_10">
      <g>
       <use xlink:href="#mb4ae406f03" x="57.6" y="253.614691" style="stroke: #000000; stroke-width: 0.8"/>
      </g>
     </g>
     <g id="text_11">
      <!-- 0.3 -->
      <g transform="translate(34.696875 257.41391)scale(0.1 -0.1)">
       <use xlink:href="#DejaVuSans-30"/>
       <use xlink:href="#DejaVuSans-2e" x="63.623047"/>
       <use xlink:href="#DejaVuSans-33" x="95.410156"/>
      </g>
     </g>
    </g>
    <g id="ytick_3">
     <g id="line2d_11">
      <g>
       <use xlink:href="#mb4ae406f03" x="57.6" y="216.393973" style="stroke: #000000; stroke-width: 0.8"/>
      </g>
     </g>
     <g id="text_12">
      <!-- 0.4 -->
      <g transform="translate(34.696875 220.193191)scale(0.1 -0.1)">
       <defs>
        <path id="DejaVuSans-34" d="M 2419 4116 
L 825 1625 
L 2419 1625 
L 2419 4116 
z
M 2253 4666 
L 3047 4666 
L 3047 1625 
L 3713 1625 
L 3713 1100 
L 3047 1100 
L 3047 0 
L 2419 0 
L 2419 1100 
L 313 1100 
L 313 1709 
L 2253 4666 
z
" transform="scale(0.015625)"/>
       </defs>
       <use xlink:href="#DejaVuSans-30"/>
       <use xlink:href="#DejaVuSans-2e" x="63.623047"/>
       <use xlink:href="#DejaVuSans-34" x="95.410156"/>
      </g>
     </g>
    </g>
    <g id="ytick_4">
     <g id="line2d_12">
      <g>
       <use xlink:href="#mb4ae406f03" x="57.6" y="179.173254" style="stroke: #000000; stroke-width: 0.8"/>
      </g>
     </g>
     <g id="text_13">
      <!-- 0.5 -->
      <g transform="translate(34.696875 182.972473)scale(0.1 -0.1)">
       <use xlink:href="#DejaVuSans-30"/>
       <use xlink:href="#DejaVuSans-2e" x="63.623047"/>
       <use xlink:href="#DejaVuSans-35" x="95.410156"/>
      </g>
     </g>
    </g>
    <g id="ytick_5">
     <g id="line2d_13">
      <g>
       <use xlink:href="#mb4ae406f03" x="57.6" y="141.952535" style="stroke: #000000; stroke-width: 0.8"/>
      </g>
     </g>
     <g id="text_14">
      <!-- 0.6 -->
      <g transform="translate(34.696875 145.751754)scale(0.1 -0.1)">
       <defs>
        <path id="DejaVuSans-36" d="M 2113 2584 
Q 1688 2584 1439 2293 
Q 1191 2003 1191 1497 
Q 1191 994 1439 701 
Q 1688 409 2113 409 
Q 2538 409 2786 701 
Q 3034 994 3034 1497 
Q 3034 2003 2786 2293 
Q 2538 2584 2113 2584 
z
M 3366 4563 
L 3366 3988 
Q 3128 4100 2886 4159 
Q 2644 4219 2406 4219 
Q 1781 4219 1451 3797 
Q 1122 3375 1075 2522 
Q 1259 2794 1537 2939 
Q 1816 3084 2150 3084 
Q 2853 3084 3261 2657 
Q 3669 2231 3669 1497 
Q 3669 778 3244 343 
Q 2819 -91 2113 -91 
Q 1303 -91 875 529 
Q 447 1150 447 2328 
Q 447 3434 972 4092 
Q 1497 4750 2381 4750 
Q 2619 4750 2861 4703 
Q 3103 4656 3366 4563 
z
" transform="scale(0.015625)"/>
       </defs>
       <use xlink:href="#DejaVuSans-30"/>
       <use xlink:href="#DejaVuSans-2e" x="63.623047"/>
       <use xlink:href="#DejaVuSans-36" x="95.410156"/>
      </g>
     </g>
    </g>
    <g id="ytick_6">
     <g id="line2d_14">
      <g>
       <use xlink:href="#mb4ae406f03" x="57.6" y="104.731816" style="stroke: #000000; stroke-width: 0.8"/>
      </g>
     </g>
     <g id="text_15">
      <!-- 0.7 -->
      <g transform="translate(34.696875 108.531035)scale(0.1 -0.1)">
       <defs>
        <path id="DejaVuSans-37" d="M 525 4666 
L 3525 4666 
L 3525 4397 
L 1831 0 
L 1172 0 
L 2766 4134 
L 525 4134 
L 525 4666 
z
" transform="scale(0.015625)"/>
       </defs>
       <use xlink:href="#DejaVuSans-30"/>
       <use xlink:href="#DejaVuSans-2e" x="63.623047"/>
       <use xlink:href="#DejaVuSans-37" x="95.410156"/>
      </g>
     </g>
    </g>
    <g id="ytick_7">
     <g id="line2d_15">
      <g>
       <use xlink:href="#mb4ae406f03" x="57.6" y="67.511098" style="stroke: #000000; stroke-width: 0.8"/>
      </g>
     </g>
     <g id="text_16">
      <!-- 0.8 -->
      <g transform="translate(34.696875 71.310316)scale(0.1 -0.1)">
       <defs>
        <path id="DejaVuSans-38" d="M 2034 2216 
Q 1584 2216 1326 1975 
Q 1069 1734 1069 1313 
Q 1069 891 1326 650 
Q 1584 409 2034 409 
Q 2484 409 2743 651 
Q 3003 894 3003 1313 
Q 3003 1734 2745 1975 
Q 2488 2216 2034 2216 
z
M 1403 2484 
Q 997 2584 770 2862 
Q 544 3141 544 3541 
Q 544 4100 942 4425 
Q 1341 4750 2034 4750 
Q 2731 4750 3128 4425 
Q 3525 4100 3525 3541 
Q 3525 3141 3298 2862 
Q 3072 2584 2669 2484 
Q 3125 2378 3379 2068 
Q 3634 1759 3634 1313 
Q 3634 634 3220 271 
Q 2806 -91 2034 -91 
Q 1263 -91 848 271 
Q 434 634 434 1313 
Q 434 1759 690 2068 
Q 947 2378 1403 2484 
z
M 1172 3481 
Q 1172 3119 1398 2916 
Q 1625 2713 2034 2713 
Q 2441 2713 2670 2916 
Q 2900 3119 2900 3481 
Q 2900 3844 2670 4047 
Q 2441 4250 2034 4250 
Q 1625 4250 1398 4047 
Q 1172 3844 1172 3481 
z
" transform="scale(0.015625)"/>
       </defs>
       <use xlink:href="#DejaVuSans-30"/>
       <use xlink:href="#DejaVuSans-2e" x="63.623047"/>
       <use xlink:href="#DejaVuSans-38" x="95.410156"/>
      </g>
     </g>
    </g>
    <g id="text_17">
     <!-- accuracy -->
     <g transform="translate(28.617187 197.087375)rotate(-90)scale(0.1 -0.1)">
      <defs>
       <path id="DejaVuSans-61" d="M 2194 1759 
Q 1497 1759 1228 1600 
Q 959 1441 959 1056 
Q 959 750 1161 570 
Q 1363 391 1709 391 
Q 2188 391 2477 730 
Q 2766 1069 2766 1631 
L 2766 1759 
L 2194 1759 
z
M 3341 1997 
L 3341 0 
L 2766 0 
L 2766 531 
Q 2569 213 2275 61 
Q 1981 -91 1556 -91 
Q 1019 -91 701 211 
Q 384 513 384 1019 
Q 384 1609 779 1909 
Q 1175 2209 1959 2209 
L 2766 2209 
L 2766 2266 
Q 2766 2663 2505 2880 
Q 2244 3097 1772 3097 
Q 1472 3097 1187 3025 
Q 903 2953 641 2809 
L 641 3341 
Q 956 3463 1253 3523 
Q 1550 3584 1831 3584 
Q 2591 3584 2966 3190 
Q 3341 2797 3341 1997 
z
" transform="scale(0.015625)"/>
       <path id="DejaVuSans-63" d="M 3122 3366 
L 3122 2828 
Q 2878 2963 2633 3030 
Q 2388 3097 2138 3097 
Q 1578 3097 1268 2742 
Q 959 2388 959 1747 
Q 959 1106 1268 751 
Q 1578 397 2138 397 
Q 2388 397 2633 464 
Q 2878 531 3122 666 
L 3122 134 
Q 2881 22 2623 -34 
Q 2366 -91 2075 -91 
Q 1284 -91 818 406 
Q 353 903 353 1747 
Q 353 2603 823 3093 
Q 1294 3584 2113 3584 
Q 2378 3584 2631 3529 
Q 2884 3475 3122 3366 
z
" transform="scale(0.015625)"/>
       <path id="DejaVuSans-75" d="M 544 1381 
L 544 3500 
L 1119 3500 
L 1119 1403 
Q 1119 906 1312 657 
Q 1506 409 1894 409 
Q 2359 409 2629 706 
Q 2900 1003 2900 1516 
L 2900 3500 
L 3475 3500 
L 3475 0 
L 2900 0 
L 2900 538 
Q 2691 219 2414 64 
Q 2138 -91 1772 -91 
Q 1169 -91 856 284 
Q 544 659 544 1381 
z
M 1991 3584 
L 1991 3584 
z
" transform="scale(0.015625)"/>
       <path id="DejaVuSans-72" d="M 2631 2963 
Q 2534 3019 2420 3045 
Q 2306 3072 2169 3072 
Q 1681 3072 1420 2755 
Q 1159 2438 1159 1844 
L 1159 0 
L 581 0 
L 581 3500 
L 1159 3500 
L 1159 2956 
Q 1341 3275 1631 3429 
Q 1922 3584 2338 3584 
Q 2397 3584 2469 3576 
Q 2541 3569 2628 3553 
L 2631 2963 
z
" transform="scale(0.015625)"/>
       <path id="DejaVuSans-79" d="M 2059 -325 
Q 1816 -950 1584 -1140 
Q 1353 -1331 966 -1331 
L 506 -1331 
L 506 -850 
L 844 -850 
Q 1081 -850 1212 -737 
Q 1344 -625 1503 -206 
L 1606 56 
L 191 3500 
L 800 3500 
L 1894 763 
L 2988 3500 
L 3597 3500 
L 2059 -325 
z
" transform="scale(0.015625)"/>
      </defs>
      <use xlink:href="#DejaVuSans-61"/>
      <use xlink:href="#DejaVuSans-63" x="61.279297"/>
      <use xlink:href="#DejaVuSans-63" x="116.259766"/>
      <use xlink:href="#DejaVuSans-75" x="171.240234"/>
      <use xlink:href="#DejaVuSans-72" x="234.619141"/>
      <use xlink:href="#DejaVuSans-61" x="275.732422"/>
      <use xlink:href="#DejaVuSans-63" x="337.011719"/>
      <use xlink:href="#DejaVuSans-79" x="391.992188"/>
     </g>
    </g>
   </g>
   <g id="line2d_16">
    <path d="M 73.832727 295.488 
L 74.483338 246.904357 
L 75.133948 275.344165 
L 75.784558 257.155448 
L 76.435169 196.089103 
L 77.085779 243.69898 
L 77.736389 220.508317 
L 78.386999 245.624585 
L 79.03761 240.591518 
L 79.68822 257.305482 
L 80.33883 209.002462 
L 80.989441 226.552362 
L 81.640051 223.109844 
L 82.290661 177.356509 
L 82.941272 194.877149 
L 83.591882 198.080242 
L 84.242492 223.725707 
L 84.893103 180.083367 
L 85.543713 200.925201 
L 86.194323 240.777812 
L 86.844934 195.811815 
L 87.495544 199.566187 
L 88.146154 192.16162 
L 88.796764 234.719571 
L 89.447375 175.771423 
L 90.097985 187.323959 
L 90.748595 191.323282 
L 91.399206 194.226902 
L 92.049816 201.193175 
L 92.700426 241.310997 
L 93.351037 182.736381 
L 94.001647 174.81505 
L 94.652257 249.359123 
L 95.302868 161.54509 
L 95.953478 207.001725 
L 96.604088 223.105736 
L 97.254698 211.674461 
L 97.905309 153.917292 
L 98.555919 208.61999 
L 99.206529 209.673923 
L 99.85714 193.791486 
L 100.50775 189.148178 
L 101.15836 198.773028 
L 101.808971 177.334068 
L 102.459581 180.108049 
L 103.110191 193.144898 
L 103.760802 209.901458 
L 104.411412 161.460178 
L 105.062022 168.372124 
L 105.712633 176.784848 
L 106.363243 200.918396 
L 107.013853 233.682937 
L 107.664463 209.754475 
L 108.315074 142.855358 
L 108.965684 184.906231 
L 109.616294 203.939973 
L 110.266905 185.602356 
L 110.917515 191.53967 
L 111.568125 174.236209 
L 112.218736 210.217664 
L 112.869346 159.395987 
L 113.519956 175.947763 
L 114.170567 182.514189 
L 114.821177 198.369325 
L 115.471787 204.198219 
L 116.122398 170.222545 
L 116.773008 148.694261 
L 117.423618 156.545573 
L 118.074228 152.161922 
L 118.724839 122.070749 
L 119.375449 170.719818 
L 120.026059 175.644908 
L 120.67667 189.871154 
L 121.32728 159.800532 
L 121.97789 183.904464 
L 122.628501 174.208514 
L 123.279111 206.67357 
L 123.929721 148.717338 
L 124.580332 209.399576 
L 125.230942 136.225218 
L 125.881552 124.090197 
L 126.532163 199.560838 
L 127.182773 148.069513 
L 127.833383 165.903801 
L 128.483993 163.507795 
L 129.134604 180.024334 
L 129.785214 140.172473 
L 130.435824 206.307747 
L 131.086435 142.120715 
L 131.737045 187.274269 
L 132.387655 142.592778 
L 133.038266 164.388425 
L 133.688876 209.746175 
L 134.339486 163.828566 
L 134.990097 136.483496 
L 135.640707 184.628861 
L 136.291317 153.825851 
L 136.941927 110.458912 
L 137.592538 162.890808 
L 138.243148 185.34784 
L 138.893758 186.51146 
L 139.544369 170.817605 
L 140.194979 165.316691 
L 140.845589 147.651324 
L 141.4962 183.499791 
L 142.14681 127.93755 
L 142.79742 197.905848 
L 143.448031 168.630376 
L 144.098641 201.935039 
L 144.749251 142.883438 
L 145.399862 158.576296 
L 146.050472 114.293843 
L 146.701082 164.489358 
L 147.351692 164.354281 
L 148.002303 167.182939 
L 148.652913 142.384806 
L 149.303523 140.726473 
L 149.954134 141.226264 
L 150.604744 140.043486 
L 151.255354 137.123895 
L 151.905965 147.46551 
L 152.556575 117.440705 
L 153.207185 143.339454 
L 153.857796 131.484717 
L 154.508406 126.544319 
L 155.159016 152.873124 
L 155.809627 130.179864 
L 156.460237 127.239717 
L 157.110847 146.808239 
L 157.761457 142.041384 
L 158.412068 145.566939 
L 159.062678 116.442657 
L 159.713288 134.000893 
L 160.363899 155.594741 
L 161.014509 106.453447 
L 161.665119 123.676244 
L 162.31573 112.72418 
L 162.96634 147.529734 
L 163.61695 144.518527 
L 164.267561 143.78411 
L 164.918171 156.897764 
L 165.568781 142.147866 
L 166.219392 92.113895 
L 166.870002 160.367993 
L 167.520612 116.394554 
L 168.171222 93.898704 
L 168.821833 122.51129 
L 169.472443 89.931986 
L 170.123053 171.762146 
L 170.773664 122.282549 
L 171.424274 138.842256 
L 172.074884 88.558326 
L 172.725495 141.078843 
L 173.376105 155.238826 
L 174.026715 102.319251 
L 174.677326 133.282949 
L 175.327936 114.179726 
L 175.978546 163.675007 
L 176.629156 104.403608 
L 177.279767 122.351886 
L 177.930377 156.931642 
L 178.580987 101.086195 
L 179.231598 117.989673 
L 179.882208 107.677546 
L 180.532818 169.471028 
L 181.183429 121.24262 
L 181.834039 127.671612 
L 182.484649 117.553938 
L 183.13526 123.4009 
L 183.78587 151.810215 
L 184.43648 107.395316 
L 185.087091 118.418271 
L 185.737701 125.079775 
L 186.388311 137.754798 
L 187.038921 122.140629 
L 187.689532 138.634598 
L 188.340142 103.255276 
L 188.990752 125.272097 
L 189.641363 114.395264 
L 190.291973 118.739447 
L 190.942583 91.514336 
L 191.593194 112.762898 
L 192.243804 137.915571 
L 192.894414 130.473038 
L 193.545025 98.477181 
L 194.195635 155.6758 
L 194.846245 149.693795 
L 195.496856 93.574885 
L 196.147466 132.547726 
L 196.798076 95.152504 
L 197.448686 125.668376 
L 198.099297 72.36975 
L 198.749907 111.64147 
L 199.400517 115.943192 
L 200.051128 105.861143 
L 200.701738 166.680508 
L 201.352348 150.419426 
L 202.002959 99.414815 
L 202.653569 139.605381 
L 203.304179 79.21163 
L 203.95479 143.78213 
L 204.6054 122.013962 
L 205.25601 72.81935 
L 205.906621 159.813524 
L 206.557231 117.17727 
L 207.207841 149.615527 
L 207.858451 123.51229 
L 208.509062 90.516953 
L 209.159672 66.16628 
L 209.810282 79.055369 
L 210.460893 116.316553 
L 211.111503 103.086359 
L 211.762113 125.156563 
L 212.412724 73.171762 
L 213.063334 128.699033 
L 213.713944 131.739383 
L 214.364555 100.732611 
L 215.665775 150.277124 
L 216.316385 114.764179 
L 216.966996 133.184121 
L 217.617606 90.722541 
L 218.268216 164.207736 
L 218.918827 95.852788 
L 219.569437 145.308978 
L 220.220047 120.095564 
L 220.870658 116.406307 
L 221.521268 177.06858 
L 222.171878 118.363922 
L 222.822489 142.163287 
L 223.473099 120.441498 
L 224.123709 140.353282 
L 224.77432 96.524324 
L 225.42493 140.76155 
L 226.07554 95.787805 
L 227.376761 116.926473 
L 228.027371 114.149556 
L 228.677981 115.233569 
L 229.328592 95.825961 
L 229.979202 117.241953 
L 230.629812 109.757011 
L 231.280423 122.392816 
L 231.931033 91.900226 
L 232.581643 146.006745 
L 233.232254 104.614258 
L 233.882864 131.465047 
L 234.533474 126.026074 
L 235.184085 104.08988 
L 235.834695 144.934 
L 236.485305 91.468212 
L 237.135915 121.260571 
L 237.786526 81.497757 
L 238.437136 146.505564 
L 239.087746 116.891862 
L 239.738357 75.795287 
L 240.388967 140.557568 
L 241.039577 144.953981 
L 242.340798 94.870679 
L 242.991408 139.741665 
L 243.642019 96.478821 
L 244.292629 117.735907 
L 244.943239 124.959192 
L 245.59385 116.808676 
L 246.24446 99.316043 
L 246.89507 131.790851 
L 247.54568 155.141386 
L 248.196291 117.099616 
L 248.846901 120.526647 
L 249.497511 88.1741 
L 250.148122 99.018868 
L 250.798732 152.731166 
L 251.449342 56.330963 
L 252.099953 164.06541 
L 252.750563 97.060984 
L 253.401173 166.704464 
L 254.051784 91.27547 
L 254.702394 124.145558 
L 255.353004 115.453208 
L 256.003615 119.561225 
L 256.654225 106.184476 
L 257.304835 110.688177 
L 257.955445 137.612155 
L 258.606056 123.434253 
L 259.256666 178.643726 
L 259.907276 110.14855 
L 260.557887 106.913842 
L 261.208497 143.549683 
L 261.859107 94.011634 
L 262.509718 86.384944 
L 263.160328 120.123573 
L 263.810938 78.495908 
L 264.461549 140.204526 
L 265.112159 105.279495 
L 265.762769 171.980632 
L 266.413379 80.205578 
L 267.06399 158.451869 
L 267.7146 53.568 
L 268.36521 108.377081 
L 269.015821 79.366582 
L 269.666431 73.617681 
L 270.317041 132.871405 
L 270.967652 122.322573 
L 271.618262 109.225186 
L 272.268872 102.421168 
L 272.919483 90.800722 
L 273.570093 146.783351 
L 274.220703 99.497044 
L 274.871314 145.563681 
L 275.521924 86.383517 
L 276.172534 128.735827 
L 276.823144 139.220822 
L 277.473755 111.291157 
L 278.124365 164.96272 
L 278.774975 98.09856 
L 279.425586 131.548438 
L 280.076196 116.725031 
L 280.726806 133.876727 
L 281.377417 126.614826 
L 282.028027 124.512541 
L 282.678637 134.236945 
L 283.329248 117.185842 
L 283.979858 138.229577 
L 284.630468 97.723811 
L 285.281079 122.63381 
L 285.931689 113.309746 
L 286.582299 125.725848 
L 287.232909 104.831052 
L 287.88352 143.497033 
L 288.53413 114.343257 
L 289.18474 122.927714 
L 289.835351 92.079389 
L 290.485961 82.636985 
L 291.136571 109.779759 
L 291.787182 98.645008 
L 292.437792 113.196799 
L 293.088402 119.991202 
L 293.739013 134.31135 
L 294.389623 86.094066 
L 295.040233 104.661081 
L 295.690844 154.151378 
L 296.341454 116.745476 
L 296.992064 141.593218 
L 297.642674 148.162938 
L 298.293285 126.884518 
L 298.943895 172.656973 
L 299.594505 132.733985 
L 300.245116 153.739974 
L 300.895726 101.808995 
L 301.546336 86.746949 
L 302.196947 90.732299 
L 302.847557 120.14364 
L 303.498167 109.766954 
L 304.148778 93.825054 
L 304.799388 114.099867 
L 305.449998 89.435132 
L 306.100608 147.37863 
L 306.751219 82.342542 
L 307.401829 136.17734 
L 308.052439 137.893092 
L 308.70305 60.279844 
L 309.35366 119.860818 
L 310.00427 148.743896 
L 310.654881 106.301413 
L 311.305491 114.934771 
L 311.956101 134.462058 
L 312.606712 195.024094 
L 313.257322 151.648976 
L 313.907932 116.984173 
L 314.558543 200.104435 
L 315.209153 158.589948 
L 315.859763 182.746336 
L 316.510373 192.419966 
L 317.160984 131.072047 
L 317.811594 163.827581 
L 318.462204 132.627737 
L 319.112815 140.415346 
L 319.763425 130.514127 
L 320.414035 151.574745 
L 321.064646 118.078438 
L 321.715256 171.953221 
L 322.365866 184.842206 
L 323.016477 180.448405 
L 323.667087 124.33193 
L 324.317697 123.305204 
L 324.968308 126.110905 
L 325.618918 122.911427 
L 326.269528 168.696534 
L 326.920138 170.074751 
L 327.570749 142.500804 
L 328.221359 179.180185 
L 328.871969 150.50701 
L 329.52258 133.907998 
L 330.17319 149.652736 
L 330.8238 140.938626 
L 331.474411 118.556824 
L 332.125021 178.507745 
L 332.775631 146.254331 
L 333.426242 155.180156 
L 334.076852 96.577704 
L 334.727462 106.544486 
L 335.378073 148.521135 
L 336.028683 134.864306 
L 336.679293 71.233664 
L 337.329903 113.303614 
L 337.980514 109.583483 
L 338.631124 151.306245 
L 339.281734 163.736853 
L 339.932345 157.797324 
L 340.582955 173.835458 
L 341.233565 113.155374 
L 341.884176 133.068176 
L 342.534786 131.212104 
L 343.185396 143.130787 
L 343.836007 125.455369 
L 344.486617 168.946423 
L 345.137227 123.500178 
L 345.787837 125.068984 
L 346.438448 138.441823 
L 347.089058 164.437001 
L 347.739668 144.582843 
L 348.390279 177.533745 
L 349.040889 95.334987 
L 349.691499 154.019345 
L 350.34211 122.556548 
L 350.99272 161.794316 
L 351.64333 127.478139 
L 352.293941 128.089675 
L 352.944551 113.998492 
L 353.595161 161.118515 
L 354.245772 130.873614 
L 354.896382 118.089207 
L 355.546992 137.647834 
L 356.197602 98.591961 
L 356.848213 178.486912 
L 357.498823 172.896211 
L 358.149433 100.495805 
L 358.800044 151.586403 
L 359.450654 158.750701 
L 360.101264 116.969579 
L 360.751875 166.603243 
L 361.402485 139.782914 
L 362.053095 106.075059 
L 362.703706 132.395005 
L 363.354316 146.954448 
L 364.004926 103.612631 
L 364.655537 159.033267 
L 365.306147 157.456267 
L 365.956757 102.336635 
L 366.607367 188.109558 
L 367.257978 124.208464 
L 367.908588 145.556528 
L 368.559198 115.506752 
L 369.209809 105.068941 
L 369.860419 132.785201 
L 370.511029 112.465404 
L 371.16164 138.946978 
L 371.81225 127.270676 
L 372.46286 77.014804 
L 373.113471 140.490189 
L 373.764081 127.119328 
L 374.414691 148.334863 
L 375.065302 121.798141 
L 375.715912 144.902333 
L 376.366522 133.719024 
L 377.017132 125.058538 
L 377.667743 179.173898 
L 378.318353 123.08777 
L 378.968963 140.498056 
L 379.619574 104.218458 
L 380.270184 146.305317 
L 380.920794 95.366675 
L 381.571405 136.203824 
L 382.872625 165.19049 
L 383.523236 107.657396 
L 384.173846 165.00125 
L 384.824456 129.286264 
L 385.475066 135.980634 
L 386.125677 174.170766 
L 386.776287 140.097055 
L 387.426897 176.917756 
L 388.077508 130.662768 
L 388.728118 148.122329 
L 389.378728 148.572808 
L 390.029339 86.635477 
L 391.330559 158.790349 
L 391.98117 89.040687 
L 392.63178 109.446884 
L 393.28239 102.482937 
L 393.933001 111.273967 
L 394.583611 118.381048 
L 395.234221 148.366093 
L 395.884831 134.508696 
L 396.535442 154.258605 
L 397.186052 105.473791 
L 397.836662 155.904479 
L 398.487273 95.274091 
L 398.487273 95.274091 
" clip-path="url(#pa25c7527c8)" style="fill: none; stroke: #ff4500; stroke-width: 1.5; stroke-linecap: square"/>
   </g>
   <g id="patch_3">
    <path d="M 57.6 307.584 
L 57.6 41.472 
" style="fill: none; stroke: #000000; stroke-width: 0.8; stroke-linejoin: miter; stroke-linecap: square"/>
   </g>
   <g id="patch_4">
    <path d="M 414.72 307.584 
L 414.72 41.472 
" style="fill: none; stroke: #000000; stroke-width: 0.8; stroke-linejoin: miter; stroke-linecap: square"/>
   </g>
   <g id="patch_5">
    <path d="M 57.6 307.584 
L 414.72 307.584 
" style="fill: none; stroke: #000000; stroke-width: 0.8; stroke-linejoin: miter; stroke-linecap: square"/>
   </g>
   <g id="patch_6">
    <path d="M 57.6 41.472 
L 414.72 41.472 
" style="fill: none; stroke: #000000; stroke-width: 0.8; stroke-linejoin: miter; stroke-linecap: square"/>
   </g>
   <g id="text_18">
    <!-- Train Accuracy -->
    <g transform="translate(174.457266 26.472)scale(0.15 -0.15)">
     <defs>
      <path id="DejaVuSans-Bold-54" d="M 31 4666 
L 4331 4666 
L 4331 3756 
L 2784 3756 
L 2784 0 
L 1581 0 
L 1581 3756 
L 31 3756 
L 31 4666 
z
" transform="scale(0.015625)"/>
      <path id="DejaVuSans-Bold-72" d="M 3138 2547 
Q 2991 2616 2845 2648 
Q 2700 2681 2553 2681 
Q 2122 2681 1889 2404 
Q 1656 2128 1656 1613 
L 1656 0 
L 538 0 
L 538 3500 
L 1656 3500 
L 1656 2925 
Q 1872 3269 2151 3426 
Q 2431 3584 2822 3584 
Q 2878 3584 2943 3579 
Q 3009 3575 3134 3559 
L 3138 2547 
z
" transform="scale(0.015625)"/>
      <path id="DejaVuSans-Bold-61" d="M 2106 1575 
Q 1756 1575 1579 1456 
Q 1403 1338 1403 1106 
Q 1403 894 1545 773 
Q 1688 653 1941 653 
Q 2256 653 2472 879 
Q 2688 1106 2688 1447 
L 2688 1575 
L 2106 1575 
z
M 3816 1997 
L 3816 0 
L 2688 0 
L 2688 519 
Q 2463 200 2181 54 
Q 1900 -91 1497 -91 
Q 953 -91 614 226 
Q 275 544 275 1050 
Q 275 1666 698 1953 
Q 1122 2241 2028 2241 
L 2688 2241 
L 2688 2328 
Q 2688 2594 2478 2717 
Q 2269 2841 1825 2841 
Q 1466 2841 1156 2769 
Q 847 2697 581 2553 
L 581 3406 
Q 941 3494 1303 3539 
Q 1666 3584 2028 3584 
Q 2975 3584 3395 3211 
Q 3816 2838 3816 1997 
z
" transform="scale(0.015625)"/>
      <path id="DejaVuSans-Bold-69" d="M 538 3500 
L 1656 3500 
L 1656 0 
L 538 0 
L 538 3500 
z
M 538 4863 
L 1656 4863 
L 1656 3950 
L 538 3950 
L 538 4863 
z
" transform="scale(0.015625)"/>
      <path id="DejaVuSans-Bold-6e" d="M 4056 2131 
L 4056 0 
L 2931 0 
L 2931 347 
L 2931 1631 
Q 2931 2084 2911 2256 
Q 2891 2428 2841 2509 
Q 2775 2619 2662 2680 
Q 2550 2741 2406 2741 
Q 2056 2741 1856 2470 
Q 1656 2200 1656 1722 
L 1656 0 
L 538 0 
L 538 3500 
L 1656 3500 
L 1656 2988 
Q 1909 3294 2193 3439 
Q 2478 3584 2822 3584 
Q 3428 3584 3742 3212 
Q 4056 2841 4056 2131 
z
" transform="scale(0.015625)"/>
      <path id="DejaVuSans-Bold-20" transform="scale(0.015625)"/>
      <path id="DejaVuSans-Bold-41" d="M 3419 850 
L 1538 850 
L 1241 0 
L 31 0 
L 1759 4666 
L 3194 4666 
L 4922 0 
L 3713 0 
L 3419 850 
z
M 1838 1716 
L 3116 1716 
L 2478 3572 
L 1838 1716 
z
" transform="scale(0.015625)"/>
      <path id="DejaVuSans-Bold-63" d="M 3366 3391 
L 3366 2478 
Q 3138 2634 2908 2709 
Q 2678 2784 2431 2784 
Q 1963 2784 1702 2511 
Q 1441 2238 1441 1747 
Q 1441 1256 1702 982 
Q 1963 709 2431 709 
Q 2694 709 2930 787 
Q 3166 866 3366 1019 
L 3366 103 
Q 3103 6 2833 -42 
Q 2563 -91 2291 -91 
Q 1344 -91 809 395 
Q 275 881 275 1747 
Q 275 2613 809 3098 
Q 1344 3584 2291 3584 
Q 2566 3584 2833 3536 
Q 3100 3488 3366 3391 
z
" transform="scale(0.015625)"/>
      <path id="DejaVuSans-Bold-75" d="M 500 1363 
L 500 3500 
L 1625 3500 
L 1625 3150 
Q 1625 2866 1622 2436 
Q 1619 2006 1619 1863 
Q 1619 1441 1641 1255 
Q 1663 1069 1716 984 
Q 1784 875 1895 815 
Q 2006 756 2150 756 
Q 2500 756 2700 1025 
Q 2900 1294 2900 1772 
L 2900 3500 
L 4019 3500 
L 4019 0 
L 2900 0 
L 2900 506 
Q 2647 200 2364 54 
Q 2081 -91 1741 -91 
Q 1134 -91 817 281 
Q 500 653 500 1363 
z
" transform="scale(0.015625)"/>
      <path id="DejaVuSans-Bold-79" d="M 78 3500 
L 1197 3500 
L 2138 1125 
L 2938 3500 
L 4056 3500 
L 2584 -331 
Q 2363 -916 2067 -1148 
Q 1772 -1381 1288 -1381 
L 641 -1381 
L 641 -647 
L 991 -647 
Q 1275 -647 1404 -556 
Q 1534 -466 1606 -231 
L 1638 -134 
L 78 3500 
z
" transform="scale(0.015625)"/>
     </defs>
     <use xlink:href="#DejaVuSans-Bold-54"/>
     <use xlink:href="#DejaVuSans-Bold-72" x="57.212891"/>
     <use xlink:href="#DejaVuSans-Bold-61" x="106.529297"/>
     <use xlink:href="#DejaVuSans-Bold-69" x="174.009766"/>
     <use xlink:href="#DejaVuSans-Bold-6e" x="208.287109"/>
     <use xlink:href="#DejaVuSans-Bold-20" x="279.478516"/>
     <use xlink:href="#DejaVuSans-Bold-41" x="314.292969"/>
     <use xlink:href="#DejaVuSans-Bold-63" x="391.685547"/>
     <use xlink:href="#DejaVuSans-Bold-63" x="450.962891"/>
     <use xlink:href="#DejaVuSans-Bold-75" x="510.240234"/>
     <use xlink:href="#DejaVuSans-Bold-72" x="581.431641"/>
     <use xlink:href="#DejaVuSans-Bold-61" x="630.748047"/>
     <use xlink:href="#DejaVuSans-Bold-63" x="698.228516"/>
     <use xlink:href="#DejaVuSans-Bold-79" x="757.505859"/>
    </g>
   </g>
  </g>
 </g>
 <defs>
  <clipPath id="pa25c7527c8">
   <rect x="57.6" y="41.472" width="357.12" height="266.112"/>
  </clipPath>
 </defs>
</svg>
